<svg width="35" height="37" viewBox="0 0 35 37" fill="none" xmlns="http://www.w3.org/2000/svg">
<path fill-rule="evenodd" clip-rule="evenodd" d="M17.5008 0.895508C22.142 0.895658 26.5936 2.7926 29.8755 6.16817C33.157 9.54383 35 14.1227 35 18.8964C34.9999 23.6701 33.1573 28.249 29.8755 31.6245C26.5936 35.0001 22.142 36.8954 17.5008 36.8955C12.8597 36.8955 8.40809 34.9999 5.1262 31.6245C1.8444 28.249 0.000146417 23.6701 0 18.8964C0 14.1224 1.84427 9.54388 5.1262 6.16817C8.40814 2.79247 12.8595 0.895508 17.5008 0.895508ZM6.93291 30.7791C9.81285 33.4887 13.581 35.0013 17.5008 35.0013C19.5569 35.0012 21.5926 34.5842 23.4922 33.775C25.3919 32.9656 27.1179 31.7793 28.5719 30.2838C29.5418 29.2861 30.3733 28.1613 31.0561 26.9446L6.93291 30.7791ZM4.67619 9.66108C2.84598 12.35 1.84158 15.5693 1.84158 18.8964C1.84172 23.0433 3.40116 27.0215 6.17901 30.0139L17.0508 28.2854C17.247 25.7512 16.5744 24.2645 15.6875 23.4141C14.7463 22.5118 13.4889 22.2505 12.5307 22.3107C12.3551 22.3215 12.1917 22.2193 12.1189 22.0545C10.3604 18.0741 10.653 14.9503 12.1123 12.8004C12.4178 12.3503 12.7739 11.9502 13.1651 11.5946L5.02491 10.071C4.82645 10.0337 4.68521 9.85999 4.67619 9.66108ZM18.5885 10.4416C16.2969 10.4729 14.0633 11.4542 12.8097 13.3009C11.5982 15.0858 11.2397 17.7779 12.7831 21.4311C13.8634 21.429 15.2122 21.764 16.267 22.7753C17.3619 23.8253 18.0738 25.537 17.9143 28.1487L19.442 27.9062C19.457 26.2503 19.6753 24.6639 20.445 23.4807C21.2637 22.2224 22.6432 21.5069 24.7791 21.5284C26.1928 17.7078 25.7408 14.9613 24.4653 13.1762C23.1464 11.331 20.8795 10.4104 18.5885 10.4416ZM25.6825 13.54C26.7481 15.6363 26.8733 18.5126 25.4666 22.1331C25.3998 22.3051 25.2348 22.4155 25.0548 22.4081C22.943 22.3198 21.7974 22.9736 21.1508 23.9675C20.5409 24.9055 20.3202 26.2249 20.2939 27.7712L31.556 25.9795C31.7002 25.6767 31.8403 25.3713 31.9661 25.0589C32.7529 23.1051 33.1583 21.0112 33.1584 18.8964C33.1584 17.3731 32.9438 15.8729 32.5407 14.435C32.4571 14.4921 32.3558 14.5225 32.2484 14.5067L25.6825 13.54ZM17.5008 2.78971C13.348 2.78971 9.36457 4.48689 6.4281 7.50726C5.90494 8.04537 5.42447 8.61909 4.98505 9.22041C5.04587 9.20253 5.11131 9.19773 5.17768 9.21016L14.09 10.8789C15.41 10.0235 16.9985 9.58871 18.5769 9.56714C21.0379 9.5336 23.5544 10.5067 25.0797 12.5664L32.2949 13.6305C31.5268 11.3474 30.2643 9.24801 28.5719 7.50726C25.6356 4.48721 21.6533 2.78986 17.5008 2.78971Z" fill="#282E3C"/>
</svg>
