<svg width="40" height="31" viewBox="0 0 40 31" fill="none" xmlns="http://www.w3.org/2000/svg">
<path d="M6.31579 0.642151H33.6842C35.3593 0.642151 36.9657 1.27429 38.1501 2.39951C39.3346 3.52473 40 5.05085 40 6.64215V24.6422C40 26.2334 39.3346 27.7596 38.1501 28.8848C36.9657 30.01 35.3593 30.6421 33.6842 30.6421H6.31579C4.64074 30.6421 3.03429 30.01 1.84985 28.8848C0.665412 27.7596 0 26.2334 0 24.6422V6.64215C0 5.05085 0.665412 3.52473 1.84985 2.39951C3.03429 1.27429 4.64074 0.642151 6.31579 0.642151ZM6.31579 2.64215C5.19909 2.64215 4.12812 3.06358 3.3385 3.81372C2.54887 4.56387 2.10526 5.58128 2.10526 6.64215V8.64215H37.8947V6.64215C37.8947 5.58128 37.4511 4.56387 36.6615 3.81372C35.8719 3.06358 34.8009 2.64215 33.6842 2.64215H6.31579ZM2.10526 24.6422C2.10526 25.703 2.54887 26.7204 3.3385 27.4706C4.12812 28.2207 5.19909 28.6422 6.31579 28.6422H33.6842C34.8009 28.6422 35.8719 28.2207 36.6615 27.4706C37.4511 26.7204 37.8947 25.703 37.8947 24.6422V14.6422H2.10526V24.6422ZM6.31579 22.6421H14.7368V24.6422H6.31579V22.6421ZM18.9474 22.6421H25.2632V24.6422H18.9474V22.6421ZM2.10526 10.6421V12.6422H37.8947V10.6421H2.10526Z" fill="#112134"/>
</svg>
