<svg width="7" height="7" viewBox="0 0 7 7" fill="none" xmlns="http://www.w3.org/2000/svg">
<path d="M3.1375 0C1.415 0 0 1.415 0 3.13725C0 4.85975 1.415 6.27475 3.1375 6.27475C4.80125 6.27475 6.1655 4.95125 6.2575 3.30925C6.269 3.25263 6.27486 3.19502 6.275 3.13725C6.27491 3.07923 6.26905 3.02136 6.2575 2.9645C6.165 1.3225 4.80075 0 3.1375 0ZM3.1375 1.75C3.91425 1.75 4.525 2.3605 4.525 3.13725C4.525 3.914 3.91425 4.52475 3.1375 4.52475C2.36075 4.52475 1.75 3.914 1.75 3.13725C1.75 2.3605 2.3605 1.75 3.1375 1.75Z" fill="#A3BBEE"/>
</svg>
