<svg width="24" height="24" viewBox="0 0 24 24" fill="none" xmlns="http://www.w3.org/2000/svg">
<path fill-rule="evenodd" clip-rule="evenodd" d="M22.7368 24C23.0719 24 23.3931 23.8194 23.63 23.4979C23.8669 23.1764 24 22.7404 24 22.2857C24 21.8311 23.8669 21.395 23.63 21.0735C23.3931 20.752 23.0719 20.5714 22.7368 20.5714L1.26316 20.5714C0.92815 20.5714 0.60686 20.752 0.369972 21.0735C0.133083 21.395 1.41323e-06 21.8311 1.39336e-06 22.2857C1.37348e-06 22.7404 0.133083 23.1764 0.369971 23.4979C0.606859 23.8194 0.92815 24 1.26316 24L22.7368 24ZM24 12C24 12.4547 23.8669 12.8907 23.63 13.2122C23.3931 13.5337 23.0719 13.7143 22.7368 13.7143L1.26316 13.7143C0.92815 13.7143 0.60686 13.5337 0.369972 13.2122C0.133084 12.8907 1.82309e-06 12.4547 1.84296e-06 12C1.86283e-06 11.5453 0.133084 11.1093 0.369972 10.7878C0.60686 10.4663 0.92815 10.2857 1.26316 10.2857L22.7368 10.2857C23.0719 10.2857 23.3931 10.4663 23.63 10.7878C23.8669 11.1093 24 11.5453 24 12ZM24 1.71429C24 2.16894 23.8669 2.60498 23.63 2.92647C23.3931 3.24796 23.0719 3.42857 22.7368 3.42857L1.26316 3.42857C0.92815 3.42857 0.60686 3.24796 0.369972 2.92647C0.133084 2.60498 2.27269e-06 2.16894 2.29256e-06 1.71428C2.31244e-06 1.25963 0.133084 0.823593 0.369972 0.502102C0.60686 0.180611 0.928151 -1.0085e-06 1.26316 -9.93859e-07L22.7368 -5.52144e-08C23.0719 -4.05706e-08 23.3931 0.180612 23.63 0.502103C23.8669 0.823594 24 1.25963 24 1.71429Z" fill="#E6E6E6"/>
</svg>
