<svg width="64" height="41" viewBox="0 0 64 41" fill="none" xmlns="http://www.w3.org/2000/svg">
<path d="M13.7143 26.3518C15.4707 26.3515 17.1733 26.92 18.5339 27.9611C19.8946 29.0022 20.8297 30.452 21.181 32.0651H42.6667V3.49878H9.14286C7.5263 3.49878 5.97595 4.10071 4.83287 5.17216C3.68979 6.2436 3.04762 7.69679 3.04762 9.21205V32.0651H6.24762C6.5989 30.452 7.53399 29.0022 8.89462 27.9611C10.2553 26.92 11.9579 26.3515 13.7143 26.3518ZM13.7143 40.635C11.9579 40.6353 10.2553 40.0668 8.89462 39.0257C7.53399 37.9846 6.5989 36.5348 6.24762 34.9217H0V9.21205C0 6.93917 0.963262 4.75938 2.67788 3.15222C4.3925 1.54505 6.71802 0.642151 9.14286 0.642151H42.6667C43.4749 0.642151 44.2501 0.943117 44.8217 1.47884C45.3932 2.01456 45.7143 2.74116 45.7143 3.49878V9.21205H54.8571L64 20.6386V34.9217H57.7524C57.4026 36.5361 56.4682 37.9876 55.1074 39.0301C53.7467 40.0726 52.0432 40.6422 50.2857 40.6422C48.5282 40.6422 46.8248 40.0726 45.464 39.0301C44.1032 37.9876 43.1688 36.5361 42.819 34.9217H21.181C20.8297 36.5348 19.8946 37.9846 18.5339 39.0257C17.1733 40.0668 15.4707 40.6353 13.7143 40.635ZM13.7143 29.2085C12.5019 29.2085 11.3391 29.6599 10.4818 30.4635C9.62449 31.2671 9.14286 32.357 9.14286 33.4934C9.14286 34.6299 9.62449 35.7197 10.4818 36.5233C11.3391 37.3269 12.5019 37.7784 13.7143 37.7784C14.9267 37.7784 16.0895 37.3269 16.9468 36.5233C17.8041 35.7197 18.2857 34.6299 18.2857 33.4934C18.2857 32.357 17.8041 31.2671 16.9468 30.4635C16.0895 29.6599 14.9267 29.2085 13.7143 29.2085ZM50.2857 26.3518C52.0421 26.3515 53.7447 26.92 55.1054 27.9611C56.466 29.0022 57.4011 30.452 57.7524 32.0651H60.9524V21.5527L60.221 20.6386H45.7143V27.7801C46.9943 26.8946 48.579 26.3518 50.2857 26.3518ZM50.2857 29.2085C49.0733 29.2085 47.9105 29.6599 47.0532 30.4635C46.1959 31.2671 45.7143 32.357 45.7143 33.4934C45.7143 34.6299 46.1959 35.7197 47.0532 36.5233C47.9105 37.3269 49.0733 37.7784 50.2857 37.7784C51.4981 37.7784 52.6609 37.3269 53.5182 36.5233C54.3755 35.7197 54.8571 34.6299 54.8571 33.4934C54.8571 32.357 54.3755 31.2671 53.5182 30.4635C52.6609 29.6599 51.4981 29.2085 50.2857 29.2085ZM45.7143 12.0687V17.7819H57.9048L53.3333 12.0687H45.7143Z" fill="#112134"/>
</svg>
