<svg width="20" height="20" viewBox="0 0 20 20" fill="none" xmlns="http://www.w3.org/2000/svg">
<path d="M1.25 10C1.25 14.8325 5.1675 18.75 10 18.75C14.8325 18.75 18.75 14.8325 18.75 10C18.75 5.1675 14.8325 1.25 10 1.25C5.1675 1.25 1.25 5.1675 1.25 10ZM10 20C4.477 20 0 15.523 0 10C0 4.477 4.477 0 10 0C15.523 0 20 4.477 20 10C20 15.523 15.523 20 10 20ZM5.692 11.817C5.57477 11.9342 5.41578 12.0001 5.25 12.0001C5.08422 12.0001 4.92523 11.9342 4.808 11.817C4.69077 11.6998 4.62492 11.5408 4.62492 11.375C4.62492 11.2092 4.69077 11.0502 4.808 10.933L9.558 6.183C9.61604 6.12495 9.68495 6.07889 9.76079 6.04747C9.83662 6.01606 9.91791 5.99988 10 5.99988C10.0821 5.99988 10.1634 6.01606 10.2392 6.04747C10.3151 6.07889 10.384 6.12495 10.442 6.183L15.192 10.933C15.3092 11.0502 15.3751 11.2092 15.3751 11.375C15.3751 11.5408 15.3092 11.6998 15.192 11.817C15.0748 11.9342 14.9158 12.0001 14.75 12.0001C14.5842 12.0001 14.4252 11.9342 14.308 11.817L10 7.509L5.692 11.817Z" fill="#282E3C"/>
</svg>
