<svg width="40" height="41" viewBox="0 0 40 41" fill="none" xmlns="http://www.w3.org/2000/svg">
<path d="M31.5789 32.2211C32.6956 32.2211 33.7666 32.6647 34.5562 33.4543C35.3459 34.244 35.7895 35.3149 35.7895 36.4316C35.7895 37.5483 35.3459 38.6193 34.5562 39.4089C33.7666 40.1985 32.6956 40.6422 31.5789 40.6422C30.4622 40.6422 29.3913 40.1985 28.6017 39.4089C27.812 38.6193 27.3684 37.5483 27.3684 36.4316C27.3684 35.3149 27.812 34.244 28.6017 33.4543C29.3913 32.6647 30.4622 32.2211 31.5789 32.2211ZM31.5789 34.3264C31.0206 34.3264 30.4851 34.5482 30.0903 34.943C29.6955 35.3378 29.4737 35.8733 29.4737 36.4316C29.4737 36.99 29.6955 37.5255 30.0903 37.9203C30.4851 38.3151 31.0206 38.5369 31.5789 38.5369C32.1373 38.5369 32.6728 38.3151 33.0676 37.9203C33.4624 37.5255 33.6842 36.99 33.6842 36.4316C33.6842 35.8733 33.4624 35.3378 33.0676 34.943C32.6728 34.5482 32.1373 34.3264 31.5789 34.3264ZM12.6316 32.2211C13.7483 32.2211 14.8192 32.6647 15.6089 33.4543C16.3985 34.244 16.8421 35.3149 16.8421 36.4316C16.8421 37.5483 16.3985 38.6193 15.6089 39.4089C14.8192 40.1985 13.7483 40.6422 12.6316 40.6422C11.5149 40.6422 10.4439 40.1985 9.65429 39.4089C8.86466 38.6193 8.42105 37.5483 8.42105 36.4316C8.42105 35.3149 8.86466 34.244 9.65429 33.4543C10.4439 32.6647 11.5149 32.2211 12.6316 32.2211ZM12.6316 34.3264C12.0732 34.3264 11.5377 34.5482 11.1429 34.943C10.7481 35.3378 10.5263 35.8733 10.5263 36.4316C10.5263 36.99 10.7481 37.5255 11.1429 37.9203C11.5377 38.3151 12.0732 38.5369 12.6316 38.5369C13.1899 38.5369 13.7254 38.3151 14.1202 37.9203C14.515 37.5255 14.7368 36.99 14.7368 36.4316C14.7368 35.8733 14.515 35.3378 14.1202 34.943C13.7254 34.5482 13.1899 34.3264 12.6316 34.3264ZM35.7895 6.95794H6.88421L12.2526 19.5895H29.4737C30.1684 19.5895 30.7789 19.2527 31.1579 18.7474L37.4737 10.3264C37.7474 9.96847 37.8947 9.52636 37.8947 9.0632C37.8947 8.50485 37.6729 7.96937 37.2781 7.57456C36.8833 7.17974 36.3478 6.95794 35.7895 6.95794ZM29.4737 21.6948H12.3579L10.7368 24.979L10.5263 25.9053C10.5263 26.4637 10.7481 26.9991 11.1429 27.394C11.5377 27.7888 12.0732 28.0106 12.6316 28.0106H35.7895V30.1158H12.6316C11.5149 30.1158 10.4439 29.6722 9.65429 28.8826C8.86466 28.093 8.42105 27.022 8.42105 25.9053C8.42043 25.191 8.60155 24.4882 8.94737 23.8632L10.4632 20.7685L2.82105 2.74741H0V0.642151H4.21053L6 4.85268H35.7895C36.9062 4.85268 37.9771 5.29628 38.7668 6.08591C39.5564 6.87554 40 7.9465 40 9.0632C40 10.1158 39.6421 11 39.0526 11.7158L32.9263 19.9053C32.1684 20.979 30.9053 21.6948 29.4737 21.6948Z" fill="#112134"/>
</svg>
