<svg width="160" height="19" viewBox="0 0 160 19" fill="none" xmlns="http://www.w3.org/2000/svg">
<path d="M0.75 3.56099H1.22561M1.22561 3.56099H159.274M1.22561 3.56099V18.0158M159.274 3.56099H159.348M159.274 3.56099V3.05085M159.274 3.56099V18.0158M1.22561 18.0158V18.5M1.22561 18.0158H0.75M1.22561 18.0158H16.753M16.75 18.3559L16.753 18.0158M16.753 18.0158L16.8309 9.17286M16.753 18.0158H17.25M16.8309 9.17286L16.8354 8.66269M16.8309 9.17286H17.25M16.8309 9.17286H7.25M159.274 18.0158V18.3559M159.274 18.0158H159.75M159.274 18.0158H143.75M143.75 18.0158H143.25M143.75 18.0158V18.3559M143.75 18.0158V9.51297M143.75 9.51297V9.17288M143.75 9.51297H143.25M143.75 9.51297H154.396M0.25 0.5H159.348" stroke="#766D6D"/>
</svg>
