<svg width="46" height="46" viewBox="0 0 46 46" fill="none" xmlns="http://www.w3.org/2000/svg">
<path d="M7.26316 10.1421H14.5263V5.14209L19.3684 0.14209H26.6316L31.4737 5.14209V10.1421H38.7368C40.6632 10.1421 42.5106 10.9323 43.8727 12.3388C45.2348 13.7453 46 15.653 46 17.6421V37.6421C46 39.6312 45.2348 41.5389 43.8727 42.9454C42.5106 44.3519 40.6632 45.1421 38.7368 45.1421H7.26316C5.33685 45.1421 3.48944 44.3519 2.12733 42.9454C0.765224 41.5389 0 39.6312 0 37.6421V17.6421C0 15.653 0.765224 13.7453 2.12733 12.3388C3.48944 10.9323 5.33685 10.1421 7.26316 10.1421ZM20.3611 2.64209L16.9474 6.16709V10.1421H29.0526V6.16709L25.6389 2.64209H20.3611ZM7.26316 12.6421C5.97895 12.6421 4.74734 13.1689 3.83927 14.1066C2.9312 15.0442 2.42105 16.316 2.42105 17.6421V37.6421C2.42105 38.9682 2.9312 40.2399 3.83927 41.1776C4.74734 42.1153 5.97895 42.6421 7.26316 42.6421H38.7368C40.021 42.6421 41.2527 42.1153 42.1607 41.1776C43.0688 40.2399 43.5789 38.9682 43.5789 37.6421V17.6421C43.5789 16.316 43.0688 15.0442 42.1607 14.1066C41.2527 13.1689 40.021 12.6421 38.7368 12.6421H7.26316Z" fill="#112134"/>
</svg>
