<svg width="48" height="46" viewBox="0 0 48 46" fill="none" xmlns="http://www.w3.org/2000/svg">
<path d="M45.0001 7.571H33.0192V4.65586C33.0192 2.16651 31.001 0.14209 28.5194 0.14209H19.4994C17.0177 0.14209 14.9995 2.16651 14.9995 4.65586V7.571H3.00141C1.35221 7.571 0.00149995 8.92588 0.00149995 10.5802V21.1243H0V24.1335H0.00149995V42.1329C0.00149995 43.7872 1.35221 45.1421 3.00141 45.1421H45.0001C46.6493 45.1421 48 43.7872 48 42.1329V10.5802C48 8.92588 46.6493 7.571 45.0001 7.571ZM17.9994 4.65586C17.9994 3.82532 18.6714 3.15127 19.4994 3.15127H28.5194C29.3473 3.15127 30.0193 3.82532 30.0193 4.65586V7.571H17.9994V4.65586ZM3.00145 10.5802H45.0001V21.1243H28.4834V19.5844C28.4834 17.9256 27.1372 16.5752 25.4835 16.5752H22.4955C20.8418 16.5752 19.4956 17.9256 19.4956 19.5844V21.1243H3.0015L3.00145 10.5802ZM25.4857 27.1615H22.4947V19.5844H25.4827L25.4857 27.1615ZM3.00141 42.1322V24.1328H19.4949V27.1607C19.4949 28.8196 20.8411 30.1699 22.4948 30.1699H25.4827C27.1364 30.1699 28.4826 28.8196 28.4826 27.1607V24.1328H44.9993V42.1322H3.00141Z" fill="#112134"/>
</svg>
