<svg width="54" height="49" viewBox="0 0 54 49" fill="none" xmlns="http://www.w3.org/2000/svg">
<path d="M4.848 48.9421C3.466 48.9421 2.313 48.4801 1.389 47.5561C0.465 46.6321 0.002 45.4781 0 44.0942V14.7902C0 13.4082 0.463 12.2552 1.389 11.3312C2.315 10.4072 3.467 9.94416 4.845 9.94216H18V5.78716C18 4.40716 18.463 3.25416 19.389 2.32816C20.315 1.40216 21.468 0.94016 22.848 0.94216H31.155C32.535 0.94216 33.688 1.40416 34.614 2.32816C35.54 3.25216 36.002 4.40516 36 5.78716V9.94216H49.155C50.535 9.94216 51.687 10.4052 52.611 11.3312C53.535 12.2572 53.998 13.4102 54 14.7902V44.0971C54 45.4771 53.537 46.6301 52.611 47.5561C51.685 48.4821 50.533 48.9441 49.155 48.9421H4.848ZM21 9.94216H33V5.78716C33 5.32716 32.808 4.90416 32.424 4.51816C32.04 4.13216 31.617 3.94016 31.155 3.94216H22.845C22.385 3.94216 21.962 4.13416 21.576 4.51816C21.19 4.90216 20.998 5.32516 21 5.78716V9.94216ZM51 32.4422H33V36.9422H21V32.4422H3V44.0971C3 44.5571 3.192 44.9801 3.576 45.3661C3.96 45.7522 4.383 45.9441 4.845 45.9421H49.155C49.615 45.9421 50.038 45.7501 50.424 45.3661C50.81 44.9822 51.002 44.5582 51 44.0942V32.4422ZM24 33.9422H30V27.9422H24V33.9422ZM3 29.4422H21V24.9422H33V29.4422H51V14.7902C51 14.3282 50.808 13.9042 50.424 13.5182C50.04 13.1322 49.617 12.9402 49.155 12.9422H4.845C4.385 12.9422 3.962 13.1342 3.576 13.5182C3.19 13.9022 2.998 14.3262 3 14.7902V29.4422Z" fill="#112134"/>
</svg>
