<svg width="42" height="46" viewBox="0 0 42 46" fill="none" xmlns="http://www.w3.org/2000/svg">
<path d="M21 0.142151L42 10.5268V15.1422H0V10.5268L21 0.142151ZM30.3333 17.4498H39.6667V35.9114H30.3333V17.4498ZM0 45.1422V38.2191H42V45.1422H0ZM16.3333 17.4498H25.6667V35.9114H16.3333V17.4498ZM2.33333 17.4498H11.6667V35.9114H2.33333V17.4498ZM2.33333 40.5268V42.8345H39.6667V40.5268H2.33333ZM4.66667 19.7575V33.6037H9.33333V19.7575H4.66667ZM18.6667 19.7575V33.6037H23.3333V19.7575H18.6667ZM32.6667 19.7575V33.6037H37.3333V19.7575H32.6667ZM2.33333 12.8345H39.6667V11.9114L21 2.63446L2.33333 11.9114V12.8345Z" fill="#112134"/>
</svg>
