<svg width="432" height="306" viewBox="0 0 432 306" fill="none" xmlns="http://www.w3.org/2000/svg">
<path d="M212.002 147.623C213.502 147.623 214.702 147.833 215.602 148.253C216.562 148.613 217.222 149.333 217.582 150.413C218.002 151.493 218.212 153.143 218.212 155.363V200.003C218.212 202.163 218.032 203.813 217.672 204.953C217.312 206.033 216.592 206.783 215.512 207.203C214.492 207.563 212.962 207.743 210.922 207.743H192.549C192.927 207.499 193.292 207.23 193.642 206.934C195.622 205.194 197.242 202.883 198.502 200.003C199.762 197.063 200.752 193.763 201.472 190.104C202.252 186.384 202.851 182.513 203.271 178.493C203.691 174.413 204.022 170.393 204.262 166.434C204.562 162.474 204.862 158.783 205.162 155.363C205.342 153.203 205.612 151.583 205.972 150.503C206.392 149.363 206.992 148.613 207.771 148.253C208.551 147.833 209.572 147.623 210.832 147.623H212.002Z" fill="#FDFAF3"/>
<path d="M326.044 147.623C330.124 147.623 333.004 149.034 334.684 151.854C336.363 154.673 337.204 158.933 337.204 164.633C337.204 167.693 336.844 170.544 336.124 173.184C335.464 175.823 334.204 177.953 332.344 179.573C330.544 181.193 327.874 182.003 324.334 182.003H320.464V155.363C320.464 152.243 320.794 150.173 321.454 149.153C322.174 148.133 323.704 147.623 326.044 147.623Z" fill="#FDFAF3"/>
<path fill-rule="evenodd" clip-rule="evenodd" d="M432 306H384.493C383.835 305.813 383.113 305.439 382.328 304.872C381.308 304.032 380.378 302.532 379.538 300.372L357.668 244.032C356.708 244.092 355.658 244.122 354.518 244.122C353.438 244.122 352.418 244.092 351.458 244.032L330.938 296.683C329.678 299.982 328.387 302.322 327.067 303.702C325.928 304.893 324.811 305.658 323.717 306H313.408C313.455 305.984 313.503 305.969 313.55 305.952C317.27 304.572 320.12 302.592 322.1 300.013C324.08 297.433 325.069 294.252 325.069 290.473C325.069 288.013 324.349 285.642 322.909 283.362C321.469 281.082 319.099 279.133 315.8 277.513C312.5 275.893 308.03 274.872 302.39 274.452V274.272C306.59 273.492 310.009 272.262 312.649 270.582C315.289 268.902 317.24 266.982 318.5 264.822C319.76 262.663 320.39 260.532 320.39 258.433C320.39 254.293 318.529 250.903 314.81 248.263C311.15 245.623 305.599 244.303 298.159 244.303C297.019 244.303 295.099 244.333 292.399 244.393C289.699 244.453 286.909 244.482 284.029 244.482C281.509 244.482 278.99 244.453 276.47 244.393C273.95 244.333 271.91 244.272 270.35 244.212V246.013C272.209 246.073 273.619 246.313 274.579 246.732C275.599 247.092 276.26 247.813 276.56 248.893C276.919 249.913 277.1 251.532 277.1 253.752V298.393C277.1 300.552 276.919 302.172 276.56 303.252C276.26 304.332 275.63 305.052 274.67 305.412C273.981 305.67 273.045 305.865 271.861 306H269.186C268.527 305.813 267.805 305.439 267.021 304.872C266.001 304.032 265.07 302.532 264.23 300.372L242.36 244.032C241.4 244.092 240.35 244.122 239.21 244.122C238.13 244.122 237.11 244.092 236.15 244.032L215.63 296.683C214.37 299.982 213.08 302.322 211.76 303.702C210.621 304.893 209.504 305.658 208.409 306H192.412V305.952C189.712 305.892 187.672 305.682 186.292 305.322C184.912 304.962 183.982 304.212 183.502 303.072C183.022 301.932 182.781 300.192 182.781 297.853V282.192H187.552C192.831 282.192 197.212 281.563 200.691 280.303C204.171 279.043 206.902 277.422 208.882 275.442C210.922 273.402 212.361 271.212 213.201 268.872C214.041 266.472 214.462 264.192 214.462 262.032C214.462 256.812 212.392 252.552 208.252 249.252C204.112 245.952 197.871 244.303 189.531 244.303C188.391 244.303 186.471 244.333 183.771 244.393C181.072 244.453 178.281 244.482 175.401 244.482C172.882 244.482 170.332 244.453 167.752 244.393C165.232 244.333 163.222 244.272 161.722 244.212V246.013C163.581 246.073 164.991 246.313 165.951 246.732C166.971 247.092 167.632 247.813 167.932 248.893C168.292 249.913 168.472 251.532 168.472 253.752V298.393C168.472 300.552 168.292 302.172 167.932 303.252C167.632 304.332 167.002 305.052 166.042 305.412C165.353 305.67 164.417 305.865 163.233 306H156.178C154.994 305.865 154.058 305.67 153.369 305.412C152.409 305.052 151.75 304.332 151.39 303.252C151.09 302.172 150.939 300.552 150.939 298.393V253.752C150.939 251.532 151.09 249.913 151.39 248.893C151.75 247.813 152.409 247.092 153.369 246.732C154.329 246.312 155.769 246.073 157.689 246.013V244.212C156.129 244.272 154.089 244.333 151.569 244.393C149.049 244.453 146.349 244.482 143.469 244.482C139.989 244.482 136.539 244.453 133.119 244.393C129.699 244.273 126.939 244.212 124.839 244.212C122.739 244.212 119.949 244.273 116.469 244.393C112.989 244.453 109.479 244.482 105.939 244.482C102.999 244.482 100.269 244.453 97.749 244.393C95.2891 244.333 93.2787 244.272 91.7188 244.212V246.013C93.5788 246.073 94.9892 246.312 95.9492 246.732C96.9692 247.092 97.6297 247.813 97.9297 248.893C98.2895 249.913 98.4687 251.533 98.4688 253.752V298.393C98.4687 300.552 98.2896 302.172 97.9297 303.252C97.6297 304.332 96.9691 305.052 95.9492 305.412C95.2605 305.67 94.3396 305.865 93.1875 306H0V0H432V306ZM239.812 145.823C238.732 145.883 237.382 145.943 235.762 146.003C234.202 146.003 232.522 146.033 230.722 146.093H225.861C223.282 146.093 221.062 146.063 219.202 146.003C217.342 145.883 215.272 145.823 212.992 145.823C211.672 145.823 210.352 145.883 209.032 146.003C207.772 146.063 206.452 146.093 205.072 146.093C203.632 146.093 202.042 146.063 200.302 146.003C198.562 145.943 197.062 145.883 195.802 145.823V147.623C197.962 147.683 199.582 147.923 200.662 148.343C201.742 148.763 202.431 149.513 202.731 150.593C203.091 151.673 203.212 153.263 203.092 155.363C202.792 160.163 202.462 165.023 202.102 169.943C201.742 174.863 201.201 179.603 200.481 184.163C199.821 188.663 198.922 192.683 197.782 196.223C196.642 199.763 195.142 202.584 193.282 204.684C191.422 206.724 189.112 207.743 186.352 207.743H184.731C184.971 210.083 185.122 212.333 185.182 214.493C185.302 216.653 185.361 218.303 185.361 219.443C185.361 220.643 185.331 221.724 185.271 222.684C185.271 223.703 185.212 224.573 185.092 225.293H187.162C187.762 221.333 188.722 218.183 190.042 215.843C191.362 213.563 193.042 211.943 195.082 210.983C197.182 210.023 199.642 209.543 202.462 209.543H224.242C227.062 209.543 229.492 210.023 231.532 210.983C233.632 211.943 235.342 213.563 236.662 215.843C237.982 218.183 238.942 221.333 239.542 225.293H241.611C241.551 224.573 241.492 223.703 241.432 222.684C241.372 221.724 241.342 220.643 241.342 219.443C241.342 218.303 241.372 216.653 241.432 214.493C241.552 212.333 241.732 210.083 241.972 207.743H239.271C237.352 207.743 235.912 207.563 234.952 207.203C233.992 206.783 233.332 206.033 232.972 204.953C232.672 203.813 232.521 202.163 232.521 200.003V155.363C232.521 153.143 232.702 151.523 233.062 150.503C233.422 149.423 234.112 148.703 235.132 148.343C236.212 147.923 237.772 147.683 239.812 147.623V145.823ZM112.008 145.823C110.928 145.883 109.578 145.943 107.958 146.003C106.398 146.003 104.718 146.033 102.918 146.093H98.0586C95.4787 146.093 93.2584 146.063 91.3984 146.003C89.5385 145.883 87.4684 145.823 85.1885 145.823C83.8686 145.823 82.5484 145.883 81.2285 146.003C79.9686 146.063 78.6485 146.093 77.2686 146.093C75.8286 146.093 74.238 146.063 72.498 146.003C70.7582 145.943 69.258 145.883 67.998 145.823V147.623C70.158 147.683 71.7784 147.923 72.8584 148.343C73.9983 148.763 74.7185 149.513 75.0186 150.593C75.3785 151.673 75.4681 153.263 75.2881 155.363C74.9881 160.343 74.6578 165.384 74.2979 170.483C73.9379 175.523 73.4285 180.353 72.7686 184.973C72.1086 189.593 71.1785 193.734 69.9785 197.394C68.8385 200.993 67.3384 203.843 65.4785 205.943C63.6185 208.043 61.3078 209.093 58.5479 209.093C58.128 209.093 57.7079 209.063 57.2881 209.003C56.9282 208.943 56.5978 208.823 56.2979 208.644C58.3978 208.044 60.1087 207.053 61.4287 205.673C62.8084 204.233 63.498 202.463 63.498 200.363C63.498 198.623 62.8682 197.273 61.6084 196.313C60.4084 195.293 58.8179 194.783 56.8379 194.783C54.5581 194.783 52.6082 195.474 50.9883 196.854C49.4285 198.233 48.6484 200.094 48.6484 202.434C48.6486 204.953 49.6086 206.993 51.5283 208.553C53.5082 210.053 55.8481 210.803 58.5479 210.803C61.4277 210.803 63.858 209.933 65.8379 208.193C67.8179 206.453 69.4382 204.113 70.6982 201.173C71.9582 198.173 72.948 194.783 73.668 191.003C74.4479 187.223 75.0488 183.263 75.4688 179.123C75.8887 174.983 76.218 170.873 76.458 166.793C76.758 162.713 77.0584 158.903 77.3584 155.363C77.5384 153.203 77.808 151.583 78.168 150.503C78.588 149.363 79.2186 148.613 80.0586 148.253C80.9586 147.833 82.1285 147.623 83.5684 147.623H84.1982C85.698 147.623 86.8979 147.833 87.7979 148.253C88.7578 148.613 89.4183 149.333 89.7783 150.413C90.1983 151.493 90.4082 153.143 90.4082 155.363V200.003C90.4082 202.163 90.1983 203.783 89.7783 204.863C89.4183 205.943 88.6383 206.663 87.4385 207.023C86.2985 207.383 84.6183 207.623 82.3984 207.743V209.543C84.1384 209.423 86.3587 209.363 89.0586 209.363C91.7584 209.303 94.5181 209.273 97.3379 209.273C100.278 209.273 103.038 209.303 105.618 209.363C108.258 209.363 110.388 209.423 112.008 209.543V207.743C109.968 207.623 108.408 207.383 107.328 207.023C106.308 206.663 105.618 205.943 105.258 204.863C104.898 203.783 104.719 202.163 104.719 200.003V155.363C104.719 153.143 104.898 151.523 105.258 150.503C105.618 149.423 106.308 148.703 107.328 148.343C108.408 147.923 109.968 147.683 112.008 147.623V145.823ZM183.534 145.823C181.974 145.883 179.934 145.943 177.414 146.003C174.894 146.063 172.193 146.093 169.313 146.093C166.794 146.093 164.274 146.063 161.754 146.003C159.294 145.943 157.284 145.883 155.724 145.823V147.623C157.584 147.683 158.994 147.923 159.954 148.343C160.914 148.703 161.574 149.423 161.934 150.503C162.208 151.28 162.377 152.405 162.442 153.878L136.823 197.326V155.363C136.823 153.143 136.973 151.523 137.273 150.503C137.633 149.423 138.294 148.703 139.254 148.343C140.214 147.923 141.654 147.683 143.573 147.623V145.823C141.953 145.883 139.914 145.943 137.454 146.003C134.994 146.063 132.503 146.093 129.983 146.093C127.044 146.093 124.314 146.063 121.794 146.003C119.334 145.943 117.324 145.883 115.764 145.823V147.623C117.624 147.683 119.034 147.923 119.994 148.343C121.014 148.703 121.674 149.423 121.974 150.503C122.334 151.523 122.514 153.143 122.514 155.363V200.003C122.514 202.163 122.334 203.783 121.974 204.863C121.674 205.943 121.014 206.663 119.994 207.023C119.034 207.383 117.624 207.623 115.764 207.743V209.543C117.324 209.423 119.334 209.363 121.794 209.363C124.314 209.303 127.044 209.273 129.983 209.273C132.503 209.273 134.994 209.303 137.454 209.363C139.914 209.363 141.953 209.423 143.573 209.543V207.743C141.654 207.623 140.214 207.383 139.254 207.023C138.294 206.663 137.633 205.943 137.273 204.863C137.032 203.993 136.889 202.771 136.842 201.198L162.474 157.84V200.003C162.474 202.163 162.294 203.783 161.934 204.863C161.574 205.943 160.914 206.663 159.954 207.023C158.994 207.383 157.584 207.623 155.724 207.743V209.543C157.284 209.423 159.294 209.363 161.754 209.363C164.274 209.303 166.794 209.273 169.313 209.273C172.193 209.273 174.894 209.303 177.414 209.363C179.934 209.363 181.974 209.423 183.534 209.543V207.743C181.614 207.623 180.174 207.383 179.214 207.023C178.254 206.663 177.593 205.943 177.233 204.863C176.933 203.783 176.783 202.163 176.783 200.003V155.363C176.783 153.143 176.933 151.523 177.233 150.503C177.593 149.423 178.254 148.703 179.214 148.343C180.174 147.923 181.614 147.683 183.534 147.623V145.823ZM292.493 145.823C289.733 145.943 286.583 146.033 283.043 146.093H260.362C257.662 146.033 254.933 146.003 252.173 146.003C249.413 145.943 246.803 145.883 244.343 145.823V147.623C246.202 147.683 247.612 147.923 248.572 148.343C249.592 148.703 250.253 149.423 250.553 150.503C250.913 151.523 251.093 153.143 251.093 155.363V200.003C251.093 202.163 250.913 203.783 250.553 204.863C250.253 205.943 249.623 206.663 248.663 207.023C247.703 207.383 246.263 207.623 244.343 207.743V209.543C246.803 209.483 249.413 209.453 252.173 209.453C254.933 209.393 257.662 209.363 260.362 209.363C263.062 209.303 265.583 209.273 267.923 209.273H273.683C276.683 209.273 280.103 209.303 283.942 209.363C287.782 209.363 291.233 209.423 294.293 209.543C293.993 206.843 293.813 204.233 293.753 201.713C293.693 199.193 293.663 197.243 293.663 195.863C293.663 192.743 293.753 190.223 293.933 188.303H291.862C291.082 193.103 289.942 196.913 288.442 199.733C287.002 202.553 285.233 204.563 283.133 205.763C281.093 206.903 278.722 207.473 276.022 207.473H271.612C269.873 207.473 268.552 207.323 267.652 207.023C266.753 206.723 266.153 206.122 265.853 205.223C265.553 204.323 265.402 202.943 265.402 201.083V178.403H268.283L268.728 178.41C270.925 178.477 272.727 179.045 274.133 180.113C275.633 181.193 276.773 182.634 277.553 184.434C278.393 186.233 278.963 188.183 279.263 190.283H281.333C281.093 186.863 280.943 184.253 280.883 182.453C280.838 181.103 280.81 179.837 280.799 178.656L280.787 176.35C280.776 175.169 280.748 173.903 280.703 172.553C280.703 170.753 280.823 168.142 281.062 164.723H278.993C278.753 165.922 278.393 167.213 277.913 168.593C277.433 169.973 276.773 171.293 275.933 172.553C275.153 173.753 274.133 174.743 272.873 175.523C271.613 176.243 270.083 176.603 268.283 176.604H265.402V154.283C265.402 152.424 265.553 151.044 265.853 150.144C266.152 149.244 266.753 148.643 267.652 148.343C268.552 148.043 269.873 147.894 271.612 147.894H275.303C278.003 147.894 280.342 148.433 282.322 149.513C284.362 150.533 286.012 152.333 287.272 154.913C288.532 157.433 289.462 160.883 290.062 165.263H292.133C292.073 164.543 292.013 163.643 291.953 162.563C291.893 161.484 291.862 160.343 291.862 159.144C291.862 157.824 291.893 155.933 291.953 153.473C292.073 151.013 292.253 148.463 292.493 145.823ZM299.403 147.623C301.263 147.683 302.674 147.923 303.634 148.343C304.654 148.703 305.313 149.423 305.613 150.503C305.973 151.523 306.153 153.143 306.153 155.363V200.003C306.153 202.163 305.973 203.783 305.613 204.863C305.313 205.943 304.684 206.663 303.724 207.023C302.764 207.383 301.323 207.623 299.403 207.743V209.543C301.383 209.483 303.604 209.423 306.063 209.363C308.523 209.303 311.044 209.273 313.624 209.273C316.864 209.273 319.954 209.303 322.894 209.363C325.834 209.423 328.234 209.483 330.094 209.543V207.563C327.394 207.503 325.354 207.294 323.974 206.934C322.594 206.574 321.664 205.823 321.184 204.684C320.704 203.544 320.464 201.803 320.464 199.463V183.803H325.233C330.513 183.803 334.894 183.173 338.374 181.913C341.854 180.653 344.584 179.033 346.563 177.053C348.603 175.013 350.044 172.823 350.884 170.483C351.724 168.084 352.143 165.803 352.144 163.644C352.144 158.424 350.074 154.163 345.934 150.863C341.794 147.563 335.554 145.913 327.214 145.913C326.074 145.913 324.154 145.943 321.454 146.003C318.754 146.063 315.964 146.093 313.084 146.093C310.564 146.093 308.014 146.063 305.434 146.003C302.914 145.943 300.903 145.883 299.403 145.823V147.623Z" fill="#FDFAF3"/>
<path d="M129.339 246.013C131.379 246.013 132.91 246.223 133.93 246.643C135.009 247.003 135.729 247.723 136.089 248.803C136.449 249.883 136.629 251.532 136.629 253.752V298.393C136.629 300.552 136.449 302.172 136.089 303.252C135.789 304.332 135.129 305.052 134.109 305.412C133.421 305.67 132.5 305.865 131.348 306H118.018C116.834 305.865 115.898 305.67 115.209 305.412C114.249 305.052 113.589 304.332 113.229 303.252C112.93 302.172 112.779 300.552 112.779 298.393V253.752C112.779 251.532 112.959 249.883 113.319 248.803C113.679 247.723 114.37 247.003 115.39 246.643C116.47 246.223 118.03 246.013 120.069 246.013H129.339Z" fill="#FDFAF3"/>
<path d="M247.76 298.572C248.96 301.632 249.14 303.643 248.3 304.603C247.686 305.31 246.369 305.775 244.347 306H224.079C223.022 305.879 222.065 305.684 221.21 305.412C219.95 304.932 219.02 304.122 218.42 302.982C217.88 301.842 217.731 300.222 217.971 298.122C218.271 296.022 219.081 293.322 220.4 290.022L222.784 283.812H242.363L247.76 298.572Z" fill="#FDFAF3"/>
<path d="M363.067 298.572C364.267 301.632 364.447 303.643 363.607 304.603C362.994 305.31 361.676 305.775 359.654 306H339.387C338.33 305.879 337.373 305.684 336.518 305.412C335.258 304.932 334.327 304.122 333.728 302.982C333.188 301.842 333.037 300.222 333.277 298.122C333.577 296.022 334.388 293.322 335.708 290.022L338.092 283.812H357.671L363.067 298.572Z" fill="#FDFAF3"/>
<path d="M295.189 275.622C300.529 275.622 304.339 276.882 306.619 279.402C308.959 281.922 310.13 285.492 310.13 290.112C310.13 295.152 309.109 299.053 307.069 301.812C305.089 304.512 301.939 305.862 297.619 305.862C295.879 305.862 294.559 305.682 293.659 305.322C292.819 304.962 292.219 304.242 291.859 303.162C291.559 302.082 291.409 300.492 291.409 298.393V275.622H295.189Z" fill="#FDFAF3"/>
<path d="M241.706 282.013H223.475L232.812 257.686L241.706 282.013Z" fill="#FDFAF3"/>
<path d="M357.014 282.013H338.782L348.119 257.686L357.014 282.013Z" fill="#FDFAF3"/>
<path d="M188.361 246.013C192.441 246.013 195.322 247.422 197.002 250.242C198.682 253.062 199.521 257.323 199.521 263.022C199.521 266.082 199.161 268.932 198.441 271.572C197.781 274.212 196.522 276.342 194.662 277.962C192.862 279.582 190.191 280.393 186.651 280.393H182.781V253.752C182.781 250.632 183.112 248.562 183.771 247.542C184.492 246.522 186.022 246.013 188.361 246.013Z" fill="#FDFAF3"/>
<path d="M296.989 246.013C300.109 246.013 302.359 247.153 303.739 249.433C305.119 251.653 305.81 254.982 305.81 259.422C305.81 262.002 305.509 264.432 304.909 266.712C304.309 268.932 303.26 270.732 301.76 272.112C300.26 273.432 298.099 274.093 295.279 274.093H291.409V253.752C291.409 250.632 291.74 248.562 292.399 247.542C293.119 246.522 294.65 246.013 296.989 246.013Z" fill="#FDFAF3"/>
</svg>
