<svg width="1280" height="361" viewBox="0 0 1280 361" fill="none" xmlns="http://www.w3.org/2000/svg">
<path d="M1280 361H914.563V358.853C913.257 358.759 911.763 358.106 910.083 356.893C908.496 355.586 907.05 353.252 905.743 349.893L871.724 262.252C870.23 262.345 868.597 262.393 866.823 262.393C865.143 262.393 863.557 262.345 862.063 262.252L830.144 344.152C828.184 349.286 826.176 352.926 824.123 355.072C822.07 357.219 820.063 358.479 818.104 358.853V361H792.72C796.506 360.49 799.964 359.683 803.095 358.572C808.881 356.426 813.315 353.345 816.395 349.332C819.474 345.319 821.015 340.372 821.015 334.492C821.015 330.666 819.895 326.978 817.655 323.432C815.415 319.885 811.728 316.852 806.595 314.332C801.461 311.812 794.508 310.226 785.734 309.572V309.292C792.268 308.079 797.588 306.165 801.694 303.552C805.801 300.938 808.835 297.952 810.795 294.592C812.755 291.232 813.734 287.919 813.734 284.652C813.734 278.212 810.841 272.939 805.055 268.832C799.361 264.725 790.728 262.672 779.155 262.672C777.382 262.672 774.394 262.719 770.194 262.812C765.995 262.906 761.655 262.952 757.175 262.952C753.255 262.952 749.335 262.906 745.415 262.812C741.495 262.719 738.321 262.626 735.895 262.532V265.332C738.788 265.425 740.981 265.799 742.475 266.452C744.061 267.012 745.088 268.133 745.555 269.812C746.115 271.399 746.395 273.919 746.395 277.372V346.812C746.395 350.172 746.115 352.692 745.555 354.372C745.088 356.052 744.108 357.172 742.615 357.732C741.122 358.292 738.881 358.666 735.895 358.853V361H735.196V358.853C733.89 358.759 732.396 358.106 730.716 356.893C729.129 355.586 727.683 353.252 726.376 349.893L692.355 262.252C690.862 262.345 689.229 262.393 687.456 262.393C685.776 262.393 684.19 262.345 682.696 262.252L650.775 344.152C648.815 349.285 646.809 352.926 644.756 355.072C642.703 357.219 640.696 358.479 638.736 358.853V361H614.658V358.572C610.458 358.479 607.284 358.152 605.138 357.592C602.991 357.032 601.544 355.865 600.798 354.092C600.051 352.318 599.678 349.611 599.678 345.972V321.612H607.098C615.311 321.612 622.125 320.632 627.538 318.672C632.951 316.712 637.198 314.192 640.278 311.112C643.452 307.939 645.691 304.532 646.998 300.893C648.305 297.159 648.958 293.612 648.958 290.252C648.958 282.132 645.738 275.505 639.298 270.372C632.858 265.239 623.151 262.672 610.178 262.672C608.404 262.672 605.418 262.719 601.218 262.812C597.609 262.893 593.896 262.935 590.08 262.946C590.931 259.633 592.007 256.824 593.307 254.52C595.36 250.973 597.973 248.453 601.146 246.96C604.413 245.467 608.24 244.72 612.626 244.72H646.506C650.893 244.72 654.673 245.467 657.847 246.96C661.113 248.453 663.773 250.973 665.826 254.52C667.879 258.159 669.373 263.06 670.307 269.22H673.526C673.433 268.1 673.339 266.747 673.246 265.16C673.153 263.667 673.106 261.987 673.106 260.12C673.106 258.347 673.153 255.78 673.246 252.42C673.433 249.06 673.713 245.56 674.086 241.92H669.886C666.899 241.92 664.659 241.64 663.166 241.08C661.673 240.427 660.646 239.26 660.086 237.58C659.619 235.807 659.386 233.24 659.386 229.88V160.44C659.386 156.987 659.667 154.467 660.227 152.88C660.787 151.2 661.86 150.08 663.446 149.52C665.126 148.866 667.553 148.494 670.727 148.4V145.6C669.047 145.693 666.946 145.787 664.426 145.88C661.999 145.88 659.386 145.926 656.586 146.02H649.026C645.013 146.02 641.559 145.973 638.666 145.88C635.773 145.693 632.552 145.6 629.006 145.6C626.953 145.6 624.9 145.693 622.847 145.88C620.887 145.973 618.833 146.02 616.687 146.02C614.447 146.02 611.973 145.973 609.267 145.88C606.56 145.787 604.227 145.693 602.267 145.6V148.4C605.626 148.494 608.146 148.866 609.826 149.52C611.506 150.173 612.579 151.34 613.046 153.02C613.606 154.7 613.793 157.174 613.606 160.44C613.14 167.907 612.626 175.467 612.066 183.12C611.506 190.773 610.666 198.147 609.546 205.24C608.519 212.24 607.12 218.493 605.347 224C603.573 229.507 601.24 233.894 598.347 237.16C595.453 240.333 591.86 241.92 587.566 241.92H585.046C585.419 245.56 585.653 249.06 585.746 252.42C585.933 255.78 586.026 258.347 586.026 260.12C586.026 261.115 586.011 262.057 585.984 262.945C582.786 262.931 579.557 262.888 576.298 262.812C572.378 262.719 569.251 262.626 566.918 262.532V265.332C569.811 265.425 572.005 265.799 573.498 266.452C575.085 267.012 576.111 268.133 576.578 269.812C577.138 271.399 577.418 273.919 577.418 277.372V346.812C577.418 350.172 577.138 352.692 576.578 354.372C576.111 356.052 575.131 357.172 573.638 357.732C572.144 358.292 569.904 358.666 566.918 358.853V361H560.646V358.853C557.659 358.666 555.419 358.292 553.926 357.732C552.432 357.172 551.406 356.052 550.846 354.372C550.379 352.692 550.146 350.172 550.146 346.812V277.372C550.146 273.919 550.379 271.399 550.846 269.812C551.406 268.133 552.432 267.012 553.926 266.452C555.419 265.799 557.659 265.425 560.646 265.332V262.532C558.219 262.626 555.045 262.719 551.125 262.812C547.205 262.906 543.005 262.952 538.525 262.952C533.112 262.952 527.746 262.906 522.426 262.812C517.106 262.626 512.812 262.532 509.545 262.532C506.278 262.532 501.938 262.626 496.525 262.812C491.112 262.906 485.652 262.952 480.146 262.952C475.572 262.952 471.325 262.906 467.405 262.812C463.579 262.719 460.452 262.626 458.025 262.532V265.332C460.919 265.425 463.112 265.799 464.605 266.452C466.192 267.012 467.219 268.133 467.686 269.812C468.245 271.399 468.525 273.919 468.525 277.372V346.812C468.525 350.172 468.246 352.692 467.686 354.372C467.219 356.052 466.192 357.172 464.605 357.732C463.112 358.292 460.919 358.666 458.025 358.853V361H0V0H1280V361ZM516.545 265.332C519.718 265.332 522.099 265.659 523.686 266.312C525.365 266.872 526.485 267.992 527.045 269.672C527.605 271.352 527.886 273.919 527.886 277.372V346.812C527.886 350.172 527.605 352.692 527.045 354.372C526.578 356.052 525.552 357.172 523.966 357.732C522.473 358.292 520.279 358.666 517.386 358.853V361H501.285V358.853C498.299 358.666 496.059 358.292 494.565 357.732C493.072 357.172 492.045 356.052 491.485 354.372C491.019 352.692 490.785 350.172 490.785 346.812V277.372C490.785 273.919 491.065 271.352 491.625 269.672C492.185 267.992 493.259 266.872 494.846 266.312C496.526 265.659 498.952 265.332 502.125 265.332H516.545ZM692.362 324.132L700.756 347.092C702.622 351.852 702.902 354.978 701.596 356.472C700.382 357.872 697.396 358.666 692.636 358.853V361H666.736V358.853C663.936 358.759 661.509 358.386 659.456 357.732C657.496 356.986 656.05 355.725 655.116 353.952C654.276 352.179 654.043 349.659 654.416 346.393C654.883 343.126 656.143 338.925 658.196 333.792L661.904 324.132H692.362ZM871.729 324.132L880.123 347.092C881.99 351.852 882.269 354.978 880.963 356.472C879.75 357.872 876.763 358.666 872.003 358.853V361H846.104V358.853C843.304 358.759 840.877 358.386 838.823 357.732C836.863 356.986 835.417 355.725 834.483 353.952C833.643 352.179 833.41 349.659 833.783 346.393C834.25 343.126 835.51 338.925 837.563 333.792L841.271 324.132H871.729ZM774.535 311.393C782.842 311.393 788.768 313.353 792.314 317.272C795.954 321.192 797.774 326.745 797.774 333.932C797.774 341.772 796.188 347.839 793.015 352.132C789.935 356.332 785.034 358.432 778.314 358.432C775.608 358.432 773.555 358.152 772.155 357.592C770.849 357.032 769.914 355.912 769.354 354.232C768.888 352.552 768.655 350.079 768.655 346.812V311.393H774.535ZM691.338 321.332H662.979L677.503 283.489L691.338 321.332ZM870.705 321.332H842.346L856.87 283.489L870.705 321.332ZM608.358 265.332C614.705 265.332 619.185 267.526 621.798 271.912C624.411 276.299 625.718 282.925 625.718 291.792C625.718 296.552 625.158 300.985 624.038 305.092C623.011 309.198 621.052 312.512 618.158 315.032C615.358 317.552 611.205 318.812 605.698 318.812H599.678V277.372C599.678 272.519 600.191 269.299 601.218 267.712C602.338 266.125 604.718 265.332 608.358 265.332ZM777.335 265.332C782.188 265.332 785.688 267.106 787.835 270.652C789.982 274.106 791.055 279.286 791.055 286.192C791.055 290.206 790.589 293.986 789.655 297.532C788.722 300.985 787.088 303.785 784.755 305.932C782.422 307.985 779.061 309.012 774.675 309.012H768.655V277.372C768.655 272.519 769.168 269.299 770.194 267.712C771.314 266.125 773.695 265.332 777.335 265.332ZM471.921 145.6C470.241 145.693 468.141 145.787 465.621 145.88C463.194 145.88 460.58 145.926 457.78 146.02H450.221C446.207 146.02 442.754 145.973 439.86 145.88C436.967 145.693 433.747 145.6 430.201 145.6C428.148 145.6 426.094 145.693 424.041 145.88C422.081 145.973 420.027 146.02 417.881 146.02C415.641 146.02 413.168 145.973 410.461 145.88C407.754 145.787 405.421 145.693 403.461 145.6V148.4C406.821 148.494 409.341 148.866 411.021 149.52C412.794 150.173 413.914 151.34 414.381 153.02C414.941 154.7 415.081 157.174 414.801 160.44C414.334 168.187 413.821 176.027 413.261 183.96C412.701 191.8 411.908 199.313 410.881 206.5C409.854 213.687 408.408 220.127 406.541 225.82C404.768 231.42 402.434 235.854 399.541 239.12C396.648 242.387 393.054 244.02 388.761 244.02C388.107 244.02 387.454 243.973 386.801 243.88C386.241 243.787 385.727 243.6 385.261 243.32C388.527 242.387 391.188 240.847 393.241 238.7C395.388 236.46 396.461 233.707 396.461 230.44C396.461 227.734 395.48 225.633 393.521 224.14C391.654 222.553 389.18 221.76 386.101 221.76C382.554 221.76 379.521 222.833 377.001 224.979C374.574 227.126 373.36 230.02 373.36 233.66C373.36 237.58 374.854 240.753 377.841 243.18C380.921 245.513 384.561 246.68 388.761 246.68C393.241 246.68 397.021 245.327 400.101 242.62C403.181 239.913 405.701 236.274 407.661 231.7C409.621 227.034 411.16 221.76 412.28 215.88C413.494 210 414.428 203.84 415.081 197.4C415.734 190.96 416.248 184.566 416.621 178.22C417.088 171.873 417.554 165.947 418.021 160.44C418.301 157.08 418.72 154.56 419.28 152.88C419.934 151.107 420.914 149.94 422.221 149.38C423.621 148.727 425.441 148.4 427.681 148.4H428.661C430.994 148.4 432.861 148.727 434.261 149.38C435.754 149.94 436.781 151.06 437.341 152.74C437.994 154.42 438.32 156.987 438.32 160.44V229.88C438.32 233.24 437.994 235.76 437.341 237.44C436.781 239.12 435.567 240.24 433.701 240.8C431.928 241.36 429.314 241.733 425.86 241.92V244.72C428.567 244.533 432.021 244.44 436.221 244.44C440.421 244.347 444.714 244.3 449.101 244.3C453.674 244.3 457.967 244.347 461.98 244.44C466.087 244.44 469.401 244.533 471.921 244.72V241.92C468.748 241.733 466.321 241.36 464.641 240.8C463.054 240.24 461.981 239.12 461.421 237.44C460.861 235.76 460.581 233.24 460.581 229.88V160.44C460.581 156.987 460.861 154.467 461.421 152.88C461.981 151.2 463.054 150.08 464.641 149.52C466.321 148.866 468.748 148.494 471.921 148.4V145.6ZM583.183 145.6C580.756 145.693 577.582 145.787 573.662 145.88C569.742 145.973 565.542 146.02 561.062 146.02C557.143 146.02 553.223 145.973 549.303 145.88C545.476 145.787 542.349 145.693 539.923 145.6V148.4C542.816 148.494 545.01 148.866 546.503 149.52C547.996 150.08 549.022 151.2 549.582 152.88C550.009 154.089 550.271 155.839 550.373 158.131L510.522 225.715V160.44C510.522 156.987 510.756 154.467 511.223 152.88C511.783 151.2 512.809 150.08 514.303 149.52C515.796 148.866 518.036 148.494 521.022 148.4V145.6C518.503 145.693 515.329 145.787 511.503 145.88C507.676 145.973 503.803 146.02 499.883 146.02C495.31 146.02 491.063 145.973 487.143 145.88C483.316 145.787 480.189 145.693 477.763 145.6V148.4C480.656 148.494 482.849 148.866 484.343 149.52C485.929 150.08 486.956 151.2 487.423 152.88C487.983 154.467 488.263 156.987 488.263 160.44V229.88C488.263 233.24 487.983 235.76 487.423 237.44C486.956 239.12 485.929 240.24 484.343 240.8C482.849 241.36 480.656 241.733 477.763 241.92V244.72C480.189 244.533 483.316 244.44 487.143 244.44C491.063 244.347 495.31 244.3 499.883 244.3C503.803 244.3 507.676 244.347 511.503 244.44C515.329 244.44 518.503 244.533 521.022 244.72V241.92C518.036 241.733 515.796 241.36 514.303 240.8C512.81 240.24 511.783 239.12 511.223 237.44C510.846 236.086 510.625 234.185 510.552 231.739L550.423 164.292V229.88C550.423 233.24 550.142 235.76 549.582 237.44C549.022 239.12 547.996 240.24 546.503 240.8C545.01 241.36 542.816 241.733 539.923 241.92V244.72C542.349 244.533 545.476 244.44 549.303 244.44C553.223 244.347 557.143 244.3 561.062 244.3C565.542 244.3 569.742 244.347 573.662 244.44C577.582 244.44 580.756 244.533 583.183 244.72V241.92C580.196 241.733 577.956 241.36 576.463 240.8C574.97 240.24 573.943 239.12 573.383 237.44C572.916 235.76 572.683 233.24 572.683 229.88V160.44C572.683 156.987 572.916 154.467 573.383 152.88C573.943 151.2 574.97 150.08 576.463 149.52C577.956 148.866 580.196 148.494 583.183 148.4V145.6ZM752.675 145.6C748.382 145.786 743.481 145.926 737.975 146.02H702.694C698.494 145.926 694.247 145.88 689.954 145.88C685.661 145.787 681.601 145.693 677.774 145.6V148.4C680.668 148.494 682.861 148.866 684.354 149.52C685.941 150.08 686.968 151.2 687.435 152.88C687.995 154.467 688.274 156.987 688.274 160.44V229.88C688.274 233.24 687.995 235.76 687.435 237.44C686.968 239.12 685.987 240.24 684.494 240.8C683.001 241.36 680.761 241.733 677.774 241.92V244.72C681.601 244.626 685.661 244.58 689.954 244.58C694.247 244.487 698.494 244.44 702.694 244.44C706.894 244.347 710.814 244.3 714.454 244.3H723.414C728.081 244.3 733.401 244.347 739.374 244.44C745.347 244.44 750.715 244.533 755.475 244.72C755.008 240.52 754.728 236.46 754.635 232.54C754.541 228.62 754.494 225.587 754.494 223.44C754.494 218.587 754.634 214.666 754.914 211.68H751.694C750.481 219.146 748.707 225.073 746.374 229.46C744.134 233.847 741.381 236.973 738.114 238.84C734.941 240.613 731.255 241.5 727.055 241.5H720.194C717.488 241.5 715.434 241.266 714.034 240.8C712.634 240.333 711.701 239.4 711.234 238C710.768 236.6 710.534 234.453 710.534 231.56V196.28H715.015L715.706 196.29C719.124 196.394 721.927 197.278 724.114 198.94C726.448 200.62 728.221 202.86 729.435 205.66C730.741 208.46 731.628 211.493 732.095 214.76H735.314C734.941 209.44 734.708 205.38 734.614 202.58C734.544 200.48 734.501 198.511 734.483 196.674L734.466 193.086C734.448 191.249 734.404 189.28 734.334 187.18C734.334 184.38 734.521 180.32 734.895 175H731.675C731.302 176.867 730.741 178.873 729.994 181.02C729.247 183.166 728.221 185.22 726.914 187.18C725.701 189.046 724.114 190.586 722.154 191.8C720.194 192.92 717.815 193.479 715.015 193.479H710.534V158.76C710.534 155.867 710.768 153.72 711.234 152.32C711.701 150.92 712.634 149.986 714.034 149.52C715.434 149.053 717.488 148.82 720.194 148.82H725.935C730.134 148.82 733.775 149.66 736.854 151.34C740.028 152.927 742.595 155.727 744.555 159.74C746.515 163.66 747.961 169.027 748.895 175.84H752.114C752.021 174.72 751.927 173.32 751.834 171.64C751.741 169.96 751.694 168.187 751.694 166.32C751.694 164.267 751.741 161.327 751.834 157.5C752.021 153.673 752.301 149.706 752.675 145.6ZM763.425 148.4C766.318 148.494 768.512 148.866 770.005 149.52C771.592 150.08 772.618 151.2 773.085 152.88C773.645 154.467 773.925 156.987 773.925 160.44V229.88C773.925 233.24 773.645 235.76 773.085 237.44C772.618 239.12 771.638 240.24 770.145 240.8C768.651 241.36 766.411 241.733 763.425 241.92V244.72C766.505 244.626 769.958 244.534 773.785 244.44C777.612 244.347 781.532 244.3 785.545 244.3C790.585 244.3 795.392 244.347 799.965 244.44C804.538 244.534 808.272 244.626 811.165 244.72V241.64C806.965 241.546 803.791 241.22 801.645 240.66C799.498 240.1 798.051 238.933 797.305 237.16C796.558 235.387 796.185 232.68 796.185 229.04V204.68H803.604C811.818 204.68 818.632 203.7 824.045 201.74C829.458 199.78 833.705 197.26 836.785 194.18C839.958 191.006 842.198 187.6 843.505 183.96C844.812 180.227 845.465 176.68 845.465 173.32C845.465 165.2 842.245 158.574 835.805 153.44C829.365 148.307 819.658 145.74 806.685 145.74C804.911 145.74 801.924 145.787 797.725 145.88C793.525 145.973 789.185 146.02 784.705 146.02C780.785 146.02 776.818 145.973 772.805 145.88C768.885 145.787 765.758 145.693 763.425 145.6V148.4ZM627.466 148.4C629.799 148.4 631.666 148.727 633.066 149.38C634.56 149.94 635.586 151.06 636.146 152.74C636.8 154.42 637.126 156.987 637.126 160.44V229.88C637.126 233.24 636.846 235.807 636.286 237.58C635.726 239.26 634.606 240.427 632.926 241.08C631.339 241.64 628.959 241.92 625.786 241.92H597.21C597.797 241.54 598.363 241.121 598.906 240.66C601.986 237.954 604.506 234.36 606.466 229.88C608.426 225.307 609.966 220.173 611.086 214.479C612.299 208.693 613.232 202.673 613.886 196.42C614.539 190.073 615.052 183.82 615.426 177.66C615.892 171.5 616.359 165.76 616.826 160.44C617.106 157.08 617.526 154.56 618.086 152.88C618.739 151.107 619.673 149.94 620.886 149.38C622.099 148.727 623.686 148.4 625.646 148.4H627.466ZM804.865 148.4C811.211 148.4 815.691 150.593 818.305 154.979C820.918 159.366 822.225 165.994 822.225 174.86C822.225 179.62 821.665 184.054 820.545 188.16C819.518 192.267 817.558 195.58 814.665 198.1C811.865 200.62 807.712 201.88 802.205 201.88H796.185V160.44C796.185 155.587 796.698 152.367 797.725 150.78C798.845 149.194 801.225 148.4 804.865 148.4Z" fill="#FDFAF3"/>
</svg>
