<svg width="26" height="29" viewBox="0 0 26 29" fill="none" xmlns="http://www.w3.org/2000/svg">
<path d="M4.3963 4.62896H21.063C21.4313 4.62896 21.7846 4.77645 22.0451 5.03901C22.3055 5.30156 22.4519 5.65765 22.4519 6.02895C22.4519 6.40026 22.3055 6.75635 22.0451 7.0189C21.7846 7.28146 21.4313 7.42895 21.063 7.42895H4.3963C4.02794 7.42895 3.67467 7.28146 3.4142 7.0189C3.15374 6.75635 3.00741 6.40026 3.00741 6.02895C3.00741 5.65765 3.15374 5.30156 3.4142 5.03901C3.67467 4.77645 4.02794 4.62896 4.3963 4.62896ZM25.2296 0.428955V3.22896H0.22963V0.428955H25.2296ZM16.8963 8.82895H19.6741V28.429H16.8963V8.82895ZM5.78518 8.82895H8.56296V28.429H5.78518V8.82895ZM11.3407 8.82895H14.1185V28.429H11.3407V8.82895Z" fill="#F0E1E1"/>
</svg>
