<svg width="46" height="31" viewBox="0 0 46 31" fill="none" xmlns="http://www.w3.org/2000/svg">
<path d="M40.1429 0.642151C38.7221 0.642151 37.3594 1.24998 36.3548 2.33192C35.3501 3.41386 34.7857 4.88129 34.7857 6.41138V6.82677L24.2643 3.15754C23.4414 2.87781 22.5586 2.87781 21.7357 3.15754L11.2143 6.82677V6.41138C11.2143 4.88129 10.6499 3.41386 9.64522 2.33192C8.64056 1.24998 7.27795 0.642151 5.85714 0.642151C4.43634 0.642151 3.07373 1.24998 2.06907 2.33192C1.06441 3.41386 0.5 4.88129 0.5 6.41138V16.796C0.5 19.3345 2.42857 21.4114 4.78571 21.4114H10.1429C12.2857 26.8345 17.2143 30.6422 23 30.6422C28.7857 30.6422 33.7143 26.8345 35.8571 21.4114H41.2143C43.5714 21.4114 45.5 19.3345 45.5 16.796V6.41138C45.5 4.88129 44.9356 3.41386 43.9309 2.33192C42.9263 1.24998 41.5637 0.642151 40.1429 0.642151ZM9.07143 19.1037H4.78571C3.60714 19.1037 2.64286 18.0652 2.64286 16.796V6.41138C2.64286 4.496 4.07857 2.94984 5.85714 2.94984C7.63571 2.94984 9.07143 4.496 9.07143 6.41138V19.1037ZM23 28.3345C19.876 28.3284 16.8815 26.9892 14.6725 24.6102C12.4635 22.2313 11.2199 19.0065 11.2143 15.6422V9.24984L22.3786 5.37292C22.5714 5.25754 22.7857 5.25754 23 5.25754C23.2143 5.25754 23.4286 5.25754 23.6 5.34984L34.7857 9.24984V15.6422C34.7857 22.6345 29.4929 28.3345 23 28.3345ZM43.3571 16.796C43.3571 18.0652 42.3929 19.1037 41.2143 19.1037H36.9286V6.41138C36.9286 4.496 38.3643 2.94984 40.1429 2.94984C41.9214 2.94984 43.3571 4.496 43.3571 6.41138V16.796ZM24.5643 10.1268L28.3571 11.4422V13.8652L23.9429 12.3421C23.3229 12.1832 22.6771 12.1832 22.0571 12.3421L17.6429 13.8652V11.4422L21.4143 10.1268C22.4643 9.78061 23.5357 9.78061 24.5643 10.1268Z" fill="#112134"/>
</svg>
