<svg width="20" height="20" viewBox="0 0 20 20" fill="none" xmlns="http://www.w3.org/2000/svg">
<path d="M18 20C18.3978 20 18.7794 19.842 19.0607 19.5607C19.342 19.2794 19.5 18.8978 19.5 18.5V15C19.5 14.6022 19.342 14.2206 19.0607 13.9393C18.7794 13.658 18.3978 13.5 18 13.5C16.83 13.5 15.68 13.32 14.58 12.95C14.317 12.867 14.0363 12.8576 13.7683 12.9228C13.5004 12.988 13.2554 13.1254 13.06 13.32L11.62 14.76C9.13224 13.4024 7.08758 11.3578 5.73 8.87L7.16 7.44C7.57 7.05 7.72 6.47 7.54 5.91C7.18 4.82 7 3.67 7 2.5C7 2.10218 6.84196 1.72064 6.56066 1.43934C6.27936 1.15804 5.89782 1 5.5 1H2C1.60218 1 1.22064 1.15804 0.93934 1.43934C0.658035 1.72064 0.5 2.10218 0.5 2.5C0.5 12.15 8.35 20 18 20ZM2 2H5.5C5.63261 2 5.75979 2.05268 5.85355 2.14645C5.94732 2.24021 6 2.36739 6 2.5C6 3.78 6.2 5.03 6.59 6.22C6.64 6.36 6.63 6.56 6.47 6.72L4.5 8.68C6.15 11.91 8.57 14.33 11.81 16L13.76 14.03C13.9 13.89 14.09 13.85 14.27 13.9C15.47 14.3 16.72 14.5 18 14.5C18.1326 14.5 18.2598 14.5527 18.3536 14.6464C18.4473 14.7402 18.5 14.8674 18.5 15V18.5C18.5 18.6326 18.4473 18.7598 18.3536 18.8536C18.2598 18.9473 18.1326 19 18 19C8.9 19 1.5 11.6 1.5 2.5C1.5 2.36739 1.55268 2.24021 1.64645 2.14645C1.74021 2.05268 1.86739 2 2 2Z" fill="#CDD6E9"/>
<path d="M13.5632 5.93682C14.679 7.05268 15.3382 8.45606 15.5453 9.9062L14.886 10C14.6959 8.63894 14.0662 7.37735 13.0923 6.40765C12.0801 5.3954 10.8136 4.79764 9.5 4.61401L9.5938 3.95466C11.0439 4.16183 12.4473 4.82097 13.5632 5.93682Z" fill="#CDD6E9"/>
<path d="M14.9757 4.52435C16.4117 5.96035 17.264 7.75416 17.5183 9.62803L16.859 9.70343C16.6066 7.91993 15.7802 6.26715 14.5048 4.99517C13.1771 3.66744 11.5057 2.88116 9.79657 2.64104L9.87197 1.9817C11.7458 2.23595 13.5396 3.08834 14.9757 4.52435Z" fill="#CDD6E9"/>
<path d="M16.3881 3.11187C18.1443 4.86804 19.1798 7.07153 19.5 9.35032L18.8411 9.44457C18.5398 7.2976 17.5652 5.23059 15.9173 3.58269C14.2694 1.9348 12.2024 0.960209 10.0554 0.658881L10.1497 0C12.4285 0.320168 14.632 1.3557 16.3881 3.11187Z" fill="#CDD6E9"/>
</svg>
