<svg width="33" height="35" viewBox="0 0 33 35" fill="none" xmlns="http://www.w3.org/2000/svg">
<path d="M30.3947 35C31.0857 35 31.7484 34.7234 32.2369 34.2312C32.7255 33.7389 33 33.0712 33 32.375V26.25C33 25.5538 32.7255 24.8861 32.2369 24.3938C31.7484 23.9016 31.0857 23.625 30.3947 23.625C28.3626 23.625 26.3653 23.31 24.4547 22.6625C23.998 22.5172 23.5104 22.5008 23.045 22.6149C22.5796 22.7291 22.1541 22.9695 21.8147 23.31L19.3137 25.83C14.9928 23.4542 11.4416 19.8761 9.08368 15.5225L11.5674 13.02C12.2795 12.3375 12.54 11.3225 12.2274 10.3425C11.6021 8.435 11.2895 6.4225 11.2895 4.375C11.2895 3.67881 11.015 3.01113 10.5264 2.51884C10.0378 2.02656 9.37517 1.75 8.68421 1.75H2.60526C1.9143 1.75 1.25165 2.02656 0.763064 2.51884C0.274482 3.01113 0 3.67881 0 4.375C0 21.2625 13.6342 35 30.3947 35ZM2.60526 3.5H8.68421C8.91453 3.5 9.13542 3.59219 9.29828 3.75628C9.46114 3.92038 9.55263 4.14294 9.55263 4.375C9.55263 6.615 9.9 8.8025 10.5774 10.885C10.6642 11.13 10.6468 11.48 10.3689 11.76L6.94737 15.19C9.81316 20.8425 14.0163 25.0775 19.6437 28L23.0305 24.5525C23.2737 24.3075 23.6037 24.2375 23.9163 24.325C26.0005 25.025 28.1716 25.375 30.3947 25.375C30.6251 25.375 30.8459 25.4672 31.0088 25.6313C31.1717 25.7954 31.2632 26.0179 31.2632 26.25V32.375C31.2632 32.6071 31.1717 32.8296 31.0088 32.9937C30.8459 33.1578 30.6251 33.25 30.3947 33.25C14.5895 33.25 1.73684 20.3 1.73684 4.375C1.73684 4.14294 1.82834 3.92038 1.9912 3.75628C2.15406 3.59219 2.37494 3.5 2.60526 3.5Z" fill="#282E3C"/>
<path d="M22.6887 10.3894C24.6267 12.3422 25.7716 14.7981 26.1314 17.3359L24.9862 17.5C24.6561 15.1181 23.5623 12.9104 21.8709 11.2134C20.1128 9.44194 17.9131 8.39587 15.6316 8.07451L15.7945 6.92066C18.3132 7.2832 20.7506 8.43669 22.6887 10.3894Z" fill="#282E3C"/>
<path d="M25.1419 7.91761C27.636 10.4306 29.1165 13.5698 29.5581 16.8491L28.4129 16.981C27.9746 13.8599 26.5393 10.9675 24.3242 8.74155C22.0181 6.41803 19.1151 5.04203 16.1467 4.62182L16.2776 3.46798C19.5323 3.91292 22.6478 5.40459 25.1419 7.91761Z" fill="#282E3C"/>
<path d="M27.5952 5.44577C30.6454 8.51907 32.4439 12.3752 33 16.3631L31.8556 16.528C31.3323 12.7708 29.6396 9.15352 26.7774 6.26971C23.9153 3.38591 20.3252 1.68037 16.5963 1.15304L16.76 0C20.7179 0.560293 24.545 2.37247 27.5952 5.44577Z" fill="#282E3C"/>
</svg>
