<svg width="34" height="34" viewBox="0 0 34 34" fill="none" xmlns="http://www.w3.org/2000/svg">
<path d="M27.1105 11.8105L14.3158 24.6053L8.58947 18.8789L9.8421 17.6084L14.3158 22.0821L25.84 10.54L27.1105 11.8105ZM17 0C26.3947 0 34 7.60526 34 17C34 26.3947 26.3947 34 17 34C7.60526 34 0 26.3947 0 17C0 7.60526 7.60526 0 17 0ZM17 1.78947C8.60737 1.78947 1.78947 8.60737 1.78947 17C1.78947 25.3926 8.60737 32.2105 17 32.2105C25.3926 32.2105 32.2105 25.3926 32.2105 17C32.2105 8.60737 25.3926 1.78947 17 1.78947Z" fill="#82BA52"/>
</svg>
