<svg width="34" height="34" viewBox="0 0 34 34" fill="none" xmlns="http://www.w3.org/2000/svg">
<path fill-rule="evenodd" clip-rule="evenodd" d="M10.1323 11.22C10.6955 11.2201 11.1523 11.6768 11.1523 12.24C11.1523 15.8016 12.1593 17.6594 13.0289 18.615C13.1524 18.7507 13.276 18.8693 13.3955 18.9749L13.3981 12.24C13.3983 11.6768 13.8549 11.22 14.4181 11.22H17.7504C18.0208 11.2201 18.2804 11.3275 18.4716 11.5188C18.6627 11.7101 18.7704 11.9696 18.7704 12.24L18.7677 15.2588C19.8466 14.581 20.5011 13.8724 20.8954 13.3052C21.1706 12.9092 21.3272 12.5727 21.412 12.3489C21.4544 12.2371 21.4788 12.1534 21.4917 12.1045C21.4968 12.0854 21.5004 12.0714 21.5023 12.0634C21.5879 11.5762 22.0112 11.2203 22.5064 11.22H25.84C26.1498 11.22 26.4433 11.3606 26.6369 11.6025C26.8303 11.8443 26.9025 12.161 26.8348 12.4631V12.4671C26.8344 12.4686 26.8339 12.4705 26.8334 12.4724C26.8325 12.4763 26.8308 12.4812 26.8295 12.487C26.8266 12.499 26.8224 12.5152 26.8175 12.5348C26.8076 12.5746 26.7941 12.6307 26.775 12.6995C26.7368 12.8371 26.6792 13.03 26.5984 13.2653C26.437 13.735 26.1807 14.3795 25.7988 15.0928C25.2172 16.1791 24.3229 17.4551 22.9991 18.5061C24.6445 19.759 26.2148 21.5994 26.8334 24.2476C26.9042 24.5505 26.8327 24.8697 26.6395 25.1135C26.446 25.3574 26.1513 25.5 25.84 25.5H22.5077C22.0728 25.4999 21.6869 25.2238 21.5448 24.8134L21.5422 24.8067L21.5409 24.8054C21.5369 24.795 21.5291 24.7754 21.5183 24.7496C21.4948 24.6936 21.4552 24.6032 21.3948 24.4866C21.2734 24.2525 21.0709 23.9142 20.7626 23.533C20.3351 23.0046 19.6955 22.3911 18.7677 21.8503L18.7704 24.48C18.7704 24.7504 18.6627 25.0099 18.4716 25.2012C18.2804 25.3924 18.0208 25.4999 17.7504 25.5C14.8216 25.5 12.5552 24.812 10.8202 23.6884C9.0877 22.5664 7.95069 21.0534 7.20906 19.5075C5.74367 16.4529 5.78094 13.1792 5.78 12.2413C5.77973 11.9706 5.88751 11.7103 6.07883 11.5188C6.27011 11.3275 6.52947 11.22 6.8 11.22H10.1323ZM7.83727 13.26C7.89051 14.5804 8.11254 16.6746 9.04852 18.6256C9.66194 19.9041 10.5725 21.0978 11.9292 21.9765C13.0994 22.7342 14.652 23.2882 16.7291 23.4255L16.7277 20.2433C16.7277 19.9095 16.8907 19.596 17.1647 19.4052C17.4387 19.2145 17.7893 19.171 18.1023 19.287C20.1977 20.0642 21.5344 21.2422 22.3497 22.2501C22.721 22.7092 22.9806 23.1315 23.1572 23.46H24.4348C23.6209 21.5501 22.131 20.253 20.6523 19.384C20.3355 19.1978 20.1431 18.8549 20.149 18.4875C20.1549 18.1201 20.359 17.7841 20.6816 17.6083C22.3088 16.7211 23.355 15.3356 24.0005 14.1299C24.1663 13.8203 24.3025 13.5255 24.4149 13.26H23.2422C23.1 13.5971 22.8887 14.0136 22.5715 14.4699C21.8075 15.569 20.4682 16.8664 18.1581 17.8819C17.8426 18.0206 17.4771 17.9907 17.1886 17.8022C16.9002 17.6137 16.7262 17.2914 16.7264 16.9469L16.7291 13.26H15.4381L15.4355 20.7134C15.4354 21.0223 15.2962 21.3154 15.0556 21.509C14.815 21.7024 14.4992 21.7757 14.1977 21.7095L14.4155 20.7134C14.1965 21.7097 14.1958 21.7097 14.195 21.7095C14.1938 21.7093 14.191 21.7085 14.1897 21.7082C14.187 21.7076 14.1836 21.7076 14.1804 21.7069C14.1739 21.7054 14.1663 21.7023 14.1578 21.7002C14.1407 21.696 14.1191 21.6913 14.0941 21.6843C14.0437 21.6703 13.9779 21.6505 13.8988 21.6232C13.7406 21.5686 13.5288 21.4832 13.2813 21.3563C12.7854 21.102 12.1481 20.6782 11.5202 19.9883C10.3607 18.7141 9.31796 16.6252 9.14148 13.26H7.83727Z" fill="#282E3C"/>
<path fill-rule="evenodd" clip-rule="evenodd" d="M17 0C26.3891 0 34 7.6109 34 17C34 26.3891 26.3891 34 17 34C7.6109 34 0 26.3891 0 17C0 7.6109 7.6109 0 17 0ZM17 1.99883C13.0215 1.99883 9.20546 3.57907 6.39227 6.39227C3.57907 9.20546 1.99883 13.0215 1.99883 17C1.99883 20.9785 3.57907 24.7945 6.39227 27.6077C9.20546 30.4209 13.0215 32.0012 17 32.0012C20.9785 32.0012 24.7945 30.4209 27.6077 27.6077C30.4209 24.7945 32.0012 20.9785 32.0012 17C32.0012 13.0215 30.4209 9.20546 27.6077 6.39227C24.7945 3.57907 20.9785 1.99883 17 1.99883Z" fill="#282E3C"/>
</svg>
