<svg width="26" height="25" viewBox="0 0 26 25" fill="none" xmlns="http://www.w3.org/2000/svg">
<path fill-rule="evenodd" clip-rule="evenodd" d="M7.9502 8.25C8.36432 8.25011 8.7002 8.58585 8.7002 9C8.7002 11.6188 9.44069 12.9849 10.0801 13.6875C10.1709 13.7873 10.2618 13.8745 10.3496 13.9521L10.3516 9C10.3517 8.58585 10.6874 8.25 11.1016 8.25H13.5518C13.7506 8.25009 13.9415 8.32906 14.082 8.46973C14.2226 8.61037 14.3018 8.80118 14.3018 9L14.2998 11.2197C15.0931 10.7213 15.5743 10.2003 15.8643 9.7832C16.0667 9.49205 16.1818 9.2446 16.2441 9.08008C16.2753 8.9979 16.2932 8.93631 16.3027 8.90039C16.3064 8.88635 16.3091 8.87604 16.3105 8.87012C16.3735 8.51193 16.6847 8.25023 17.0488 8.25H19.5C19.7278 8.25 19.9436 8.35339 20.0859 8.53125C20.2282 8.70903 20.2813 8.94192 20.2314 9.16406V9.16699C20.2312 9.16806 20.2308 9.16946 20.2305 9.1709C20.2298 9.17377 20.2286 9.17733 20.2275 9.18164C20.2255 9.19042 20.2224 9.20233 20.2188 9.2168C20.2114 9.24603 20.2016 9.28728 20.1875 9.33789C20.1594 9.43904 20.1171 9.58091 20.0576 9.75391C19.939 10.0993 19.7505 10.5732 19.4697 11.0977C19.0421 11.8964 18.3845 12.8346 17.4111 13.6074C18.6209 14.5287 19.7756 15.8819 20.2305 17.8291C20.2825 18.0519 20.2299 18.2865 20.0879 18.4658C19.9456 18.6451 19.7289 18.75 19.5 18.75H17.0498C16.73 18.7499 16.4462 18.5469 16.3418 18.2451L16.3398 18.2402L16.3389 18.2393C16.336 18.2316 16.3302 18.2172 16.3223 18.1982C16.305 18.1571 16.2759 18.0906 16.2314 18.0049C16.1422 17.8327 15.9933 17.584 15.7666 17.3037C15.4523 16.9152 14.982 16.464 14.2998 16.0664L14.3018 18C14.3018 18.1988 14.2226 18.3896 14.082 18.5303C13.9415 18.6709 13.7506 18.7499 13.5518 18.75C11.3982 18.75 9.73175 18.2441 8.45605 17.418C7.18213 16.593 6.3461 15.4805 5.80078 14.3438C4.72329 12.0977 4.75069 9.69058 4.75 9.00098C4.7498 8.80193 4.82905 8.61054 4.96973 8.46973C5.11037 8.32908 5.30108 8.25 5.5 8.25H7.9502ZM6.2627 9.75C6.30185 10.7209 6.4651 12.2607 7.15332 13.6953C7.60437 14.6354 8.27387 15.5131 9.27148 16.1592C10.1319 16.7163 11.2735 17.1237 12.8008 17.2246L12.7998 14.8848C12.7998 14.6393 12.9196 14.4088 13.1211 14.2686C13.3226 14.1283 13.5803 14.0963 13.8105 14.1816C15.3513 14.7531 16.3341 15.6193 16.9336 16.3604C17.2066 16.698 17.3975 17.0085 17.5273 17.25H18.4668C17.8683 15.8456 16.7728 14.8919 15.6855 14.2529C15.4526 14.116 15.3111 13.8639 15.3154 13.5938C15.3198 13.3236 15.4698 13.0766 15.707 12.9473C16.9035 12.2949 17.6728 11.2762 18.1475 10.3896C18.2694 10.1619 18.3695 9.94524 18.4521 9.75H17.5898C17.4853 9.99789 17.3299 10.3041 17.0967 10.6396C16.5349 11.4478 15.5502 12.4017 13.8516 13.1484C13.6196 13.2504 13.3508 13.2284 13.1387 13.0898C12.9266 12.9512 12.7987 12.7143 12.7988 12.4609L12.8008 9.75H11.8516L11.8496 15.2305C11.8496 15.4575 11.7472 15.6731 11.5703 15.8154C11.3934 15.9577 11.1612 16.0115 10.9395 15.9629L11.0996 15.2305C10.9386 15.963 10.9381 15.963 10.9375 15.9629C10.9366 15.9627 10.9346 15.9621 10.9336 15.9619C10.9316 15.9615 10.9291 15.9615 10.9268 15.9609C10.922 15.9598 10.9164 15.9576 10.9102 15.9561C10.8976 15.9529 10.8817 15.9495 10.8633 15.9443C10.8263 15.934 10.7778 15.9195 10.7197 15.8994C10.6034 15.8592 10.4476 15.7965 10.2656 15.7031C9.90106 15.5162 9.43241 15.2046 8.9707 14.6973C8.11814 13.7604 7.35144 12.2244 7.22168 9.75H6.2627Z" fill="#CDD6E9"/>
<path fill-rule="evenodd" clip-rule="evenodd" d="M13 0C19.9037 0 25.5 5.59625 25.5 12.5C25.5 19.4037 19.9037 25 13 25C6.09625 25 0.5 19.4037 0.5 12.5C0.5 5.59625 6.09625 0 13 0ZM13 1.46973C10.0747 1.46973 7.26872 2.63167 5.2002 4.7002C3.13167 6.76872 1.96973 9.57466 1.96973 12.5C1.96973 15.4253 3.13167 18.2313 5.2002 20.2998C7.26872 22.3683 10.0747 23.5303 13 23.5303C15.9253 23.5303 18.7313 22.3683 20.7998 20.2998C22.8683 18.2313 24.0303 15.4253 24.0303 12.5C24.0303 9.57466 22.8683 6.76872 20.7998 4.7002C18.7313 2.63167 15.9253 1.46973 13 1.46973Z" fill="#CDD6E9"/>
</svg>
