<svg width="26" height="25" viewBox="0 0 26 25" fill="none" xmlns="http://www.w3.org/2000/svg">
<path fill-rule="evenodd" clip-rule="evenodd" d="M9.60131 5.10876C9.9063 5.10887 10.1989 5.22632 10.4147 5.43554C10.6306 5.64512 10.7526 5.92991 10.7526 6.2263C10.7526 7.09798 10.8901 7.95488 11.1664 8.76696C11.3045 9.18417 11.1894 9.6164 10.8747 9.90695L9.77734 10.9721C10.8193 12.8254 12.3886 14.3485 14.2978 15.36L15.4041 14.2873C15.5541 14.1425 15.7422 14.0403 15.9477 13.9917C16.153 13.9433 16.368 13.95 16.5696 14.0117C17.4138 14.2873 18.2969 14.422 19.1947 14.422C19.5001 14.422 19.7935 14.5392 20.0094 14.7488C20.2253 14.9584 20.3461 15.2432 20.3461 15.5396V18.1463C20.3461 18.4427 20.2253 18.7275 20.0094 18.9371C19.7935 19.1467 19.5001 19.2639 19.1947 19.2639C11.7881 19.2636 5.76316 13.4157 5.76316 6.2263C5.76316 5.92991 5.8839 5.64512 6.09981 5.43554C6.31573 5.22596 6.60913 5.10876 6.91447 5.10876H9.60131ZM6.91447 5.85337C6.81269 5.85337 6.71532 5.89327 6.64335 5.96313C6.57138 6.03299 6.53027 6.12751 6.53027 6.2263C6.53027 13.0059 12.2103 18.519 19.1947 18.5193C19.2965 18.5193 19.3952 18.4806 19.4672 18.4107C19.5391 18.3409 19.5789 18.2451 19.5789 18.1463V15.5396C19.5789 15.4408 19.5391 15.345 19.4672 15.2751C19.3952 15.2053 19.2965 15.1666 19.1947 15.1666C18.2124 15.1666 17.2528 15.0181 16.3319 14.7201C16.1939 14.683 16.0486 14.7122 15.9413 14.8162L14.4443 16.2842C11.9575 15.04 10.0993 13.2375 8.8329 10.8312L10.3453 9.37063C10.4681 9.25143 10.4762 9.10201 10.4378 8.99771C10.1385 8.11112 9.98422 7.17994 9.98422 6.2263C9.98422 6.1276 9.94427 6.03297 9.87243 5.96313C9.80056 5.89337 9.70293 5.85348 9.60131 5.85337H6.91447Z" fill="#CDD6E9"/>
<path fill-rule="evenodd" clip-rule="evenodd" d="M13 0C16.3152 0 19.495 1.278 21.8392 3.55343C24.1834 5.82887 25.5 8.91535 25.5 12.1333C25.5 15.3513 24.1834 18.4377 21.8392 20.7132C19.495 22.9886 16.3152 24.2666 13 24.2666C12.7955 24.2666 12.5916 24.2596 12.3884 24.2492L3.18041 24.9077L1.84149 25L4.54117 21.0624C4.41269 20.9482 4.28451 20.8332 4.16082 20.7132C1.81662 18.4377 0.5 15.3513 0.5 12.1333C0.5 8.91535 1.81662 5.82887 4.16082 3.55343C6.50503 1.278 9.68479 0 13 0ZM13 1.27719C10.0338 1.27719 7.18857 2.42053 5.09113 4.45645C2.99368 6.49236 1.81579 9.25409 1.81579 12.1333C1.81579 15.0125 2.99368 17.7743 5.09113 19.8102C5.2966 20.0096 5.50521 20.1981 5.71304 20.3802L5.70405 20.3964L6.31055 20.7893L4.42295 23.5395L12.1815 22.9957L12.1892 22.9844C12.24 22.9851 12.2909 22.9894 12.3421 22.9894C13.8108 22.9894 15.9232 22.7081 17.2802 22.1625C18.637 21.6169 19.8704 20.8182 20.9089 19.8102C21.9473 18.8022 22.7702 17.6049 23.3323 16.2879C23.8943 14.9708 24.1842 13.559 24.1842 12.1333C24.1842 9.25409 23.0063 6.49236 20.9089 4.45645C18.8114 2.42053 15.9662 1.27719 13 1.27719Z" fill="#CDD6E9"/>
</svg>
