<svg width="33" height="34" viewBox="0 0 33 34" fill="none" xmlns="http://www.w3.org/2000/svg">
<path fill-rule="evenodd" clip-rule="evenodd" d="M12.0137 6.94791C12.4163 6.94806 12.8026 7.1078 13.0874 7.39234C13.3724 7.67737 13.5335 8.06468 13.5335 8.46777C13.5335 9.65326 13.7149 10.8186 14.0796 11.9231C14.262 12.4905 14.11 13.0783 13.6946 13.4735L12.2461 14.9221C13.6214 17.4425 15.6929 19.514 18.2131 20.8895L19.6735 19.4308C19.8714 19.2339 20.1197 19.0948 20.3909 19.0287C20.662 18.9629 20.9458 18.972 21.2119 19.0559C22.3262 19.4307 23.4919 19.6139 24.6771 19.6139C25.0801 19.6139 25.4674 19.7733 25.7524 20.0584C26.0374 20.3434 26.1968 20.7307 26.1968 21.1338V24.679C26.1968 25.0821 26.0374 25.4694 25.7524 25.7544C25.4674 26.0395 25.0801 26.1989 24.6771 26.1989C14.9004 26.1986 6.94737 18.2453 6.94737 8.46777C6.94737 8.06468 7.10675 7.67737 7.39176 7.39234C7.67676 7.10731 8.06405 6.94791 8.46711 6.94791H12.0137ZM8.46711 7.96059C8.33275 7.96059 8.20422 8.01485 8.10922 8.10986C8.01422 8.20487 7.95996 8.33341 7.95996 8.46777C7.95996 17.688 15.4576 25.1859 24.6771 25.1862C24.8114 25.1862 24.9416 25.1336 25.0366 25.0386C25.1316 24.9436 25.1842 24.8134 25.1842 24.679V21.1338C25.1842 20.9994 25.1316 20.8692 25.0366 20.7742C24.9416 20.6792 24.8114 20.6266 24.6771 20.6266C23.3804 20.6266 22.1137 20.4246 20.8981 20.0194C20.716 19.9689 20.5242 20.0086 20.3825 20.15L18.4065 22.1465C15.124 20.4544 12.6711 18.0029 10.9994 14.7304L12.9958 12.7441C13.1579 12.5819 13.1686 12.3787 13.1179 12.2369C12.7228 11.0311 12.5192 9.76471 12.5192 8.46777C12.5192 8.33354 12.4664 8.20484 12.3716 8.10986C12.2767 8.01498 12.1479 7.96074 12.0137 7.96059H8.46711Z" fill="#282E3C"/>
<path fill-rule="evenodd" clip-rule="evenodd" d="M16.5 0C20.8761 0 25.0734 1.73807 28.1677 4.83267C31.2621 7.92726 33 12.1249 33 16.5013C33 20.8777 31.2621 25.0753 28.1677 28.1699C25.0734 31.2645 20.8761 33.0026 16.5 33.0026C16.23 33.0026 15.9609 32.9931 15.6926 32.9788L3.53814 33.8745L1.77076 34L5.33434 28.6449C5.16476 28.4896 4.99556 28.3332 4.83229 28.1699C1.73794 25.0753 0 20.8777 0 16.5013C0 12.1249 1.73794 7.92726 4.83229 4.83267C7.92664 1.73807 12.1239 0 16.5 0ZM16.5 1.73698C12.5846 1.73698 8.82892 3.29192 6.06029 6.06077C3.29166 8.82961 1.73684 12.5856 1.73684 16.5013C1.73684 20.417 3.29166 24.173 6.06029 26.9418C6.33151 27.2131 6.60688 27.4694 6.88122 27.717L6.86935 27.7391L7.66992 28.2734L5.1783 32.0137L15.4196 31.2741L15.4297 31.2588C15.4967 31.2598 15.564 31.2656 15.6316 31.2656C17.5703 31.2656 20.3587 30.883 22.1498 30.141C23.9408 29.399 25.5689 28.3127 26.9397 26.9418C28.3105 25.5709 29.3967 23.9427 30.1386 22.1516C30.8805 20.3603 31.2632 18.4402 31.2632 16.5013C31.2632 12.5856 29.7083 8.82961 26.9397 6.06077C24.1711 3.29192 20.4154 1.73698 16.5 1.73698Z" fill="#282E3C"/>
</svg>
