<svg width="64" height="24" viewBox="0 0 64 24" fill="none" xmlns="http://www.w3.org/2000/svg">
<path d="M5.072 23.3259V15.8387L0 2.42392H2.552L6.28 12.7783L10.584 0.258789H12.928L7.406 15.9215V23.3279L5.072 23.3259ZM20.104 23.3259H18.146C18.0495 22.9403 17.9826 22.5481 17.946 22.1526H17.802C17.146 22.9749 16.3 23.531 14.988 23.531C12.862 23.531 11.404 21.9476 11.404 19.0528C11.404 15.8978 13.042 13.9082 17.228 13.9082H17.55V13.0346C17.55 11.1022 16.894 10.2819 15.592 10.2819C14.402 10.2819 13.392 10.8971 12.622 11.5656L12.174 9.55229C12.862 8.99819 14.228 8.38296 15.736 8.38296C18.384 8.38296 19.832 9.49313 19.832 13.0662V19.9895C19.832 21.3954 19.976 22.6298 20.09 23.3279L20.104 23.3259ZM17.562 15.6434H17.29C14.404 15.6434 13.792 16.8956 13.792 18.7965C13.792 20.4923 14.354 21.5985 15.53 21.5985C16.332 21.5985 17.136 21.076 17.552 20.4292L17.562 15.6434ZM25.032 23.3259H22.72V8.54662H25.032V9.84018H25.176C25.594 9.28608 26.72 8.38099 28.114 8.38099C30.072 8.38099 31.104 9.45961 31.104 11.7095V23.3259H28.76V11.9146C28.76 10.8044 28.262 10.416 27.366 10.416C26.396 10.416 25.574 11.1554 25.032 11.8831V23.3259ZM33.394 16.517C33.394 11.043 35.468 8.38296 38.458 8.38296C39.176 8.38296 39.916 8.61958 40.364 8.93706V2.42392H42.676V23.3259H40.956L40.77 22.1526H40.624C39.978 22.9749 39.146 23.531 37.928 23.531C34.99 23.531 33.394 21.076 33.394 16.517ZM40.366 10.9504C39.896 10.487 39.388 10.2503 38.614 10.2503C36.75 10.2503 35.854 13.0346 35.854 16.0418C35.854 19.4945 36.51 21.5966 38.208 21.5966C39.366 21.5966 39.978 21.0425 40.366 20.4588V10.9504ZM49.978 23.531C46.896 23.531 44.988 21.1075 44.988 16.5761C44.988 11.8338 46.322 8.38099 49.498 8.38099C51.988 8.38099 53.612 10.2188 53.612 15.2333V16.4854H47.394C47.394 19.8238 48.344 21.5709 50.186 21.5709C51.49 21.5709 52.448 20.9951 53.032 20.585L53.574 22.3301C52.5511 23.1248 51.2802 23.5488 49.978 23.531ZM47.426 14.6062H51.25C51.25 12.0901 50.832 10.2523 49.498 10.2523C48.082 10.2523 47.584 11.9777 47.416 14.6062H47.426ZM63.678 8.58803L60.896 15.4896L64 23.3279H61.606L59.28 17.2466L57.032 23.3279H54.75L57.864 15.6947L55.042 8.58803H57.448L59.386 13.9378L61.426 8.58803H63.678Z" fill="#282E3C"/>
</svg>
