<svg width="48" height="18" viewBox="0 0 48 18" fill="none" xmlns="http://www.w3.org/2000/svg">
<path d="M4.01625 17.6413V12.1721L0.291504 2.37306H2.16563L4.90338 9.93661L8.06413 0.791504H9.7855L5.73029 12.2326V17.6428L4.01625 17.6413ZM15.0554 17.6413H13.6175C13.5466 17.3597 13.4975 17.0732 13.4706 16.7843H13.3648C12.8831 17.3849 12.2618 17.7911 11.2983 17.7911C9.73703 17.7911 8.66632 16.6345 8.66632 14.52C8.66632 12.2153 9.86922 10.762 12.9433 10.762H13.1798V10.1239C13.1798 8.71227 12.698 8.11306 11.7419 8.11306C10.868 8.11306 10.1263 8.56247 9.56078 9.05076L9.23178 7.58011C9.73703 7.17536 10.7402 6.72595 11.8476 6.72595C13.7923 6.72595 14.8556 7.5369 14.8556 10.1469V15.2042C14.8556 16.2312 14.9614 17.1328 15.0451 17.6428L15.0554 17.6413ZM13.1886 12.0295H12.9888C10.8694 12.0295 10.42 12.9442 10.42 14.3327C10.42 15.5715 10.8327 16.3795 11.6963 16.3795C12.2853 16.3795 12.8758 15.9978 13.1813 15.5254L13.1886 12.0295ZM18.6744 17.6413H16.9765V6.84551H18.6744V7.79041H18.7801C19.0871 7.38566 19.914 6.72451 20.9377 6.72451C22.3756 6.72451 23.1335 7.51241 23.1335 9.15591V17.6413H21.4121V9.30571C21.4121 8.49477 21.0464 8.21101 20.3884 8.21101C19.6761 8.21101 19.0724 8.75116 18.6744 9.28267V17.6413ZM24.8152 12.6676C24.8152 8.66905 26.3383 6.72595 28.5341 6.72595C29.0614 6.72595 29.6048 6.8988 29.9338 7.13071V2.37306H31.6317V17.6413H30.3686L30.232 16.7843H30.1248C29.6503 17.3849 29.0393 17.7911 28.1449 17.7911C25.9873 17.7911 24.8152 15.9978 24.8152 12.6676ZM29.9353 8.60136C29.5901 8.26286 29.2171 8.09001 28.6487 8.09001C27.2798 8.09001 26.6218 10.1239 26.6218 12.3205C26.6218 14.8426 27.1035 16.3781 28.3505 16.3781C29.2009 16.3781 29.6503 15.9733 29.9353 15.547V8.60136ZM36.9941 17.7911C34.7308 17.7911 33.3296 16.0209 33.3296 12.7108C33.3296 9.24666 34.3092 6.72451 36.6416 6.72451C38.4702 6.72451 39.6628 8.06697 39.6628 11.7299V12.6446H35.0965C35.0965 15.0832 35.7941 16.3594 37.1468 16.3594C38.1045 16.3594 38.808 15.9388 39.2369 15.6392L39.6349 16.9139C38.8837 17.4944 37.9504 17.8041 36.9941 17.7911ZM35.12 11.2719H37.9282C37.9282 9.43391 37.6213 8.09145 36.6416 8.09145C35.6017 8.09145 35.236 9.35181 35.1126 11.2719H35.12ZM47.055 6.87576L45.012 11.9172L47.2915 17.6428H45.5334L43.8253 13.2006L42.1744 17.6428H40.4985L42.7854 12.067L40.713 6.87576H42.4799L43.9031 10.7836L45.4012 6.87576H47.055Z" fill="#CDD6E9"/>
</svg>
