<svg width="22" height="21" viewBox="0 0 22 21" fill="none" xmlns="http://www.w3.org/2000/svg">
<path fill-rule="evenodd" clip-rule="evenodd" d="M11.0005 0C13.7299 8.61048e-05 16.3478 1.08466 18.2778 3.01465C20.2077 4.94468 21.2915 7.56263 21.2915 10.292C21.2914 13.0214 20.2078 15.6394 18.2778 17.5693C16.3478 19.4993 13.7299 20.5829 11.0005 20.583C8.27112 20.583 5.65318 19.4992 3.72314 17.5693C1.79316 15.6394 0.708582 13.0214 0.708496 10.292C0.708496 7.56247 1.79308 4.94471 3.72314 3.01465C5.65321 1.08459 8.27097 0 11.0005 0ZM4.78564 17.0859C6.4793 18.6352 8.69529 19.5 11.0005 19.5C12.2096 19.5 13.4068 19.2615 14.5239 18.7988C15.6411 18.3361 16.6562 17.6578 17.5112 16.8027C18.0816 16.2323 18.5706 15.5892 18.9722 14.8936L4.78564 17.0859ZM3.4585 5.01172C2.38218 6.5491 1.7915 8.38975 1.7915 10.292C1.79159 12.663 2.70867 14.9375 4.34229 16.6484L10.7358 15.6602C10.8512 14.2113 10.4557 13.3612 9.93408 12.875C9.38058 12.3591 8.64113 12.2097 8.07764 12.2441C7.97434 12.2503 7.87827 12.1919 7.83545 12.0977C6.80129 9.82189 6.97338 8.03582 7.83154 6.80664C8.01122 6.54929 8.22063 6.32053 8.45068 6.11719L3.66357 5.24609C3.54687 5.22479 3.4638 5.12545 3.4585 5.01172ZM11.6401 5.45801C10.2925 5.47586 8.97895 6.03695 8.2417 7.09277C7.52921 8.11329 7.31841 9.65251 8.22607 11.7412C8.86138 11.74 9.65456 11.9316 10.2749 12.5098C10.9188 13.1101 11.3375 14.0888 11.2437 15.582L12.1421 15.4434C12.1509 14.4966 12.2793 13.5896 12.7319 12.9131C13.2134 12.1936 14.0246 11.7845 15.2808 11.7969C16.1121 9.61242 15.8463 8.04213 15.0962 7.02148C14.3206 5.96649 12.9875 5.44016 11.6401 5.45801ZM15.812 7.22949C16.4387 8.42807 16.5123 10.0726 15.6851 12.1426C15.6457 12.2409 15.5487 12.3041 15.4429 12.2998C14.201 12.2494 13.5273 12.6231 13.147 13.1914C12.7883 13.7277 12.6585 14.4821 12.6431 15.3662L19.2661 14.3418C19.351 14.1686 19.4333 13.994 19.5073 13.8154C19.97 12.6983 20.2085 11.5011 20.2085 10.292C20.2085 9.42106 20.0823 8.56333 19.8452 7.74121C19.7961 7.77387 19.7365 7.79121 19.6733 7.78223L15.812 7.22949ZM11.0005 1.08301C8.55829 1.08301 6.21567 2.05338 4.48877 3.78027C4.18111 4.08793 3.89855 4.41596 3.64014 4.75977C3.6759 4.74954 3.71439 4.7468 3.75342 4.75391L8.99463 5.70801C9.77092 5.21891 10.7051 4.97034 11.6333 4.95801C13.0806 4.93883 14.5605 5.4952 15.4575 6.67285L19.7007 7.28125C19.249 5.97587 18.5065 4.77555 17.5112 3.78027C15.7844 2.05356 13.4425 1.08309 11.0005 1.08301Z" fill="#CDD6E9"/>
</svg>
