<svg width="57" height="49" viewBox="0 0 57 49" fill="none" xmlns="http://www.w3.org/2000/svg">
<path d="M7.56447 0.343553C5.21892 0.333249 3.65997 0.383623 3.65997 0.383623C3.29009 0.395367 2.93927 0.551153 2.68173 0.818025C2.42418 1.0849 2.28011 1.44192 2.28 1.81356V4.73525H1.4079C1.0345 4.73525 0.676397 4.88422 0.412364 5.14938C0.148332 5.41454 0 5.77417 0 6.14916V46.2538C0 46.6288 0.148332 46.9884 0.412364 47.2536C0.676397 47.5187 1.0345 47.6677 1.4079 47.6677H26.163C27.6598 48.6792 29.587 48.4473 30.837 47.6677H55.5921C55.9655 47.6677 56.3236 47.5187 56.5876 47.2536C56.8517 46.9884 57 46.6288 57 46.2538V6.14916C57 5.77417 56.8517 5.41454 56.5876 5.14938C56.3236 4.88422 55.9655 4.73525 55.5921 4.73525H54.72V1.81356C54.7199 1.44182 54.5757 1.08472 54.3181 0.81783C54.0604 0.550944 53.7094 0.395221 53.3395 0.383623C53.3395 0.383623 51.7811 0.333249 49.435 0.343553C47.09 0.353857 43.9584 0.424266 40.812 0.665832C37.6656 0.906254 34.5089 1.30696 32.0015 2.04082C30.7475 2.40717 29.6497 2.84623 28.7514 3.49422C28.6659 3.55604 28.5826 3.62416 28.5 3.69228C28.4183 3.62366 28.3344 3.5576 28.2486 3.49422C27.3503 2.84623 26.2525 2.40774 24.9985 2.04082C22.4911 1.30753 19.3344 0.906826 16.188 0.665832C13.0416 0.424838 9.91002 0.353857 7.56447 0.343553ZM49.4287 1.77463C51.7486 1.76433 53.295 1.81356 53.295 1.81356V41.8838C53.295 41.8838 31.6783 41.0401 28.8118 45.4821C28.6129 45.781 28.4145 45.7999 28.2161 45.5268C25.4642 41.0349 3.705 41.8838 3.705 41.8838V1.81356C3.705 1.81356 5.25141 1.76548 7.57131 1.77578C14.531 1.80669 28.4555 2.37111 28.5 6.39302C28.5445 2.37111 42.469 1.80555 49.4287 1.77463ZM2.8158 43.0024C3.08312 43.2169 3.41837 43.3276 3.76029 43.3143C3.76029 43.3143 9.86955 43.0785 15.9463 43.5233C18.9844 43.7454 22.018 44.149 24.1646 44.7826C24.2244 44.801 24.2757 44.821 24.3344 44.8393H2.81637L2.8158 43.0024ZM54.1831 43.0024V44.8393H32.665C32.7237 44.821 32.775 44.801 32.8349 44.7832C34.9815 44.149 38.015 43.7454 41.0531 43.5233C47.1293 43.0785 53.2397 43.3143 53.2397 43.3143C53.5814 43.3275 53.9159 43.2167 54.1831 43.0024Z" fill="#112134"/>
<path d="M49.423 3.20683C47.1287 3.21713 44.073 3.28525 41.028 3.5188C37.9831 3.75235 34.9444 4.16107 32.7972 4.78903C31.7239 5.10272 30.8797 5.48282 30.4135 5.81884C29.9478 6.15428 29.9261 6.29109 29.925 6.40844V13.1236C29.9506 13.1099 29.982 13.095 29.9883 13.0836C29.9951 13.0697 30.0049 13.0576 30.0171 13.0481C30.0292 13.0386 30.0433 13.0319 30.0584 13.0286C30.1467 13.0092 30.2767 13.0916 30.3525 13.237C30.4454 13.4144 30.446 13.4448 30.3639 13.5919C30.3137 13.6812 30.1838 13.8151 30.0755 13.8884C30.0048 13.9365 29.97 13.976 29.925 14.0184V23.092C30.0276 22.9214 30.047 22.7451 29.9843 22.4927C29.9216 22.2419 29.9273 22.2053 30.1 21.8578C30.2681 21.5184 30.4312 21.2883 30.7412 20.9545C30.811 20.8734 30.8527 20.7718 30.8604 20.6649C30.8604 20.5618 30.9305 20.4216 31.0559 20.2745C31.4116 19.8577 31.4486 19.6185 31.1471 19.6723C30.959 19.7066 30.9607 19.7198 30.9527 19.0025C30.9493 18.7049 30.9732 18.5492 31.0291 18.4931C31.0793 18.4427 31.2753 18.3935 31.5381 18.3643L31.9656 18.3162V18.0924C31.9656 17.8222 31.8208 17.5909 31.6675 17.6184C31.5278 17.6436 31.4554 17.4799 31.5649 17.386C31.6288 17.3408 31.7063 17.319 31.7843 17.3242C31.9029 17.3327 31.9177 17.3167 31.8898 17.2091C31.8624 17.1038 31.8784 17.0843 31.9844 17.0929C32.1052 17.1021 32.3675 16.9154 32.3076 16.8628C32.278 16.837 31.7547 17.015 31.5045 17.1353C31.3677 17.2017 31.3671 17.1982 31.46 17.0414C31.5318 16.9206 31.5398 16.8639 31.4902 16.8101C31.4406 16.7563 31.4515 16.7145 31.5358 16.6327C31.6213 16.5485 31.627 16.5273 31.5592 16.5359C31.4976 16.5445 31.5136 16.5033 31.6128 16.3985C31.7382 16.2669 31.7439 16.2417 31.6663 16.1736C31.5883 16.106 31.5694 16.1106 31.4971 16.2154C31.4567 16.2721 31.4269 16.3357 31.4093 16.4031C31.4053 16.4415 31.399 16.5279 31.3933 16.5966C31.3876 16.6836 31.3158 16.7552 31.1528 16.8382C30.8467 16.9933 30.8222 16.9956 30.7868 16.8582C30.7697 16.7935 30.7823 16.7363 30.8148 16.7305C30.8478 16.7248 30.8581 16.6578 30.8376 16.5777C30.7891 16.3825 30.8535 16.2171 30.9687 16.2434C31.0188 16.2549 31.0416 16.2463 31.0183 16.2262C30.9499 16.1661 31.1494 15.9457 31.2634 15.9572C31.3337 15.9644 31.3793 15.9234 31.4002 15.8341C31.4173 15.7608 31.4087 15.7047 31.3802 15.7099C31.3232 15.7202 31.3717 15.3722 31.4526 15.1913C31.4817 15.1254 31.5706 15.0631 31.6549 15.0482C31.7752 15.0264 31.7997 15.0459 31.7752 15.1495C31.7524 15.2445 31.7718 15.272 31.8544 15.2571C31.9798 15.2342 31.9941 15.3069 31.9035 15.5021C31.8579 15.6006 31.8619 15.6567 31.9166 15.7168C32.0055 15.8135 32.1144 15.9864 32.1959 16.1627C32.2289 16.2337 32.2956 16.3001 32.3452 16.3115C32.4125 16.3264 32.425 16.3848 32.3977 16.5474C32.3618 16.7563 32.3646 16.7603 32.498 16.6716C32.5738 16.6206 32.6758 16.4855 32.7237 16.3693C32.7887 16.2131 32.8668 16.1346 33.0286 16.0631C33.2168 15.9807 33.2458 15.9429 33.2458 15.794C33.2458 15.6985 33.2213 15.6246 33.1888 15.6303C33.0611 15.6532 33.1307 15.2823 33.284 15.1283C33.3678 15.0436 33.4567 14.9709 33.4807 14.9663C33.5667 14.9509 33.5833 15.3441 33.5018 15.4569C33.3422 15.6778 33.4419 15.8026 33.7212 15.7299C33.8078 15.707 33.8951 15.7139 33.915 15.7442C33.9384 15.7803 34.0062 15.7614 34.1077 15.6899C34.3533 15.5153 34.5842 15.4288 34.5842 15.5124C34.5842 15.6784 34.8088 15.3166 34.8378 15.1025C34.8983 14.6595 34.9467 14.458 34.998 14.4488C35.0265 14.4431 35.1023 14.3756 35.1661 14.2966C35.2536 14.1986 35.372 14.134 35.5013 14.1134C35.621 14.0911 35.7567 14.0401 35.804 14.0006C35.9767 13.8546 35.6831 13.8741 35.4158 14.0258C35.1798 14.1603 35.1468 14.1672 35.0168 14.1008C34.9393 14.0607 34.8726 14.0115 34.8726 13.9903L34.8441 13.656C34.8219 13.3904 34.8384 13.3337 35.0071 13.1008C35.3953 12.5632 35.4101 12.5352 35.3366 12.455C35.3147 12.4334 35.2882 12.4169 35.2591 12.4069C35.23 12.3969 35.199 12.3936 35.1684 12.3972C35.0596 12.4167 34.9096 12.7224 34.9672 12.8094C34.9866 12.8397 34.8817 13.0029 34.7347 13.1717C34.3995 13.5553 34.3146 13.8312 34.4725 14.0149C34.6275 14.1947 34.6081 14.5192 34.4405 14.5496C34.3972 14.557 34.3379 14.7173 34.298 14.9417C34.2422 15.2508 34.2074 15.3252 34.1156 15.3424C34.0529 15.3533 34.0028 15.3899 34.0028 15.4237C34.0028 15.4575 33.9498 15.4935 33.8859 15.505C33.8221 15.5164 33.7702 15.5542 33.7702 15.588C33.7702 15.6893 33.5947 15.6881 33.5553 15.5868C33.5337 15.5307 33.5582 15.4552 33.618 15.3991C33.7115 15.3103 33.7109 15.2846 33.6066 14.9778L33.4955 14.6515L33.3188 14.8387C33.0167 15.1598 32.8685 15.106 32.8075 14.6543C32.7755 14.418 32.7647 14.1793 32.775 13.9411C32.7784 13.897 32.8075 13.8724 32.8394 13.8873C32.8713 13.9027 32.8987 13.8781 32.8987 13.834C32.8993 13.7894 33.007 13.652 33.1369 13.5272C33.3376 13.3354 33.7366 12.7218 33.7423 12.5999C33.7457 12.51 34.0273 11.9284 34.0706 11.921C34.0968 11.9164 34.1185 11.8769 34.1185 11.8322C34.1185 11.7882 34.1652 11.6897 34.2211 11.6147C34.2769 11.5392 34.3573 11.4006 34.3995 11.3067C34.4417 11.2134 34.5654 11.0692 34.6754 10.9873C34.7854 10.9055 34.876 10.8139 34.876 10.7847C34.876 10.7555 34.9359 10.7389 35.0105 10.7446C35.1371 10.7555 35.3372 10.5712 35.2967 10.4819C35.2881 10.4636 35.34 10.4309 35.4124 10.4103C35.8427 10.2844 35.9242 10.2832 36.0656 10.3983C36.207 10.5122 36.2093 10.5231 36.1112 10.6553C36.012 10.7898 36.0143 10.7898 36.2024 10.7131C36.3683 10.6462 36.4002 10.6519 36.4276 10.7572C36.4487 10.8374 36.5062 10.8717 36.5957 10.8551C36.671 10.8419 36.8191 10.8929 36.924 10.9684C37.0295 11.0434 37.1885 11.1402 37.278 11.1842C37.5687 11.3245 37.5972 11.6433 37.3396 11.8672C37.2199 11.9708 37.1629 11.9839 36.9252 11.9587C36.7735 11.9427 36.6105 11.9061 36.5626 11.8786C36.5007 11.8424 36.5045 11.8605 36.5741 11.933C36.6276 11.9902 36.6727 12.1276 36.667 12.2369C36.6613 12.4545 36.8157 12.6548 36.9656 12.6251C37.0449 12.6096 37.0426 12.6004 36.9554 12.5621C36.8995 12.538 36.8539 12.4505 36.8539 12.368C36.8539 12.1963 36.8938 12.178 37.0534 12.2764C37.2153 12.3761 37.3139 12.3434 37.2769 12.2015C37.233 12.0309 37.5362 11.6622 37.7101 11.676C37.8337 11.6857 37.8372 11.6742 37.8035 11.3651C37.7842 11.1883 37.7425 11.0137 37.7112 10.977C37.6696 10.9289 37.6844 10.9055 37.7636 10.8923C38.1079 10.8333 38.3069 11.0297 38.1022 11.2243C38.0475 11.277 38.0179 11.3485 38.0407 11.3829C38.1051 11.4802 38.2379 11.4315 38.2766 11.2959C38.3108 11.1779 38.7173 10.7818 38.8238 10.7624C38.8523 10.7572 38.9082 10.7063 38.9481 10.6484C38.9915 10.5884 39.0537 10.5446 39.1248 10.5242C39.2035 10.5105 39.2206 10.5414 39.1966 10.6496C39.1704 10.7669 39.1795 10.7772 39.2434 10.7034C39.3002 10.6458 39.3725 10.606 39.4514 10.5889C39.5232 10.5763 39.599 10.5334 39.6207 10.4933C39.6424 10.4532 39.7176 10.4246 39.79 10.4304C39.8612 10.4361 39.9365 10.4212 39.9553 10.3972C40.0112 10.3285 39.884 10.1436 39.7934 10.1602C39.6994 10.1768 39.6201 9.9787 39.6771 9.87051C39.7037 9.82243 39.7583 9.83006 39.8407 9.89341C39.9091 9.94665 40.0972 10.0119 40.2562 10.0394C40.4158 10.0663 40.6478 10.1567 40.7715 10.2397C40.9893 10.3846 40.9955 10.3851 40.9556 10.2512C40.9328 10.175 40.8736 10.0863 40.8251 10.0548C40.7666 10.0167 40.7495 9.94359 40.7738 9.8356C40.7943 9.7463 40.7806 9.62551 40.7419 9.56712C40.6826 9.4784 40.6963 9.41829 40.8285 9.19504C40.9146 9.04907 40.9841 8.87105 40.9841 8.79949C40.9841 8.72794 41.0195 8.62662 41.0611 8.57453C41.1092 8.51097 41.1477 8.44055 41.1751 8.36559C41.1962 8.30262 41.2515 8.24538 41.2971 8.23679C41.4236 8.21389 41.4584 8.3799 41.3461 8.4692C41.2629 8.5356 41.272 8.54419 41.4065 8.52186C41.5456 8.49897 41.5661 8.51957 41.5661 8.68272C41.5661 8.78575 41.5405 8.926 41.5091 8.99469C41.4681 9.08227 41.4703 9.13036 41.5177 9.15268C41.557 9.171 41.569 9.15955 41.5479 9.12692C41.5273 9.09544 41.569 8.9821 41.6402 8.87391C41.7115 8.76629 41.7616 8.63234 41.7525 8.57624C41.7434 8.52129 41.7616 8.45317 41.7935 8.42741C41.8585 8.37303 41.9566 8.52873 41.9474 8.67184C41.9389 8.80464 42.0443 8.84357 42.1167 8.73481C42.2393 8.54991 42.4137 8.51843 42.5784 8.64894C42.6656 8.71878 42.7637 8.76973 42.799 8.76343C42.8338 8.7577 42.7967 8.69932 42.7147 8.63406C42.6166 8.55621 42.5505 8.42169 42.5249 8.2471C42.4804 7.93913 42.4849 7.93512 42.9826 7.78056C43.2961 7.68325 43.3816 7.60941 43.2533 7.5493C43.161 7.5058 43.1838 7.22473 43.2812 7.20699C43.3325 7.19783 43.3536 7.1589 43.3331 7.10681C43.3103 7.04785 43.336 7.0135 43.4158 6.99919C43.4796 6.98774 43.5469 6.93737 43.564 6.88757C43.5811 6.83777 43.6951 6.74389 43.8176 6.6792C43.9396 6.61509 44.065 6.52407 44.0969 6.47713C44.1858 6.34719 44.4743 6.24415 44.5672 6.30827C44.6128 6.34032 44.6926 6.33632 44.7507 6.29911C44.8071 6.26362 44.9188 6.2287 44.9986 6.2224C45.1161 6.21267 45.1297 6.19836 45.071 6.14512C44.9605 6.04495 44.9838 5.98484 45.1423 5.95622C45.2449 5.9379 45.2762 5.90585 45.2529 5.84517C45.2118 5.74041 45.4353 5.31109 45.5897 5.19603C45.6086 5.18246 45.6293 5.17184 45.6513 5.16455C45.6899 5.15203 45.7309 5.14889 45.771 5.15539C45.8907 5.17428 45.995 5.26873 45.9676 5.38379C45.9488 5.46221 45.9682 5.50056 46.0218 5.49083C46.068 5.48282 46.1215 5.51545 46.1398 5.56239C46.1609 5.61677 46.2515 5.63566 46.3849 5.61276C46.7041 5.55838 46.9281 5.75301 46.9617 6.11364C46.9891 6.40959 46.9572 6.47026 46.5285 6.93222C46.4328 7.03583 46.4322 7.04155 46.5405 7.04384C46.6032 7.04499 46.6762 7.07361 46.7001 7.10738C46.7309 7.15146 46.76 7.14001 46.801 7.06731C46.85 6.98145 46.8648 6.98488 46.8939 7.09193C46.9224 7.19725 46.9532 7.20641 47.0615 7.14345C47.2416 7.03926 47.6759 7.07933 47.636 7.19611C47.6159 7.25412 47.6742 7.28426 47.811 7.28655C48.0607 7.29113 48.1394 7.23217 48.1394 7.04155C48.1394 6.8412 48.2214 6.79025 48.4255 6.86524C48.5207 6.89959 48.6478 6.91962 48.7082 6.90875C48.9214 6.8704 49.016 7.05071 49.0012 7.4663C48.9892 7.788 49.0063 7.86299 49.1015 7.91909C49.207 7.98206 49.2189 7.97061 49.264 7.77598C49.3301 7.49034 49.3962 7.42107 49.4731 7.5596C49.5233 7.64948 49.5757 7.66092 49.7046 7.61112C49.8026 7.57277 49.8881 7.57105 49.9126 7.60883C49.9434 7.6552 49.9793 7.6449 50.0494 7.56476C50.1024 7.50522 50.1731 7.45599 50.2045 7.45599C50.2358 7.45714 50.2694 7.40791 50.2803 7.34723C50.2911 7.28598 50.2723 7.24019 50.2381 7.24648C50.2039 7.25221 50.1754 7.21614 50.1754 7.16634C50.1754 7.11482 50.2255 7.06617 50.2871 7.05529C50.3481 7.04384 50.4085 7.00205 50.4205 6.96256C50.4547 6.84864 51.5616 6.9368 51.6295 7.05872C51.6597 7.11196 51.6694 7.17436 51.6505 7.19725C51.6323 7.22015 51.6847 7.24477 51.7685 7.25163C51.8187 7.25621 51.8438 7.27224 51.87 7.28884V3.22972C51.227 3.21656 50.8896 3.19938 49.423 3.20683ZM45.1765 5.0306C45.2432 5.01858 45.2814 5.03918 45.262 5.07639C45.2147 5.16397 45.0568 5.1926 45.0568 5.11303C45.0568 5.07925 45.1109 5.04205 45.1765 5.0306ZM50.5373 5.22522C50.5818 5.22923 50.6485 5.25842 50.7596 5.31681C50.9033 5.39123 51.0863 5.44275 51.1666 5.43073C51.3239 5.40783 51.581 5.45935 51.4858 5.49541C51.4539 5.50743 51.5058 5.52003 51.6015 5.52403C51.7942 5.53319 51.8301 5.65627 51.6773 5.78506C51.5536 5.88982 51.1666 5.78106 51.1666 5.64195C51.1666 5.50839 51.0783 5.5435 50.9016 5.74728C50.8166 5.8446 50.6781 5.93676 50.5932 5.95164C50.5083 5.96652 50.3555 6.01175 50.2546 6.05239C50.0984 6.11478 50.0557 6.10391 49.9719 5.9837C49.7895 5.72438 49.9776 5.25098 50.1976 5.26816C50.2328 5.27107 50.2663 5.28487 50.2934 5.30765C50.3886 5.3815 50.4045 5.37921 50.4496 5.28647C50.4712 5.24182 50.4929 5.22122 50.5373 5.22522ZM49.769 5.49255C49.8009 5.48683 49.8283 5.56468 49.8283 5.666C49.8283 5.76675 49.8009 5.8549 49.769 5.86062C49.7371 5.86635 49.7114 5.7885 49.7114 5.68718C49.7114 5.58643 49.7371 5.49827 49.769 5.49255ZM50.4137 6.19664C50.4729 6.20809 50.5248 6.29052 50.4895 6.35692C50.4735 6.38669 50.5088 6.40272 50.5687 6.39127C50.7055 6.36723 50.8166 6.46168 50.8166 6.60421C50.8166 6.68893 50.7733 6.71927 50.6274 6.74045C50.5312 6.75447 50.4339 6.76021 50.3367 6.75763C50.2267 6.74618 50.1959 6.64142 50.2979 6.6231C50.3367 6.61623 50.347 6.54697 50.3236 6.4405C50.3008 6.33574 50.3122 6.24759 50.3549 6.21267C50.3629 6.20573 50.3723 6.20073 50.3825 6.19804C50.3927 6.19536 50.4033 6.19451 50.4137 6.19664ZM40.9043 6.4737C40.9893 6.45023 41.0503 6.48629 41.0753 6.58647C41.1306 6.80685 41.0195 6.96771 40.6438 7.21271C40.4404 7.34551 40.2209 7.54586 40.1138 7.69928L39.8156 8.1286C39.7518 8.22019 39.6196 8.48866 39.5215 8.72679C39.3203 9.21622 39.3237 9.49156 39.5329 9.68848C39.5985 9.75145 39.6327 9.82358 39.6047 9.84704C39.5386 9.902 39.2046 9.95123 39.1362 9.91574C39.1071 9.90143 39.0655 9.81728 39.0439 9.72855C39.0176 9.62017 38.9661 9.57323 38.8894 9.58773C38.8045 9.60262 38.7731 9.56655 38.7731 9.45092C38.7731 9.36219 38.7993 9.30609 38.8324 9.32155C38.8877 9.34845 38.9139 9.26259 38.8934 9.10689C38.8877 9.06281 38.9299 8.94546 38.9869 8.84529C39.0439 8.74511 39.0838 8.63234 39.0764 8.59456C39.0684 8.55735 39.118 8.41711 39.1864 8.28259C39.2565 8.1452 39.2975 7.98778 39.2798 7.92024C39.2597 7.84086 39.2816 7.78285 39.3454 7.74622C39.399 7.71588 39.5637 7.53842 39.7108 7.35238C39.9388 7.06502 40.0106 7.01064 40.1907 6.98374C40.3549 6.95912 40.4461 6.89959 40.5948 6.72042C40.7111 6.58132 40.8194 6.4966 40.9043 6.4737ZM35.0094 6.85322C35.1105 6.84003 35.213 6.86513 35.2967 6.92363L35.4204 7.02323L35.2841 7.20069C35.153 7.37185 34.9467 7.48118 35.0219 7.34093C35.0413 7.30373 35.0083 7.28197 34.9478 7.29285C34.8606 7.30831 34.8378 7.26823 34.8435 7.09708C34.847 6.90417 34.864 6.87955 35.0094 6.85322ZM34.5255 6.9574C34.5996 6.95511 34.6435 6.96198 34.6435 6.97973C34.6432 6.99657 34.6372 7.01281 34.6266 7.02581C34.6159 7.03881 34.6012 7.04779 34.5847 7.05128C34.5528 7.05701 34.5266 7.10166 34.5266 7.15089C34.5266 7.20012 34.4821 7.40161 34.4274 7.59796C34.322 7.97748 34.2029 8.07651 34.1424 7.83494C34.1225 7.7548 34.0735 7.6947 34.0324 7.70214C33.9372 7.71931 33.8711 7.47145 33.9532 7.40333C33.992 7.37127 33.9942 7.34723 33.9589 7.33979C33.9275 7.33292 33.8831 7.26823 33.8608 7.19668C33.8209 7.07017 33.8323 7.06388 34.2313 6.99175C34.3493 6.97114 34.4519 6.95969 34.5255 6.9574ZM46.3701 7.28484C46.3739 7.27072 46.3564 7.27491 46.3176 7.29743C46.2589 7.33006 46.1865 7.36097 46.1575 7.36612C46.1278 7.37185 46.1039 7.41649 46.1039 7.46687C46.1039 7.58708 46.1181 7.58193 46.284 7.39531C46.3169 7.36214 46.3462 7.32504 46.3701 7.28484ZM42.8657 9.09143C42.8499 9.12824 42.8398 9.16722 42.8355 9.20706C42.8138 9.32155 42.8213 9.36162 42.8583 9.3164C42.8912 9.26271 42.9034 9.19875 42.8925 9.13665C42.8841 9.09582 42.8752 9.08075 42.8657 9.09143ZM41.5975 9.27404C41.5764 9.2998 41.5673 9.42631 41.5667 9.66158C41.5655 10.1218 41.6493 10.3491 41.7502 10.1619C41.7787 10.1092 41.7605 10.076 41.7023 10.0732C41.6248 10.0697 41.6151 10.0079 41.6436 9.71539C41.6624 9.52133 41.6522 9.32613 41.622 9.28148C41.6129 9.26812 41.6047 9.26564 41.5975 9.27404ZM41.6812 10.3743C41.6493 10.38 41.6231 10.4372 41.6231 10.5025C41.6231 10.5677 41.5975 10.6439 41.5655 10.6702C41.5074 10.7183 41.4829 10.8992 41.5353 10.8894C41.5507 10.8866 41.602 10.7961 41.651 10.6879C41.7542 10.4601 41.7633 10.3594 41.6812 10.3743ZM38.4984 10.4189C38.5257 10.4143 38.5554 10.4332 38.6067 10.4721C38.7093 10.5523 38.7093 10.5654 38.6181 10.6868C38.5189 10.8208 38.4151 10.8671 38.3468 10.8076C38.2812 10.7503 38.3029 10.625 38.4015 10.5042C38.4448 10.4504 38.471 10.4235 38.4984 10.4189ZM41.4151 10.9473C41.3865 10.9495 41.3587 10.957 41.333 10.9696C41.2691 10.9982 41.2161 11.0326 41.2161 11.0451C41.2161 11.0577 41.2686 11.0589 41.333 11.0474C41.3974 11.036 41.4487 11.0016 41.4487 10.9719C41.4479 10.9562 41.4367 10.948 41.4151 10.9473ZM51.7064 11.3474C51.6745 11.3445 51.6198 11.3611 51.5297 11.3955C51.4094 11.4413 51.1774 11.4991 51.0139 11.5248C50.7186 11.5718 50.7146 11.5758 50.4085 12.0103C50.2387 12.2507 50.0198 12.5369 49.9206 12.6462C49.7878 12.7934 49.7667 12.8414 49.8385 12.8294C49.9071 12.8258 49.9744 12.8487 50.0266 12.8935C50.0768 12.9376 50.119 12.9439 50.119 12.9078C50.119 12.8105 50.3264 12.7916 50.4097 12.8821C50.5049 12.9863 50.665 12.9576 50.6206 12.8443C50.6012 12.7939 50.6206 12.7527 50.6662 12.7447C50.7591 12.7281 50.8155 12.905 50.8155 13.2152C50.8155 13.3377 50.8565 13.5472 50.905 13.6829C51.003 13.9588 50.9837 14.0315 50.8377 13.9308C50.7477 13.8684 50.7425 13.8878 50.7756 14.1804C50.7961 14.3601 50.7893 14.4883 50.7602 14.4746C50.7317 14.4609 50.6907 14.4832 50.669 14.5238C50.6052 14.6435 50.8776 14.857 51.0082 14.7894C51.088 14.7488 51.1091 14.7562 51.0783 14.814C51.0538 14.8598 51.0697 14.9136 51.1125 14.9343C51.1712 14.9612 51.1524 14.9921 51.0384 15.0579C50.9546 15.1066 50.8679 15.1821 50.8457 15.2245C50.8218 15.2691 50.7431 15.2966 50.6599 15.2897C50.5299 15.2783 50.5208 15.2897 50.563 15.4088C50.628 15.5931 50.6143 15.8553 50.5163 16.2262C50.4478 16.4867 50.4022 16.5594 50.2615 16.6287C50.153 16.6835 50.047 16.7433 49.944 16.8078C49.8642 16.8593 49.7724 16.9097 49.7405 16.9223C49.5541 16.9876 49.3033 17.1965 49.2491 17.331C49.179 17.5062 49.0713 17.4959 49.0713 17.3139C49.0713 17.2486 49.0451 17.1994 49.0132 17.2051C48.8969 17.2257 48.959 17.0814 49.1728 16.837C49.3278 16.6584 49.4452 16.576 49.5809 16.5519C49.7274 16.525 49.7878 16.4798 49.8385 16.3527C49.8813 16.2463 49.9508 16.1793 50.038 16.1638C50.2181 16.1312 50.3002 15.9326 50.3002 15.5284C50.3002 15.2737 50.3281 15.1621 50.4159 15.0602C50.5151 14.9457 50.5368 14.8198 50.563 14.1786C50.5841 13.6617 50.5744 13.4333 50.5305 13.4413C50.4963 13.4471 50.4672 13.5501 50.4672 13.6692C50.4672 13.9754 50.3156 14.3275 49.9149 14.9514C49.6898 15.3029 49.5062 15.4494 49.3386 15.4111C49.2526 15.3922 49.0707 15.5943 49.0707 15.7099C49.0707 15.7471 49.004 15.845 48.9225 15.9274L48.7726 16.0774L48.8963 16.2331C48.9799 16.3365 49.0153 16.4573 49.0023 16.5955C48.9864 16.7706 48.9516 16.8176 48.7663 16.9183L48.548 17.0368L48.5401 16.8124C48.5347 16.7113 48.5347 16.6101 48.5401 16.509C48.5458 16.4661 48.5121 16.4541 48.466 16.4815C48.3474 16.5502 48.295 16.4397 48.3696 16.28C48.4238 16.165 48.4152 16.1484 48.3121 16.1673C48.2459 16.1787 48.1268 16.2451 48.047 16.315C47.8675 16.4712 47.8259 16.4409 47.9034 16.2131L47.9621 16.0373L47.7341 16.2508C47.5232 16.4483 47.5135 16.4712 47.5984 16.5548C47.6566 16.6121 47.7136 16.6212 47.754 16.5783C47.831 16.4981 48.1382 16.4947 48.1382 16.5743C48.1382 16.6046 48.0903 16.6567 48.0345 16.6888C47.9586 16.7395 47.8898 16.8001 47.8298 16.8691C47.7295 16.9853 47.7312 17.0025 47.8942 17.2652C48.0179 17.4638 48.0504 17.5686 48.0111 17.6499C47.9775 17.7209 47.9797 17.7581 48.0168 17.7512C48.1644 17.7249 47.7044 18.5869 47.428 18.856C47.3225 18.9585 47.078 19.1159 46.8848 19.2069C46.5781 19.3517 46.5325 19.3929 46.5217 19.5326C46.4989 19.824 46.2584 20.0226 46.178 19.8165C46.154 19.7553 46.1882 19.6717 46.2749 19.583C46.349 19.5063 46.3934 19.4307 46.3746 19.4141C46.3097 19.3569 46.0725 19.5028 45.9962 19.6465C45.9277 19.7753 45.9437 19.8114 46.1569 20.0163C46.3598 20.2127 46.3929 20.2819 46.3929 20.5218C46.3929 20.7668 46.3729 20.8126 46.2321 20.903C46.1407 20.9632 46.0607 21.0394 45.9962 21.128C45.8936 21.2917 45.7528 21.3083 45.7528 21.1566C45.7528 21.0879 45.7146 21.0421 45.6644 21.0507C45.6391 21.0543 45.6133 21.0495 45.5909 21.037C45.5686 21.0245 45.5509 21.005 45.5407 20.9814C45.5225 20.9339 45.4706 20.9013 45.4267 20.9099C45.3817 20.9179 45.3463 20.8818 45.3463 20.8315C45.3463 20.7811 45.319 20.7456 45.2871 20.7513C45.2204 20.7628 45.209 21.3152 45.274 21.3982C45.2968 21.4285 45.3857 21.4857 45.4695 21.527C45.5151 21.5526 45.5549 21.5874 45.5866 21.6291C45.6183 21.6709 45.6411 21.7187 45.6536 21.7697C45.6707 21.8613 45.7032 21.9941 45.726 22.0656C45.759 22.1709 45.7448 22.2001 45.6519 22.2167C45.4786 22.2477 45.246 22.0267 45.1759 21.7651C45.1417 21.6369 45.0733 21.5052 45.0254 21.472C44.9667 21.4319 44.9411 21.306 44.9468 21.0845C44.9513 20.8612 44.9251 20.7313 44.863 20.6775C44.806 20.6233 44.7621 20.5567 44.7347 20.4828C44.6948 20.358 44.6179 20.3443 44.5603 20.4525C44.5404 20.4897 44.4731 20.5298 44.411 20.5407C44.3232 20.5567 44.2987 20.5178 44.2987 20.3678C44.2901 20.2373 44.2431 20.1124 44.1636 20.0089C44.0942 19.9258 44.0352 19.8345 43.988 19.737C43.9578 19.6568 43.9293 19.65 43.8723 19.7101C43.8307 19.7541 43.7127 19.8108 43.6101 19.8377C43.5075 19.864 43.4266 19.9201 43.4266 19.9631C43.4266 20.0054 43.3468 20.0982 43.251 20.1674C43.1553 20.2367 43.0772 20.3157 43.0772 20.3443C43.0772 20.3729 42.9484 20.5126 42.7922 20.6534C42.5129 20.9042 42.5083 20.919 42.514 21.2144C42.5169 21.4193 42.5516 21.5453 42.6229 21.6077C42.8224 21.7817 42.7397 22.1864 42.4963 22.2305C42.4131 22.2454 42.3744 21.9477 42.4405 21.8052C42.542 21.5876 42.4576 21.5939 42.298 21.8155C42.1703 21.9929 42.1441 22.0078 42.0728 21.9397C41.9281 21.8012 41.5011 20.7588 41.492 20.5218C41.484 20.3157 41.4692 20.2968 41.3472 20.3432C41.2093 20.3953 40.9824 20.2768 40.9824 20.1508C40.9813 20.1142 40.9129 20.0278 40.8297 19.9596C40.6946 19.8486 40.6245 19.8446 40.1616 19.9178C39.8504 19.9677 39.6087 19.9768 39.5574 19.9407C39.4868 19.8915 39.4702 19.899 39.4702 19.9808C39.4702 20.0358 39.562 20.1102 39.6743 20.1462C39.9114 20.223 39.9445 20.413 39.7609 20.6391C39.6971 20.7181 39.6452 20.8017 39.6452 20.8257C39.6452 20.9082 39.2673 21.2779 39.1641 21.2968C39.1077 21.3066 39.0171 21.3781 38.9624 21.4554C38.9076 21.5327 38.8369 21.6014 38.8033 21.6077C38.7703 21.6134 38.6756 21.6678 38.593 21.7279C38.4398 21.8292 38.2807 21.9212 38.1165 22.0032C37.8332 22.148 37.7984 22.1818 37.8526 22.2637C37.9084 22.3473 37.9495 22.3444 38.2134 22.2322C38.377 22.1635 38.5679 22.0771 38.6375 22.041C39.0023 21.8538 38.6061 22.934 38.1096 23.4801L37.8149 23.8052L37.7192 23.8837L37.5755 24.0783C37.3264 24.4137 37.2598 24.6061 37.2894 24.9089C37.3048 25.064 37.3367 25.2197 37.3606 25.2546C37.3846 25.2896 37.4085 25.4893 37.4142 25.6994C37.4228 26.0412 37.4074 26.0961 37.2751 26.2295C37.1936 26.3113 37.099 26.384 37.0631 26.3915C37.0278 26.3989 36.9263 26.4962 36.8374 26.6073C36.712 26.7647 36.6858 26.8363 36.7228 26.9347C36.8038 27.1517 36.7393 27.4671 36.5934 27.5633C36.5153 27.6148 36.4475 27.7293 36.4264 27.8426C36.3865 28.063 35.9693 28.7722 35.7618 28.9743C35.6375 29.0957 34.9752 29.3533 34.672 29.399C34.5289 29.4208 34.3949 29.2617 34.4303 29.1117C34.4582 28.9943 34.2804 28.5816 34.1396 28.4385C34.0951 28.3927 34.0227 28.1712 33.9805 27.9462C33.9047 27.5427 33.7668 27.2078 33.6534 27.154C33.5257 27.0939 33.6306 26.4796 33.8113 26.2261C33.8364 26.1914 33.8534 26.1514 33.8611 26.1092C33.8688 26.067 33.867 26.0236 33.8557 25.9822C33.8304 25.8992 33.8113 25.8145 33.7987 25.7286C33.7691 25.4922 33.6505 25.2667 33.4476 25.0669C33.3364 24.9575 33.2447 24.8276 33.2447 24.7772C33.2447 24.7726 33.2361 24.7715 33.2361 24.7681L33.2481 24.7646L33.2903 24.6158L33.3302 24.3857C33.3769 24.1172 33.2988 24.0439 33.0611 24.1321C32.9426 24.1756 32.8833 24.1584 32.8115 24.056C32.7015 23.8985 32.535 23.914 32.2187 24.1121C32.0944 24.1893 31.8368 24.2895 31.6453 24.333C31.4913 24.368 31.3376 24.4039 31.1841 24.4406C31.0371 24.4773 30.4534 24.1561 30.3935 24.0056C30.3679 23.9409 30.2528 23.8092 30.1376 23.7136C30.0225 23.6181 29.9296 23.4933 29.9296 23.4343C29.9296 23.4257 29.925 23.4183 29.9239 23.4097V39.7286C29.9906 39.7057 30.0892 39.6404 30.161 39.5683C30.2408 39.4882 30.3474 39.4149 30.3981 39.4052C30.4488 39.3954 30.5264 39.3107 30.5708 39.2151C30.6888 38.9615 30.9761 38.6747 31.1009 38.6868C31.159 38.6925 31.2223 38.669 31.24 38.6353C31.2577 38.6009 31.3557 38.5597 31.4577 38.5414C31.5603 38.5231 31.7359 38.4423 31.8476 38.3639C32.0158 38.2449 32.0471 38.191 32.0334 38.0548C32.0203 37.9231 32.0425 37.8848 32.1372 37.8682C32.2021 37.8567 32.254 37.8831 32.254 37.9272C32.254 37.9712 32.2911 38.0531 32.3361 38.1086C32.4079 38.1985 32.498 38.1968 33.121 38.0874C33.5086 38.0187 33.8261 37.9443 33.8261 37.9197C33.8261 37.8951 33.8939 37.8155 33.9771 37.7428C34.1196 37.6192 34.1333 37.6163 34.1846 37.7039C34.2199 37.764 34.3146 37.7852 34.4536 37.7617C34.5722 37.7423 34.7614 37.7434 34.8737 37.7651C35.1394 37.8167 35.495 37.776 35.5412 37.6879C35.5617 37.6501 35.637 37.6083 35.7094 37.5951C35.7823 37.5825 35.9049 37.4892 35.9824 37.3885C36.0896 37.2494 36.1614 37.207 36.2828 37.211C36.3706 37.2133 36.4424 37.1967 36.4367 37.1727C36.4008 36.93 36.5267 36.9002 36.7616 37.0983C36.9913 37.2912 37.2221 37.2872 37.2484 37.0891C37.2586 37.0107 37.3379 36.8956 37.4262 36.8315C37.5167 36.7661 37.5977 36.6882 37.6667 36.6003C37.7728 36.4468 38.2265 36.1435 38.2994 36.1778C38.3308 36.1927 38.3804 36.1549 38.4106 36.0925C38.4442 36.0238 38.5018 35.9878 38.5616 36.0009C38.6312 36.0164 38.654 35.9952 38.6414 35.9225C38.6209 35.796 38.9082 35.5893 39.1573 35.5516C39.3745 35.5184 39.6606 35.6489 39.6218 35.7634C39.5825 35.8767 40.1405 35.9294 40.7584 35.8693C41.2138 35.8252 41.2669 35.8332 41.3239 35.9551C41.3797 36.0742 41.4014 36.0776 41.5051 35.9912C41.6106 35.903 41.647 35.9122 41.83 36.0839C42.0033 36.2459 42.054 36.2648 42.1498 36.1933C42.2125 36.1469 42.2478 36.0822 42.2279 36.0513C42.1766 35.9734 42.4165 35.6763 42.5944 35.5974C42.6748 35.5619 42.7249 35.5184 42.7055 35.5012C42.6862 35.484 42.6993 35.4279 42.7357 35.3752C42.7853 35.3025 42.7836 35.2453 42.7266 35.1434C42.6679 35.0346 42.6679 34.986 42.7266 34.9007C42.791 34.8074 42.8116 34.8074 42.8959 34.8961C43.0196 35.0266 43.1769 35.0192 43.4158 34.8715C43.593 34.7627 43.6141 34.7616 43.6928 34.8658C43.7669 34.9648 43.8182 34.9671 44.0827 34.8887C44.4514 34.7788 44.5324 34.7044 44.5324 34.4748C44.5324 34.3271 44.5569 34.2945 44.6806 34.2727C44.7615 34.2579 44.8408 34.2825 44.8584 34.3271C44.9097 34.4588 45.0648 34.4588 45.1805 34.3283C45.2643 34.2332 45.3047 34.2212 45.3709 34.267C45.4364 34.3128 45.4655 34.3025 45.5042 34.2224C45.5704 34.0856 45.7778 34.1096 45.8673 34.2636C45.9055 34.3294 46.0246 34.4118 46.1324 34.4456C46.3216 34.5063 46.3342 34.5017 46.573 34.2905C46.8665 34.03 46.9247 34.0146 47.0239 34.1646C47.066 34.2275 47.1362 34.2561 47.1818 34.2298C47.2069 34.2174 47.235 34.2125 47.2629 34.2155C47.2907 34.2186 47.3171 34.2295 47.3391 34.247C47.4331 34.3288 47.6611 34.3523 47.7677 34.2905C47.8122 34.2642 47.8486 34.1634 47.8486 34.0655C47.8486 33.8554 47.9188 33.8257 48.0333 33.9877C48.0994 34.0798 48.1399 34.0878 48.2237 34.0232C48.3514 33.9258 48.7185 33.9596 48.7629 34.0735C48.8142 34.2052 48.9448 34.1256 48.9824 33.9396C49.0166 33.7656 49.0285 33.7576 49.2959 33.7369C49.5626 33.7163 49.5786 33.7066 49.6499 33.5126C49.692 33.3981 49.7399 33.3414 49.7752 33.3408C49.8077 33.3425 49.8288 33.4009 49.8083 33.5183C49.7867 33.6408 49.8117 33.6797 49.9331 33.7072C50.1058 33.745 50.4986 33.7661 50.84 33.7547C51.1273 33.7455 51.1792 33.7701 51.1375 33.8921C51.1147 33.9579 51.1609 34.0008 51.2789 34.0266C51.3747 34.0472 51.4533 34.0861 51.4533 34.1125C51.4533 34.1388 51.6095 34.1331 51.7999 34.0993C51.8318 34.0936 51.8415 34.0964 51.8689 34.0924V26.2392C51.7691 26.4739 51.6887 26.7012 51.6887 26.7636C51.6887 26.8471 51.6517 26.8987 51.5804 26.9113C51.5206 26.9221 51.4049 26.9971 51.3234 27.079C51.1581 27.2461 51.1444 27.2524 51.0828 27.1992C51.0589 27.178 50.9227 27.1786 50.7802 27.1998C50.4957 27.2427 50.3099 27.1448 50.2814 26.9382C50.2683 26.8426 50.2016 26.8054 50.0209 26.7916C49.7838 26.7744 49.6812 26.7321 49.6812 26.6497C49.6806 26.5466 49.4908 26.3909 49.3329 26.3623C49.1004 26.3211 48.3143 26.6273 48.3143 26.7596C48.3143 26.7847 48.1946 26.8454 48.0481 26.8924C47.9017 26.9393 47.709 27.036 47.6206 27.107C47.4804 27.2192 47.4371 27.2295 47.2923 27.182C47.1373 27.1316 47.1253 27.1007 47.1196 26.7607C47.1156 26.5277 47.0706 26.3108 46.9959 26.1648C46.911 25.9977 46.8825 25.8385 46.8945 25.5855C46.9133 25.1922 46.9458 25.1001 47.0564 25.1247C47.098 25.1344 47.1652 25.0926 47.2063 25.0331C47.2473 24.9736 47.3214 24.9175 47.3699 24.9089C47.4183 24.9003 47.5579 24.8436 47.6816 24.783C47.8583 24.6954 47.9267 24.6169 48.0037 24.4217C48.0573 24.2844 48.1222 24.1813 48.1473 24.1933C48.1724 24.2054 48.2642 24.1189 48.3508 24.001C48.5059 23.7904 48.7373 23.6862 48.8085 23.7944C48.8672 23.8842 48.9197 23.8459 49.0246 23.6335C49.0787 23.5225 49.1659 23.4246 49.2172 23.4154C49.2742 23.4051 49.2925 23.3731 49.2685 23.3358C49.2389 23.2912 49.2759 23.2763 49.3962 23.2866C49.514 23.2946 49.6323 23.2922 49.7496 23.2792C49.9964 23.2483 50.0255 23.2883 49.9229 23.5162C49.8362 23.7085 49.8362 23.7096 50.0956 23.8281C50.2381 23.8934 50.3772 23.9426 50.4034 23.9375C50.4621 23.9272 50.5254 23.6112 50.5254 23.3307C50.5254 23.2191 50.5693 23.0737 50.6228 23.0073C50.6453 22.9783 50.6639 22.9582 50.6787 22.9472C50.6901 22.9388 50.7002 22.9361 50.7089 22.9391C50.7363 22.9483 50.7579 23.0136 50.799 23.155C50.8446 23.3118 50.9118 23.4171 50.9603 23.4085C51.0344 23.3954 51.1643 23.7108 51.1643 23.9048C51.1643 23.9449 51.243 24.0125 51.3388 24.0548C51.4351 24.0972 51.5137 24.1504 51.5137 24.1733C51.5137 24.1962 51.5793 24.2683 51.6585 24.3336C51.7383 24.3983 51.8039 24.4767 51.8045 24.5088C51.8045 24.5225 51.8483 24.5637 51.8689 24.5929V22.1372C51.7937 22.1883 51.7079 22.2216 51.6181 22.2345C51.316 22.2642 51.2989 22.389 51.5736 22.5722C51.6996 22.6564 51.7891 22.7497 51.7731 22.7806C51.7184 22.883 51.3718 22.8292 51.1786 22.6873C50.9517 22.5213 50.8993 22.5224 50.8166 22.6999C50.7437 22.8561 50.5134 22.9174 50.4119 22.8058C50.3644 22.7554 50.2846 22.7516 50.1725 22.7943C49.9844 22.8682 49.9696 22.8453 50.0745 22.6495C50.1281 22.5465 50.1281 22.5041 50.0745 22.4572C49.9993 22.3919 49.6139 22.3055 49.4885 22.3266C49.4008 22.341 49.309 22.262 49.1967 22.0759C49.1317 21.9672 49.1317 21.9357 49.1967 21.8801C49.2309 21.8733 49.2862 21.8527 49.346 21.8366C49.4017 21.8185 49.4615 21.8113 49.5199 21.8155L49.5256 21.8143C49.5661 21.816 49.6248 21.8824 49.6555 21.9632L49.7125 22.1097L49.875 21.9597L50.0363 21.8074L50.4997 21.8801C50.7676 21.9219 51.0207 22.0061 51.0994 22.0782C51.2088 22.1784 51.2704 22.1887 51.4111 22.1309C51.508 22.0908 51.6203 22.0479 51.6597 22.0347C51.6996 22.0215 51.7765 21.9557 51.8307 21.8882C51.8461 21.8693 51.8552 21.871 51.8689 21.8567V11.4636C51.7873 11.4853 51.7475 11.4773 51.7475 11.4132C51.7475 11.3714 51.7383 11.3503 51.7064 11.3474ZM36.1209 13.5736C36.0667 13.5833 36.0656 13.6182 36.1152 13.7201C36.1722 13.838 36.3301 13.8421 36.3301 13.7258C36.3301 13.6572 36.1967 13.5598 36.1209 13.5736ZM51.7258 14.2805C51.7378 14.2834 51.7469 14.2943 51.7469 14.3137C51.7469 14.3469 51.7064 14.3973 51.6557 14.4271C51.5987 14.4597 51.5725 14.4517 51.5867 14.4042C51.6084 14.3321 51.6876 14.2719 51.7258 14.2805ZM51.4653 14.4368C51.5576 14.4202 51.4915 14.5662 51.3507 14.6898C51.2766 14.7545 51.2236 14.7751 51.2236 14.7379C51.2236 14.6555 51.3884 14.4505 51.4653 14.4368ZM35.1604 14.573C35.1522 14.5692 35.1431 14.568 35.1342 14.5694C35.1252 14.5708 35.1169 14.5749 35.1103 14.5811C35.0738 14.6114 35.0789 14.6681 35.1245 14.7368C35.2021 14.8518 35.2579 14.7665 35.2015 14.6211C35.1943 14.6007 35.1796 14.5831 35.1604 14.573ZM34.5557 14.7127C34.66 14.6938 34.6708 14.8232 34.5733 14.9428C34.4742 15.0653 34.3915 15.0659 34.4331 14.944C34.4525 14.8867 34.469 14.8152 34.469 14.7837C34.469 14.7534 34.5078 14.7207 34.5557 14.7127ZM39.9308 16.4712C39.8931 16.4783 39.8578 16.4949 39.8282 16.5193C39.6794 16.6304 39.6646 16.8399 39.8054 16.8479C39.9285 16.8548 39.9097 16.8719 39.9838 16.7071C40.0522 16.5577 40.0174 16.4609 39.9308 16.4712ZM38.9373 16.5027C38.8871 16.4907 38.8348 16.4915 38.7851 16.505C38.6072 16.5451 38.3359 16.7609 38.284 16.904C38.235 17.0391 38.3524 17.3339 38.5423 17.5526C38.6426 17.6682 38.6984 17.7678 38.6648 17.7735C38.6312 17.7792 38.5736 17.8485 38.5366 17.9269C38.4796 18.0494 38.4938 18.0849 38.6369 18.1828C38.7281 18.2458 38.8364 18.2767 38.8797 18.2532C38.9211 18.2303 38.9651 18.2126 39.0108 18.2006C39.0906 18.1868 39.0752 17.9275 38.988 17.805C38.9453 17.746 38.9059 17.6109 38.8997 17.5045C38.8928 17.3854 38.821 17.244 38.7138 17.1398C38.5998 17.0282 38.5633 16.9561 38.6112 16.9309C38.6701 16.8927 38.7228 16.8455 38.7674 16.7912C38.7957 16.7608 38.8297 16.7364 38.8675 16.7193C38.9053 16.7022 38.946 16.6928 38.9874 16.6916C39.1174 16.6945 39.1214 16.687 39.0433 16.5794C39.0179 16.5423 38.9804 16.5152 38.9373 16.5027ZM36.936 16.8805C36.9001 16.8829 36.865 16.8926 36.8329 16.9089C36.8008 16.9252 36.7722 16.9479 36.749 16.9755C36.6607 17.0843 36.6658 17.09 36.8089 17.0648C36.8944 17.0494 36.9799 17.0065 36.9993 16.9687C37.0318 16.908 36.9936 16.8788 36.936 16.8805ZM36.2714 17.0837C36.2087 17.0855 36.1317 17.1124 36.0975 17.161C36.0633 17.2097 35.9738 17.39 35.898 17.56C35.7783 17.8313 35.7715 17.88 35.8462 17.9447C35.9533 18.0386 36.1522 18.0008 36.2982 17.8588C36.4441 17.7163 36.7046 17.6711 36.8157 17.7684C36.9143 17.8542 37.3031 17.8021 37.4359 17.6854C37.5083 17.6213 37.4883 17.5835 37.319 17.4621C36.9941 17.228 36.8117 17.1816 36.6499 17.2887C36.5398 17.3608 36.4925 17.3619 36.4173 17.2961C36.3654 17.2509 36.3375 17.1862 36.3546 17.153C36.3808 17.1043 36.3335 17.0814 36.2714 17.0837ZM39.0233 17.4255C39.0127 17.4331 39.007 17.4461 39.0062 17.4644C39.0062 17.5005 39.0325 17.5239 39.0644 17.5182C39.0963 17.5125 39.1225 17.4965 39.1225 17.4816C39.1225 17.4667 39.0963 17.4415 39.0644 17.4266C39.0477 17.419 39.034 17.4186 39.0233 17.4255ZM33.8443 17.6001C33.8346 17.6029 33.8221 17.6316 33.7999 17.6905C33.7683 17.7733 33.7801 17.8321 33.8352 17.8668C33.8808 17.896 33.964 17.9882 34.021 18.0718C34.078 18.1553 34.1498 18.2034 34.1806 18.1777C34.2114 18.1525 34.2519 18.1702 34.2707 18.2177C34.2895 18.2664 34.3528 18.3133 34.4109 18.3219C34.5175 18.3391 34.6133 18.4913 34.5591 18.5577C34.5431 18.5778 34.4867 18.5635 34.4337 18.5268C34.3465 18.4667 34.3408 18.4713 34.3767 18.5847C34.4052 18.674 34.3813 18.7564 34.2969 18.8594C34.2313 18.9407 34.1783 19.0329 34.1783 19.0644C34.1783 19.18 34.0615 19.2132 33.8854 19.1496C33.6745 19.0724 33.6859 18.943 33.9064 18.8989C34.1704 18.8474 34.2279 18.7123 34.0478 18.5692C33.9623 18.5005 33.8677 18.4496 33.8375 18.4547C33.7748 18.4662 33.4499 18.1473 33.4066 18.0328C33.3838 17.9716 33.3279 17.9928 33.1501 18.1284C32.9848 18.2544 32.8947 18.2904 32.8223 18.2607C32.6981 18.2097 32.6074 18.2801 32.6074 18.4272C32.6074 18.4885 32.5162 18.6276 32.4039 18.7381C32.2751 18.864 32.1999 18.9911 32.1999 19.0804C32.1999 19.2882 31.9565 19.5761 31.7268 19.6402C31.619 19.6706 31.5307 19.7227 31.5307 19.7564C31.5307 19.8663 31.9143 19.773 32.1121 19.6145C32.3013 19.4628 33.3535 19.1302 33.5234 19.168C33.6118 19.1886 33.6209 19.5732 33.5348 19.6448C33.4413 19.7227 33.6568 19.8297 33.8432 19.7994C33.9426 19.7877 34.0427 19.8152 34.1225 19.8761C34.3163 20.0455 34.6435 20.0942 34.6435 19.9533C34.6435 19.7455 34.994 19.5097 35.1399 19.6202C35.1707 19.6431 35.3451 19.6843 35.5264 19.7095C35.7761 19.745 35.9054 19.7312 36.0588 19.6591C36.1716 19.6059 36.2833 19.5847 36.3113 19.6087C36.3974 19.6843 36.6276 19.5378 36.6841 19.3717C36.7137 19.2847 36.7376 19.1027 36.7376 18.9682C36.7376 18.7415 36.7274 18.7283 36.6065 18.793C36.5341 18.8308 36.423 18.8669 36.3592 18.872C36.2953 18.8772 36.1739 18.8949 36.0884 18.9104C35.8604 18.9504 35.6324 18.8852 35.6324 18.7787C35.6324 18.7272 35.6039 18.6906 35.5674 18.6968C35.5332 18.7031 35.5161 18.6516 35.5332 18.5806C35.5498 18.5102 35.5418 18.4559 35.5156 18.4604C35.4893 18.465 35.4831 18.4112 35.4996 18.3414C35.5235 18.2423 35.5013 18.2183 35.4027 18.236C35.3326 18.2486 35.2927 18.2824 35.3126 18.3133C35.3326 18.3437 35.3081 18.3923 35.2579 18.4221C35.1502 18.4845 35.1365 18.6304 35.2368 18.6476C35.3315 18.6637 35.169 19.0449 35.0601 19.0632C34.9655 19.0792 34.8162 18.9041 34.8162 18.7736C34.8156 18.7215 34.7643 18.6179 34.7016 18.5446C34.6389 18.4719 34.587 18.3517 34.587 18.2773C34.5859 18.1876 34.4979 18.0952 34.3231 18.0002C34.1789 17.9218 34.0609 17.8187 34.0609 17.7712C34.0609 17.7214 34.0273 17.7043 33.98 17.7317C33.9315 17.7604 33.8871 17.7357 33.8717 17.6728C33.8603 17.623 33.8534 17.5995 33.8443 17.6001ZM33.3211 18.1925C33.4493 18.1427 33.4579 18.8623 33.3302 18.9367C33.2817 18.9653 33.2293 18.9539 33.2133 18.9127C33.1518 18.7552 33.231 18.2275 33.3211 18.1925ZM47.9495 18.4541C47.9706 18.4484 47.9826 18.4679 47.9986 18.5091C48.039 18.6133 47.9222 19.054 47.8504 19.0666C47.8241 19.0712 47.7877 19.0352 47.7683 18.9854C47.705 18.8228 47.7312 18.6808 47.8481 18.548C47.8994 18.4896 47.929 18.4593 47.9495 18.4541ZM32.5852 18.8319C32.6051 18.8297 32.6217 18.8325 32.6297 18.8451C32.6724 18.9109 32.5852 19.0312 32.5048 19.0168C32.4649 19.0088 32.4324 18.9802 32.4324 18.9527C32.4324 18.9012 32.5248 18.8394 32.5852 18.8319ZM47.8526 19.4513C47.8701 19.4498 47.8931 19.4513 47.9216 19.4559C48.0789 19.4788 48.0595 19.4616 48.1051 19.6105C48.1166 19.6477 48.1178 19.6873 48.1088 19.7251C48.0998 19.763 48.0808 19.7977 48.0538 19.8257C47.9227 19.9642 47.9455 20.0157 48.1399 20.026C48.2733 20.0329 48.3138 20.0684 48.3138 20.1795C48.3138 20.3168 48.3064 20.3214 48.1564 20.2665C48.0704 20.235 47.986 20.2275 47.9683 20.251C47.9512 20.2739 47.9695 20.2997 48.01 20.3083C48.0456 20.3136 48.0798 20.3264 48.1102 20.3459C48.1406 20.3654 48.1666 20.3911 48.1865 20.4213C48.2063 20.4516 48.2196 20.4857 48.2254 20.5214C48.2312 20.5572 48.2295 20.5938 48.2203 20.6288C48.1804 20.804 48.2613 20.816 48.3913 20.6557C48.5292 20.4863 48.6449 20.6786 48.6142 21.0221C48.6039 21.1388 48.507 21.2047 48.3577 21.1967C48.3018 21.1938 48.2568 21.1474 48.2568 21.0959C48.2568 21.0261 48.2186 21.0192 48.1108 21.0673C48.0025 21.1148 47.9649 21.1062 47.9649 21.0358C47.9649 20.9831 48.0048 20.919 48.0521 20.8916C48.1285 20.8469 48.1285 20.8269 48.0521 20.7256C48.0038 20.6602 47.9737 20.5832 47.9649 20.5023C47.9649 20.4422 47.9421 20.3975 47.9131 20.4027C47.8333 20.417 47.6605 19.8715 47.7324 19.8337C47.7649 19.8165 47.7916 19.7209 47.7916 19.6202C47.7916 19.4994 47.7996 19.4576 47.8526 19.4513ZM38.5103 19.5252C38.4914 19.5242 38.4727 19.5292 38.4568 19.5395C38.4374 19.5526 38.4243 19.5755 38.4243 19.6082C38.4243 19.654 38.4761 19.7427 38.54 19.8034C38.6038 19.864 38.6568 19.9407 38.6568 19.9751C38.6568 20.0094 38.6967 20.0134 38.7452 19.986C38.8084 19.9488 38.8318 19.9785 38.8318 20.0953C38.8318 20.3174 39.0518 20.2705 39.2616 20.0026L39.4218 19.7965L39.2622 19.8572C39.0684 19.9316 38.7623 19.8228 38.6848 19.6511C38.6696 19.6163 38.6454 19.5863 38.6147 19.5642C38.584 19.542 38.548 19.5285 38.5103 19.5252ZM36.61 20.1749C36.6051 20.1748 36.6003 20.1759 36.5959 20.1778C36.5915 20.1798 36.5875 20.1827 36.5843 20.1863C36.5461 20.2327 36.6829 20.5241 36.9548 20.9786C36.9947 21.0444 37.0266 21.1595 37.0272 21.2333C37.0272 21.3077 37.0546 21.3793 37.0871 21.3947C37.1195 21.4102 37.1834 21.5081 37.2278 21.6123C37.2723 21.717 37.3606 21.8103 37.4245 21.8206C37.4889 21.8303 37.5556 21.8761 37.5738 21.9219C37.6314 22.0776 37.6781 21.9946 37.6371 21.8017C37.5858 21.5584 37.3407 21.1554 37.2295 21.1308C37.1834 21.12 37.1452 21.0427 37.1452 20.9574C37.141 20.8624 37.1013 20.7724 37.034 20.7055C36.9711 20.6494 36.9212 20.58 36.8881 20.5023C36.838 20.3535 36.6806 20.176 36.61 20.1749ZM47.6993 20.5034C47.7888 20.4874 47.7164 20.7158 47.5842 20.8692C47.4075 21.0736 47.2946 21.1142 47.3807 20.9431C47.4633 20.7788 47.6577 20.5109 47.6993 20.5034ZM30.3371 21.1028C30.369 21.0971 30.3964 21.1188 30.3964 21.1509C30.3964 21.1824 30.3696 21.2293 30.3377 21.2556C30.3052 21.2825 30.2795 21.2613 30.2795 21.2087C30.2795 21.1566 30.3052 21.1085 30.3371 21.1028ZM47.33 21.1182L47.526 21.2493L47.7244 21.3798L47.5973 21.5172C47.4759 21.6495 47.4753 21.6603 47.5694 21.816C47.6309 21.9174 47.6446 21.982 47.6035 21.9895C47.5802 21.9935 47.5705 22.0055 47.5705 22.017C47.5688 22.0192 47.4582 22.1475 47.4491 22.1561C47.4268 22.2233 47.4108 22.2925 47.4012 22.3627C47.3909 22.3816 47.3807 22.3948 47.371 22.4142C47.2285 22.7102 47.2296 22.709 46.801 22.7251C46.7212 22.7279 46.61 22.7336 46.5542 22.7382C46.5408 22.7394 46.5274 22.7378 46.5147 22.7334C46.502 22.7291 46.4904 22.7221 46.4806 22.7129C46.4708 22.7037 46.4631 22.6925 46.4579 22.6801C46.4527 22.6677 46.4501 22.6544 46.4504 22.6409C46.4054 22.4881 46.345 22.3547 46.3136 22.1526C46.3182 22.1435 46.3199 22.1377 46.3256 22.128C46.3644 22.0313 46.4248 21.9717 46.4715 21.9826C46.5154 21.9923 46.5844 21.9523 46.6254 21.8933C46.6665 21.8344 46.7349 21.7777 46.7776 21.7702C46.8209 21.7622 46.8848 21.6958 46.919 21.6226C46.9532 21.5493 47.0159 21.4829 47.0598 21.4749C47.1025 21.4674 47.1812 21.3833 47.2342 21.2894L47.33 21.1182ZM30.0886 21.1721C30.1114 21.174 30.1363 21.1814 30.1633 21.1944C30.2322 21.2281 30.2351 21.2545 30.1775 21.3249C30.1251 21.3901 30.1051 21.3953 30.1051 21.3432C30.1051 21.302 30.0652 21.2957 30.0105 21.3272C29.9467 21.3646 29.9239 21.3539 29.9421 21.2951C29.9596 21.2375 29.9877 21.1997 30.0265 21.1818C30.046 21.1726 30.0672 21.1693 30.0886 21.1721ZM47.9051 21.2007C47.9393 21.1949 47.9661 21.2178 47.9661 21.2516C47.9661 21.2854 47.9547 21.3146 47.9404 21.3174C47.9267 21.3197 47.8994 21.2974 47.8794 21.2671C47.8601 21.2367 47.8714 21.2064 47.9051 21.2007ZM48.7612 21.5619C48.8011 21.5504 48.8467 21.5848 48.886 21.6678L48.9527 21.8109C48.9128 21.8658 48.8701 21.9122 48.8387 21.9654C48.833 21.9603 48.6883 21.9826 48.6449 21.8097C48.6604 21.7845 48.6709 21.7565 48.6757 21.7273C48.6888 21.6294 48.7213 21.5733 48.7612 21.5619ZM51.6904 21.6243C51.7218 21.6185 51.748 21.6426 51.748 21.6758C51.7479 21.6926 51.7422 21.7088 51.7317 21.7219C51.7213 21.735 51.7067 21.7442 51.6904 21.7479C51.658 21.7536 51.6323 21.7307 51.6323 21.6975C51.6323 21.6638 51.6585 21.63 51.6904 21.6243ZM51.2573 21.642C51.3068 21.6334 51.3325 21.6563 51.3125 21.6935C51.2932 21.7307 51.2515 21.7662 51.2213 21.772C51.1911 21.7777 51.1672 21.7531 51.1672 21.7193C51.1672 21.6855 51.2071 21.6506 51.2573 21.642ZM48.4392 21.6947C48.4739 21.7033 48.4751 21.7502 48.4249 21.8235C48.4101 21.8441 48.4061 21.8595 48.4004 21.8716L48.238 21.9294C48.1012 21.9832 47.9347 22.0107 47.8504 22.1252C47.8504 22.1561 47.9022 22.1566 47.9661 22.1274C47.9849 22.1189 47.986 22.1137 48.002 22.1045L48.059 22.0874L48.2402 22.0816L48.23 22.0971C48.2112 22.1131 48.1872 22.1263 48.1713 22.144C48.0858 22.2373 48.0459 22.3272 48.0732 22.361C48.0989 22.393 48.1166 22.4738 48.1166 22.5407C48.112 22.6982 47.9267 22.772 47.8908 22.6318C47.8737 22.5642 47.8629 22.5888 47.8572 22.6999C47.8521 22.8304 47.8258 22.8739 47.7489 22.8716C47.693 22.8705 47.6463 22.8144 47.6463 22.748C47.6469 22.684 47.6323 22.6208 47.6035 22.5636C47.5796 22.5287 47.5853 22.4211 47.6178 22.3261C47.6429 22.2522 47.6452 22.2288 47.652 22.1956C47.668 22.1486 47.7375 21.9494 47.7375 21.938L47.7301 21.942C47.764 21.8993 47.8081 21.866 47.8584 21.8453C47.9087 21.8245 47.9634 21.817 48.0174 21.8235C48.1143 21.8281 48.2431 21.7943 48.3046 21.7485C48.3317 21.7277 48.3617 21.7111 48.3936 21.6993C48.4081 21.6936 48.4238 21.692 48.4392 21.6947ZM44.6601 21.8738H44.6623C44.7621 21.8738 44.9086 21.9214 45.0556 22.0112C45.2665 22.1406 45.4222 22.2213 45.5573 22.2746C45.6678 22.4245 45.6827 22.539 45.8514 22.5241C45.9409 22.472 46.1039 22.5728 46.1039 22.6821C46.1039 22.717 46.1426 22.7233 46.1905 22.6953C46.239 22.6672 46.2777 22.6764 46.2777 22.7182C46.2777 22.7663 46.2281 22.7886 46.1329 22.78C46.0024 22.7691 45.987 22.7875 45.987 22.9472C45.987 23.1475 46.109 23.1853 46.5656 23.1258C46.7081 23.1074 46.8335 23.1218 46.8466 23.1584C46.8586 23.1945 46.9184 23.2151 46.98 23.2042C47.0506 23.1916 47.0923 23.2271 47.0923 23.3015C47.0923 23.4028 47.0609 23.4188 46.8454 23.4286C46.7092 23.4349 46.5525 23.4246 46.4989 23.4057C46.4169 23.3843 46.3312 23.3816 46.2481 23.3977C46.1544 23.4118 46.0587 23.4043 45.9682 23.3759C45.7847 23.3061 45.2626 22.863 45.1719 22.7004L45.095 22.5625L45.0186 22.4325V22.428C45.0175 22.4251 45.0083 22.4222 45.0083 22.4194V22.4159C44.9804 22.3742 44.904 22.3249 44.818 22.3026C44.6395 22.2568 44.5341 22.1303 44.5341 21.962C44.5341 21.9277 44.5512 21.9036 44.5797 21.8893C44.6046 21.8776 44.6326 21.8727 44.6601 21.8738ZM49.1192 22.1973C49.164 22.2103 49.1868 22.2373 49.1876 22.2786C49.1876 22.3444 48.5731 22.4961 48.515 22.4446C48.4466 22.385 48.5138 22.3266 48.7418 22.2499C48.8102 22.227 48.8718 22.2106 48.9265 22.2007C48.9898 22.1858 49.0555 22.1846 49.1192 22.1973ZM48.6227 22.9351C48.6797 22.9294 48.7207 22.958 48.7207 23.0279C48.7196 23.0714 48.6193 23.1733 48.4979 23.254C48.2283 23.4326 48.1986 23.44 48.1986 23.3227C48.1986 23.2723 48.2209 23.2271 48.2465 23.2225C48.2722 23.2179 48.3525 23.1458 48.4244 23.0622C48.491 22.9855 48.5646 22.942 48.6227 22.9351ZM48.088 23.1137C48.2847 23.1126 48.1576 23.2076 47.7375 23.3009C47.4115 23.3731 47.3208 23.3753 47.3402 23.3107C47.3573 23.2528 47.4941 23.2036 47.7831 23.1504C47.921 23.1263 48.0227 23.1141 48.088 23.1137ZM36.4241 24.1155C36.3369 24.1315 36.2588 24.2947 36.3153 24.3439C36.3563 24.38 36.5056 24.2323 36.5056 24.1561C36.5056 24.1264 36.4686 24.1075 36.4241 24.1155ZM38.4562 25.3485C38.5046 25.3451 38.5622 25.3743 38.5975 25.4378C38.6716 25.5712 38.6756 25.8065 38.6055 26.0045C38.5759 26.0875 38.4915 26.3966 38.418 26.6914C38.3103 27.1231 38.2567 27.241 38.1467 27.3051C37.9449 27.4219 37.8543 27.4253 37.7961 27.3165C37.6821 27.103 37.6679 26.8912 37.7545 26.6989C37.8018 26.5918 37.8263 26.4642 37.807 26.415C37.7374 26.2375 37.8412 26.0085 38.0486 25.8809C38.1598 25.8116 38.251 25.7126 38.251 25.6605C38.251 25.6084 38.2761 25.5609 38.308 25.5552C38.3399 25.5494 38.3673 25.5031 38.3673 25.4521C38.3673 25.3863 38.4072 25.3519 38.4562 25.3485ZM37.7682 25.3789C37.7796 25.3873 37.7853 25.4046 37.7853 25.4309C37.7853 25.5386 37.75 25.5609 37.6998 25.4848C37.6821 25.4567 37.6935 25.4115 37.726 25.384C37.7427 25.3714 37.7568 25.3701 37.7682 25.3789ZM37.9107 25.4538C37.9328 25.4567 37.9548 25.4661 37.9717 25.4807C38.0595 25.5575 38.0105 25.6181 37.9016 25.5666C37.8543 25.5454 37.8366 25.5036 37.8605 25.4745C37.8719 25.459 37.8908 25.4533 37.9107 25.4538ZM39.2975 26.419C39.3048 26.4174 39.3124 26.4175 39.3197 26.4193C39.327 26.4212 39.3338 26.4246 39.3395 26.4295C39.3452 26.4344 39.3497 26.4405 39.3527 26.4474C39.3557 26.4543 39.3571 26.4618 39.3568 26.4693C39.3565 26.4863 39.3504 26.5026 39.3397 26.5156C39.3289 26.5286 39.314 26.5375 39.2975 26.5409C39.2656 26.5466 39.2399 26.5237 39.2399 26.4905C39.2402 26.4738 39.246 26.4577 39.2564 26.4447C39.2668 26.4318 39.2813 26.4227 39.2975 26.419ZM49.9474 26.5924C49.9306 26.596 49.9155 26.6051 49.9044 26.6182C49.8934 26.6314 49.887 26.6479 49.8864 26.6651C49.8864 26.6983 49.8978 26.7246 49.9115 26.7224C49.9257 26.7195 49.9542 26.6851 49.9742 26.6479C49.9936 26.6107 49.981 26.5861 49.9474 26.5924ZM51.3422 27.4173C51.4516 27.4087 51.4567 27.4459 51.4567 27.5839C51.4567 27.7728 51.3097 28.0017 51.1729 28.0264C51.1341 28.0338 51.0634 27.9508 51.0173 27.842C50.8845 27.5312 50.9021 27.4894 51.194 27.4385C51.243 27.4292 51.2925 27.4222 51.3422 27.4173ZM29.925 41.526V42.8621C30.6017 42.527 31.306 42.2512 32.03 42.0378C34.546 41.2936 37.7032 40.8986 40.8462 40.6685C44.5146 40.4057 48.1937 40.3258 51.87 40.4293V38.9409C44.8675 38.7824 35.7572 39.0354 29.925 41.526ZM7.57701 3.20683C6.1104 3.19996 5.77296 3.21713 5.13 3.2303V40.4293C8.80628 40.3258 12.4854 40.4057 16.1538 40.6685C19.2968 40.8986 22.454 41.2936 24.97 42.0372C25.694 42.2508 26.3983 42.5268 27.075 42.8621V6.40901C27.0739 6.29109 27.0522 6.15428 26.5865 5.81884C26.1203 5.48282 25.2761 5.1033 24.2028 4.78846C22.0556 4.16107 19.0169 3.75235 15.972 3.5188C12.927 3.28525 9.87126 3.21713 7.57701 3.20683ZM21.2291 4.73866C21.5568 4.73121 21.9353 4.73923 22.3714 4.76671C23.4207 4.83196 24.1589 5.20004 24.7522 5.36776C26.1322 5.75701 26.5079 6.06212 26.603 6.13081C26.7683 6.24931 26.802 6.38669 26.6771 6.42905C26.635 6.44393 26.664 6.46168 26.741 6.46912C26.8584 6.48057 26.8801 6.51892 26.8801 6.7021C26.8801 6.85379 26.8527 6.91733 26.7877 6.91333C26.7233 6.90932 26.6931 6.97343 26.6931 7.12112C26.6931 7.2379 26.6589 7.34551 26.6161 7.3604C26.5546 7.38158 26.5546 7.38787 26.6161 7.39589C26.7302 7.4102 26.7159 7.82178 26.6008 7.85899C26.4697 7.90135 26.4856 7.99465 26.6321 8.04216C26.7609 8.08452 26.8008 8.24996 26.6954 8.30835C26.6617 8.32724 26.5808 8.30949 26.5141 8.26942C26.4286 8.2179 26.379 8.21561 26.3505 8.26026C26.3277 8.29575 26.3676 8.34326 26.4394 8.36673C26.5232 8.39421 26.5694 8.45947 26.5694 8.55106C26.5694 8.7371 26.2935 8.80121 26.1385 8.65066C26.0416 8.55621 26.0211 8.55735 25.9185 8.66497C25.8073 8.78175 25.8085 8.78404 25.9863 8.75999C26.2354 8.72679 26.4075 8.8699 26.338 9.05422L26.2856 9.19275L26.1111 9.02102C25.8352 8.74626 25.8427 8.87906 26.1197 9.17501C26.257 9.32155 26.3636 9.44062 26.3557 9.44004C26.3482 9.43947 26.3614 9.56999 26.3847 9.7297L26.4281 10.0188L26.1887 9.97184C26.0536 9.9455 25.9646 9.95008 25.9834 9.98328C26.0028 10.0153 26.0878 10.0463 26.1716 10.052C26.2542 10.0566 26.3209 10.0961 26.3192 10.1384C26.3135 10.2872 25.7332 10.6879 25.3918 10.7784C24.9022 10.9078 24.8754 10.9232 24.7585 11.1608C24.6263 11.4287 24.388 11.6056 24.1138 11.6399C23.9942 11.6554 23.903 11.7052 23.903 11.7544C23.903 11.8019 23.8819 11.8397 23.8568 11.838C23.8317 11.8362 23.8032 11.937 23.7941 12.0612C23.785 12.1866 23.7508 12.3205 23.7171 12.3589C23.6841 12.3972 23.6749 12.4482 23.6972 12.4722C23.72 12.4963 23.6915 12.5123 23.6362 12.5089C23.5718 12.5048 23.5478 12.5375 23.5706 12.597C23.59 12.6497 23.5729 12.8306 23.5313 12.9994C23.4635 13.2788 23.4401 13.3057 23.2805 13.2959C23.158 13.2885 23.0935 13.2467 23.0651 13.1551C23.0366 13.0653 22.9807 13.0263 22.8844 13.0332C22.8424 13.0341 22.8008 13.0266 22.7618 13.0111C22.7228 12.9955 22.6874 12.9723 22.6575 12.9428C22.5332 12.8008 22.2368 12.1757 22.1878 11.9507C22.1603 11.8334 22.1162 11.7206 22.0567 11.6159C21.8418 11.2695 21.9199 10.4555 22.1719 10.4046C22.2363 10.392 22.2853 10.3016 22.3013 10.1642C22.3229 9.9787 22.3064 9.94092 22.193 9.91173C22.0904 9.8854 22.0658 9.90314 22.0886 9.9913C22.1308 10.1567 21.8344 10.202 21.6936 10.0514C21.5939 9.9455 21.5944 9.92661 21.705 9.72855C21.8128 9.53392 21.8384 9.5219 22.0522 9.56426L22.2836 9.60891L22.1331 9.46008C22.0505 9.37765 21.9957 9.29293 22.0117 9.27118C22.0282 9.24942 22.0094 9.25801 21.9684 9.29007C21.8652 9.37135 21.672 9.35075 21.6634 9.25629C21.6486 9.09773 21.6845 8.92772 21.7478 8.85387C21.7934 8.80064 21.7934 8.73538 21.7478 8.63635C21.6634 8.45317 21.4856 7.85784 21.4856 7.75824C21.4856 7.71588 21.4417 7.63173 21.3892 7.57048C21.33 7.49628 21.2883 7.40959 21.2673 7.31689C21.2348 7.14516 21.2656 7.1755 20.9372 6.98889L20.6705 6.83605L20.459 6.94882C20.284 7.04155 20.2139 7.0467 20.0577 6.98259C19.8611 6.90131 19.7152 6.69981 19.7796 6.59906C19.8001 6.56643 19.7454 6.50919 19.6582 6.47026C19.4587 6.38211 19.4564 6.24988 19.6496 6.10963L19.7984 6.00201L19.5915 5.87608C19.1349 5.60017 18.9343 4.79075 21.2291 4.73866ZM13.7792 5.24526C14.0095 5.25613 14.1668 5.27617 14.1286 5.28991C14.091 5.30307 14.0739 5.38264 14.0898 5.46736C14.1126 5.58986 14.0847 5.63222 13.953 5.67458C13.741 5.74213 13.753 5.74499 13.6578 5.60589C13.6083 5.53705 13.5435 5.48078 13.4685 5.4416C13.4087 5.41584 13.3602 5.35574 13.3602 5.30994C13.3602 5.24812 13.4719 5.2298 13.7792 5.24526ZM15.3911 5.33799C15.6482 5.34143 15.7331 5.41813 15.577 5.50801C15.4493 5.5807 15.1666 5.55609 15.0947 5.46507C15.0098 5.35688 15.0662 5.33341 15.3911 5.33799ZM15.9634 5.36604C16.1709 5.37864 16.2188 5.40096 16.1903 5.47309C16.1671 5.53338 16.1924 5.56582 16.2661 5.5704C16.4109 5.57956 16.4599 5.63623 16.4188 5.74213C16.3732 5.85891 16.1464 5.83143 15.9959 5.69061C15.9209 5.61952 15.8509 5.5434 15.7861 5.46278C15.7081 5.35917 15.724 5.35116 15.9634 5.36604ZM14.6091 5.43817C14.6627 5.38779 14.8485 5.60188 14.8628 5.73183C14.8901 5.96824 14.7413 5.93618 14.6615 5.68832C14.6205 5.56181 14.5971 5.44904 14.6091 5.43817ZM13.1898 5.47366C13.2154 5.48282 13.2422 5.51602 13.2844 5.57899C13.3443 5.66829 13.3585 5.7324 13.3186 5.74327C13.2827 5.75301 13.2668 5.82857 13.2821 5.90928C13.2975 5.99114 13.2781 6.07471 13.2405 6.09532C13.2029 6.11593 13.1738 6.18061 13.175 6.23843C13.1767 6.33517 13.1818 6.3346 13.24 6.23843C13.3067 6.1268 13.546 6.10505 13.546 6.21038C13.546 6.24473 13.5888 6.27506 13.6418 6.27907C13.6943 6.28193 13.7849 6.37123 13.843 6.47771C13.9057 6.59219 13.9992 6.67348 14.0722 6.67806C14.1668 6.68378 14.1765 6.67062 14.1115 6.62539C14.0642 6.59219 14.0437 6.53781 14.0659 6.50347C14.0765 6.48638 14.0801 6.46582 14.0758 6.44615C14.0715 6.42648 14.0598 6.40925 14.0431 6.39814C13.945 6.33116 13.9673 6.21095 14.1069 6.06956C14.2386 5.93561 14.3851 5.9608 14.3275 6.10734C14.3093 6.15314 14.3235 6.21038 14.3583 6.23385C14.3936 6.25789 14.4079 6.31685 14.3897 6.36379C14.3668 6.42218 14.4039 6.4508 14.5076 6.45767C14.6872 6.46912 14.7926 6.646 14.7436 6.85093C14.7094 6.99289 14.7128 6.99519 14.8018 6.88528C14.893 6.77365 14.8952 6.77365 14.9665 6.91161C15.0064 6.98889 15.0235 7.05357 15.0052 7.05701C14.9376 7.0639 14.8697 7.06905 14.8018 7.07246C14.3366 7.09994 14.12 7.14516 13.9696 7.24248C13.7621 7.377 13.5763 7.36612 13.4725 7.21443C13.4281 7.14917 13.3004 7.03697 13.1898 6.96485C13.0365 6.86582 12.996 6.80456 13.0228 6.71011C13.046 6.62616 13.0389 6.61013 13.0017 6.66203C12.9464 6.73759 12.7395 6.68836 12.7395 6.59906C12.7395 6.52465 12.9595 6.3615 13.0513 6.36723C13.1163 6.37123 13.1197 6.35349 13.0638 6.29453C13.0085 6.23499 12.9595 6.2556 12.8581 6.37925C12.7669 6.48973 12.6928 6.52465 12.6244 6.49087C12.5598 6.4608 12.4902 6.44313 12.4192 6.43878C12.2504 6.43477 12.2368 6.26648 12.3935 6.10677C12.4991 5.99409 12.597 5.87437 12.6865 5.74843C12.772 5.62593 12.8712 5.55151 12.927 5.56868C12.9789 5.58471 13.0581 5.56067 13.1037 5.51487C13.1391 5.47938 13.1641 5.46507 13.1898 5.47366ZM17.7333 5.50171C17.8986 5.49427 18.0827 5.49598 18.2531 5.504C18.5951 5.52003 18.8835 5.5641 18.8636 5.62364C18.8493 5.66542 18.7752 5.70549 18.6983 5.71179C18.6067 5.72019 18.5719 5.75491 18.594 5.81597C18.6128 5.86635 18.5797 5.95622 18.5204 6.01461C18.3882 6.14569 18.3574 6.26762 18.4594 6.25274C18.5011 6.24702 18.545 6.30197 18.5564 6.37581C18.5706 6.47313 18.5164 6.54296 18.3637 6.62883C18.1203 6.76449 18 6.7748 18.0462 6.6563C18.069 6.59734 18.0177 6.57273 17.8581 6.56701C17.7373 6.56243 17.6386 6.58132 17.6386 6.60822C17.6386 6.6357 17.5019 6.63055 17.3326 6.59677C17.0989 6.55155 17.002 6.55899 16.9307 6.62654C16.8463 6.70611 16.8595 6.72786 17.0544 6.83319C17.2579 6.94252 17.2932 6.94424 17.5834 6.86582C17.8364 6.79712 17.9265 6.79712 18.0718 6.86696C18.2793 6.96599 18.3534 7.11311 18.2531 7.22759C18.2143 7.27224 18.1973 7.36498 18.2143 7.43252C18.2314 7.50007 18.2109 7.56533 18.1687 7.57907C18.0684 7.61169 16.8988 7.53556 16.7403 7.48633C16.526 7.41936 16.461 7.32033 16.4599 7.05472C16.4587 6.63398 16.4057 6.50976 16.2439 6.5401C16.1367 6.56071 16.0717 6.52178 15.9708 6.3741C15.7742 6.08387 15.7987 5.9774 16.0563 5.99343C16.2045 6.00259 16.2974 6.04781 16.3499 6.13425C16.4004 6.21935 16.4688 6.25331 16.5551 6.23614C16.595 6.22934 16.636 6.23335 16.6739 6.24773C16.7117 6.26212 16.7451 6.28637 16.7705 6.318C16.8446 6.41245 16.8617 6.40558 16.933 6.23957C16.9769 6.13768 17.0538 6.0564 17.104 6.05983C17.1855 6.06441 17.1855 6.04266 17.108 5.88753C17.059 5.79021 17.0191 5.6929 17.0185 5.67172C17.0185 5.64997 17.1564 5.59559 17.3251 5.55094C17.4593 5.52122 17.596 5.50473 17.7333 5.50171ZM13.4782 5.91214C13.5438 5.915 13.6076 5.96652 13.6076 6.03178C13.6076 6.10391 13.5403 6.10105 13.4298 6.02377C13.3711 5.98255 13.3671 5.95336 13.4149 5.92645C13.4342 5.91563 13.4562 5.91066 13.4782 5.91214ZM20.1535 5.93905C20.1005 5.93561 20.0566 5.96023 20.0566 5.99457C20.0566 6.02892 20.084 6.05869 20.1159 6.0604C20.1478 6.06212 20.19 6.03751 20.2116 6.00488C20.2327 5.97168 20.2071 5.94191 20.1535 5.93905ZM15.6494 6.15772C15.6693 6.16001 15.6967 6.17947 15.7383 6.21725C15.8209 6.29052 15.842 6.40329 15.8329 6.73702L15.8215 7.16291L15.5764 7.14745C15.341 7.13257 15.3313 7.12341 15.3552 6.9574C15.378 6.80113 15.3649 6.78567 15.2287 6.80285C15.0902 6.82117 15.0805 6.808 15.1192 6.65516C15.1477 6.54449 15.1403 6.50099 15.097 6.52465C14.9762 6.59219 14.8166 6.48114 14.8075 6.322C14.7972 6.14226 14.9135 6.12165 15.0605 6.2785C15.1141 6.33574 15.1586 6.35979 15.1586 6.33116C15.1586 6.22297 15.4122 6.13024 15.4977 6.20695C15.5587 6.26133 15.5872 6.25961 15.6072 6.20122C15.618 6.16974 15.63 6.15543 15.6494 6.15772ZM16.1082 6.80743C16.3419 6.82231 16.5072 7.3375 16.2997 7.40447C16.1703 7.44626 16.1914 7.45599 16.0267 7.26938C15.9019 7.12799 15.891 7.08334 15.9526 6.95283C15.9913 6.86925 16.0615 6.80457 16.1082 6.80743ZM12.2818 7.15547C12.389 7.14516 12.4642 7.14631 12.5246 7.15947C12.5816 7.1716 12.6335 7.20096 12.6734 7.24362C12.7378 7.30544 12.8478 7.35124 12.9185 7.34437C13.0068 7.33578 13.1271 7.42337 13.297 7.62028C13.4338 7.77885 13.5443 7.93397 13.5443 7.96603C13.5443 7.99809 13.5723 8.01011 13.6053 7.99122C13.6384 7.9729 13.7364 8.00782 13.8225 8.06964C13.9696 8.17554 13.9792 8.17611 13.9792 8.07536C13.9792 7.97462 13.9895 7.97462 14.1343 8.0788C14.2853 8.18756 14.2888 8.18756 14.2888 8.03415C14.2888 7.94142 14.3247 7.87902 14.376 7.88188C14.4233 7.88475 14.4774 7.84582 14.4974 7.79602C14.5339 7.70157 14.8171 7.68554 14.8702 7.77484C14.8867 7.80231 14.8679 7.93913 14.8303 8.07823C14.7795 8.24009 14.7805 8.41383 14.8331 8.5751C14.873 8.70848 14.922 8.88249 14.9425 8.96092C14.9631 9.03934 15.0121 9.10632 15.0526 9.10975C15.1683 9.12005 15.406 9.35819 15.406 9.46409C15.406 9.51675 15.3569 9.5843 15.2977 9.61349C15.2384 9.64269 15.2105 9.68905 15.235 9.71539C15.3136 9.79896 15.1506 9.92318 14.9767 9.9123C14.9129 9.89112 14.726 9.82472 14.7066 9.823C14.7049 9.823 14.1799 9.93749 14.0853 9.95352C14.0183 9.93881 13.9502 9.93019 13.8818 9.92776C13.7666 9.88482 13.6122 9.96897 13.5455 9.77835C13.5455 9.73943 13.4503 9.67074 13.334 9.62494C13.1436 9.55052 13.0486 9.44024 13.049 9.29407C13.049 9.26545 13.1265 9.21851 13.22 9.18989L13.3893 9.13837L13.1955 9.1212C12.9977 9.10345 12.9253 9.01358 12.9253 8.78346C12.9253 8.71764 12.8968 8.66211 12.8626 8.65982C12.7754 8.65409 12.7857 8.4463 12.8786 8.35357C12.9424 8.29003 12.931 8.28716 12.8159 8.33926C12.7395 8.3736 12.6768 8.45947 12.6768 8.52816C12.6768 8.59685 12.6289 8.66554 12.5685 8.68329C12.492 8.70994 12.4204 8.749 12.3565 8.79892C12.2635 8.87334 12.2425 8.86189 12.157 8.6913C12.1045 8.58655 12.015 8.4795 11.9586 8.45432C11.8868 8.42226 11.8691 8.36845 11.8976 8.27228C11.9204 8.19672 11.9489 8.05934 11.9632 7.96718C11.9774 7.87501 12.0167 7.74679 12.0515 7.68382C12.0914 7.61227 12.0931 7.49606 12.0589 7.37471C12.0048 7.18065 12.0082 7.17951 12.2818 7.15547ZM16.2991 7.59796C16.379 7.5949 16.4787 7.61494 16.5984 7.65806C16.8435 7.74736 16.8663 7.78457 16.7768 7.95458C16.746 8.01183 16.6902 8.13433 16.6531 8.22649C16.6161 8.31865 16.5465 8.39135 16.4981 8.38849C16.3824 8.38104 16.3157 8.65867 16.3955 8.81437C16.4308 8.88192 16.4593 8.98439 16.4593 9.04106C16.4593 9.09773 16.5157 9.22023 16.5842 9.31182C16.6788 9.4389 16.6924 9.49672 16.6383 9.55797C16.5847 9.61979 16.591 9.63925 16.6685 9.64383C16.7295 9.64784 16.7688 9.70222 16.7688 9.78236C16.7688 9.89513 16.7836 9.90486 16.8657 9.84189C17.0048 9.73427 17.1542 9.9123 17.1542 10.1871C17.1542 10.3061 17.1781 10.4441 17.2083 10.4939C17.2397 10.5454 17.2636 10.5546 17.2642 10.5151C17.2642 10.4761 17.3115 10.3388 17.369 10.2094C17.5264 9.85334 17.4386 9.50645 17.1866 9.49099C16.9769 9.47783 16.75 8.9861 16.7933 8.63978C16.8595 8.10628 17.0453 7.86128 17.3679 7.88188C17.5235 7.89161 17.5628 7.91623 17.536 7.98607C17.5041 8.06621 17.5212 8.06735 17.6774 7.9958C17.9539 7.86929 18.4982 7.98263 18.6761 8.20416C18.7524 8.29919 18.8163 8.40566 18.8174 8.44C18.8214 8.55678 19.1566 8.97008 19.2312 8.94947C19.2723 8.93802 19.3561 8.99355 19.417 9.07254C19.478 9.15154 19.5664 9.24942 19.612 9.29064C19.8941 9.5448 20.0526 9.76862 20.0207 9.86765C19.9996 9.93405 20.0178 9.9787 20.0674 9.98271C20.1221 9.98729 20.1132 10.0151 20.0406 10.0663C19.8976 10.167 19.9038 10.2655 20.056 10.3239C20.1244 10.3496 20.1814 10.3954 20.1814 10.4269C20.1814 10.4573 20.2293 10.4687 20.2892 10.451C20.3484 10.4338 20.3769 10.4401 20.3513 10.467C20.3262 10.4933 20.4168 10.625 20.5531 10.7595C20.8324 11.036 20.8495 11.1167 20.6762 11.3279C20.6095 11.4092 20.5536 11.5111 20.5531 11.5535C20.5525 11.5958 20.5229 11.6296 20.4869 11.6273C20.4049 11.6222 20.1193 11.297 20.1164 11.206C20.1153 11.1682 20.0874 11.1814 20.0537 11.2358C19.9808 11.3577 20.0383 11.5363 20.1529 11.5437C20.3547 11.5563 20.5063 12.2971 20.3182 12.3486C20.276 12.36 20.2424 12.3388 20.2424 12.3016C20.2424 12.2644 20.2179 12.2329 20.1888 12.2312C20.1598 12.2295 20.1495 12.3028 20.166 12.3932C20.1991 12.5678 20.2168 12.565 19.824 12.4264C19.7471 12.3995 19.6832 12.3554 19.6832 12.3274C19.6832 12.2988 19.6148 12.2541 19.531 12.2278C19.4357 12.1921 19.3554 12.1246 19.3036 12.0366C19.1446 11.7275 18.9707 11.6279 18.7473 11.7166C18.5791 11.7836 18.419 11.6061 18.4686 11.4092C18.5056 11.2627 18.5358 11.2466 18.6823 11.285C18.879 11.3365 19.038 11.2718 18.9753 11.1654C18.9519 11.1253 18.9895 11.0228 19.0597 10.9375C19.1303 10.8517 19.1879 10.72 19.1879 10.6456C19.1879 10.459 18.8681 10.1396 18.7268 10.1848C18.6396 10.2134 18.6225 10.1905 18.6379 10.0709C18.6595 9.90829 18.48 9.58716 18.4195 9.68104C18.399 9.71309 18.2822 9.73313 18.1602 9.72569C17.8946 9.70852 17.8193 9.76232 17.955 9.87109C18.0308 9.93119 18.053 10.0474 18.0479 10.3359C18.0388 10.8019 17.8456 11.0835 17.5771 11.0234C17.4323 10.9913 17.4397 11.0079 17.6672 11.2272C17.8034 11.3588 17.9362 11.4676 17.9624 11.4699C17.9881 11.471 18.0091 11.5082 18.0091 11.5512C18.0091 11.5947 18.0661 11.6685 18.1357 11.7172C18.2052 11.7647 18.2451 11.8294 18.2252 11.8609C18.175 11.9393 17.902 11.9175 17.8507 11.8305C17.8245 11.7859 17.7623 11.8048 17.674 11.882C17.5543 11.9874 17.5167 11.9914 17.3713 11.9147C17.2077 11.8282 17.1616 11.7309 17.2459 11.6508C17.2699 11.6285 17.2966 11.5489 17.3063 11.4733L17.3251 11.3359L17.2453 11.4739C17.2015 11.55 17.0755 11.6605 16.9672 11.72C16.8583 11.7796 16.7688 11.8643 16.7688 11.9078C16.7688 11.9513 16.681 12.0646 16.5739 12.1597C16.2285 12.4654 16.0877 13.0126 16.3334 13.0927C16.4109 13.1179 16.4696 13.2055 16.493 13.3303C16.5232 13.494 16.5591 13.5306 16.7038 13.545C16.8008 13.5541 16.9718 13.6354 17.0858 13.7247C17.4067 13.9754 17.5737 14.0601 17.7686 14.0722C17.9396 14.0836 17.9476 14.0974 17.9476 14.3607C17.9476 14.5668 17.9869 14.6852 18.1015 14.8226C18.301 15.0625 18.3836 14.9589 18.3107 14.5622C18.2617 14.2948 18.2708 14.2668 18.4441 14.1151C18.5467 14.0258 18.6293 13.9285 18.6293 13.8993C18.6282 13.7316 18.4902 13.3772 18.4121 13.3423C18.2924 13.2885 18.2924 13.1088 18.4133 13.1168C18.4897 13.1214 18.5039 13.0343 18.4908 12.6394C18.4783 12.2347 18.4902 12.1602 18.5678 12.1866C18.6191 12.2037 18.7741 12.2266 18.9132 12.2387C19.1058 12.2558 19.2039 12.3045 19.3281 12.447C19.4176 12.5495 19.5379 12.6434 19.5955 12.656C19.6713 12.672 19.7049 12.7476 19.7152 12.9296C19.7243 13.0842 19.7784 13.2341 19.8548 13.3154C19.9722 13.4413 19.9848 13.4419 20.0708 13.3469C20.121 13.2914 20.1803 13.1729 20.2031 13.083C20.2435 12.9239 20.4294 12.8586 20.4294 13.0034C20.4294 13.0435 20.4681 13.1242 20.516 13.1809C20.5645 13.2381 20.6636 13.4671 20.7366 13.6904C20.8808 14.1311 20.9503 14.2313 21.1641 14.3126C21.2411 14.3424 21.3351 14.4368 21.3721 14.5221C21.4098 14.6068 21.4748 14.6778 21.5169 14.6807C21.6138 14.6864 21.668 15.0396 21.5836 15.1191C21.5403 15.1588 21.5449 15.1804 21.5973 15.1838C21.6543 15.1873 21.6566 15.2182 21.6058 15.3098C21.5289 15.45 21.6469 15.6229 21.8264 15.6343C21.8931 15.6383 21.9176 15.6744 21.8948 15.7328C21.8749 15.7826 21.8834 15.8244 21.9119 15.8267C21.9986 15.8324 22.0396 16.094 21.9735 16.2148C21.9239 16.3041 21.888 16.3121 21.79 16.2526C21.7221 16.2119 21.6406 16.1942 21.6093 16.2113C21.5779 16.2285 21.5363 16.2125 21.5146 16.177C21.4936 16.1404 21.3796 16.1049 21.261 16.0969C21.0723 16.0854 21.0478 16.0665 21.0672 15.9452C21.0792 15.869 21.1413 15.7047 21.204 15.5805C21.3323 15.3292 21.2941 15.2176 21.127 15.3584C21.0428 15.4189 20.9469 15.4611 20.8455 15.4821C20.7075 15.5084 20.687 15.5324 20.7446 15.6051C20.8016 15.6784 20.7868 15.6939 20.6688 15.6847C20.5717 15.6717 20.4797 15.6339 20.4014 15.5748C20.2641 15.462 20.056 15.4311 20.056 15.5233C20.056 15.5576 20.1432 15.592 20.2498 15.5988C20.4334 15.6103 20.4419 15.6206 20.406 15.7998C20.3638 16.0081 20.4379 16.1261 20.6568 16.1965C20.7412 16.2245 20.805 16.2096 20.8255 16.1564C20.8734 16.0339 20.9714 16.0597 21.017 16.2068C21.0649 16.3602 20.9686 16.4598 20.6762 16.5565C20.557 16.5966 20.4163 16.663 20.3627 16.7054C20.2088 16.8256 20.1193 16.7884 20.1142 16.6012C20.1113 16.5073 20.0954 16.4632 20.0788 16.5033C20.0617 16.5434 19.9534 16.6006 19.8383 16.6315C19.6274 16.6888 19.4758 16.9235 19.6143 16.9784C19.7095 17.0162 19.7032 17.1204 19.6063 17.1146C19.4632 17.1061 19.0522 17.2143 19.0865 17.2509C19.1053 17.2709 19.0505 17.4203 18.965 17.584C18.8778 17.7523 18.8265 17.9332 18.847 18.0002C18.8738 18.0861 18.8197 18.1616 18.6493 18.2795C18.2411 18.5612 18.0713 18.718 18.0713 18.8142C18.0713 18.8657 18.118 19.0586 18.175 19.2435C18.2599 19.5189 18.2639 19.595 18.1978 19.6706C18.1545 19.7209 18.0992 19.7616 18.0758 19.7599C18.0137 19.7559 17.7623 19.2744 17.7623 19.1594C17.7623 19.026 17.7088 18.9979 17.2949 18.9235C16.9757 18.8663 16.9387 18.8714 16.9735 18.9648C17.0168 19.0798 16.8577 19.0861 16.4907 18.9831C16.3573 18.9453 16.2496 18.963 16.1099 19.0443C15.9332 19.1474 15.9093 19.1966 15.8716 19.5595C15.8266 19.9911 15.8819 20.227 16.0768 20.4342C16.2359 20.6042 16.6639 20.5721 16.6964 20.3884C16.7137 20.3119 16.7566 20.2436 16.8179 20.1949C16.9216 20.1205 17.3274 20.1176 17.3274 20.1915C17.3274 20.239 17.2146 20.5996 17.1353 20.8063C17.0858 20.9339 17.0983 20.9442 17.3234 20.9585C17.7207 20.9831 17.7623 21.0226 17.7623 21.3879C17.7623 21.8143 17.9288 22.0502 18.1648 21.9569C18.2159 21.9353 18.2711 21.9253 18.3265 21.9273C18.382 21.9294 18.4363 21.9436 18.4857 21.9689C18.6282 22.0324 18.6704 22.0227 18.7804 21.9002C18.9126 21.7525 19.4359 21.6128 19.4359 21.7244C19.4359 21.7571 19.4906 21.7697 19.5578 21.7519C19.6245 21.7348 19.7431 21.7594 19.82 21.8057C19.8976 21.8521 20.1221 21.8979 20.3199 21.9088C20.6249 21.9248 20.707 21.9551 20.8591 22.1045C21.2895 22.527 21.4582 22.6495 21.6269 22.6598C21.9302 22.6787 22.1952 22.8642 22.3127 23.1395C22.3725 23.2792 22.4038 23.4194 22.3822 23.4526C22.381 23.4543 22.4187 23.4583 22.4221 23.4606L22.4107 23.4686L22.816 23.6072L23.0223 23.7457C23.1352 23.8218 23.3586 23.91 23.5182 23.9415C23.6778 23.973 23.8916 24.0674 23.9942 24.1504C24.0968 24.2334 24.2364 24.3147 24.3048 24.3313C24.4006 24.3548 24.4325 24.4183 24.4473 24.6152C24.4633 24.8385 24.4302 24.9112 24.1834 25.1968C23.9525 25.4636 23.9018 25.5689 23.9018 25.7727C23.9018 26.0686 23.8083 26.3566 23.6168 26.6525C23.5057 26.8242 23.4259 26.8735 23.2292 26.8929C22.8963 26.9256 22.5988 27.1614 22.5988 27.3938C22.5988 27.5713 22.4067 27.9193 22.1827 28.1437C22.0889 28.2438 22.0011 28.3496 21.9199 28.4603C21.7974 28.6297 21.7455 28.6543 21.5751 28.6234C21.3744 28.5873 21.3414 28.6326 21.4445 28.8049C21.5711 29.0167 21.2393 29.2994 20.8916 29.2777C20.7754 29.2703 20.7292 29.3132 20.6876 29.4677C20.6425 29.6337 20.6072 29.6624 20.4693 29.6446C20.3781 29.632 20.3045 29.6481 20.3045 29.6801C20.3045 29.7122 20.3427 29.7408 20.39 29.7437C20.5337 29.7528 20.5588 29.9343 20.4259 29.9978C20.3587 30.0293 20.3045 30.1026 20.3045 30.1598C20.3045 30.2171 20.2282 30.3235 20.1341 30.3957L19.9631 30.5273L20.1073 30.6595C20.2698 30.8084 20.2532 30.9584 20.0555 31.1255C19.9876 31.1828 19.9329 31.2589 19.9329 31.2921C19.9329 31.3264 19.8845 31.3854 19.8257 31.4243C19.7357 31.485 19.7323 31.5216 19.7955 31.6659C19.8371 31.7592 19.8702 31.8857 19.8702 31.9464C19.8702 32.0717 20.117 32.3436 20.2367 32.3511C20.28 32.3539 20.3034 32.3912 20.2892 32.4329C20.2641 32.5074 19.8246 32.5125 19.5105 32.4427C19.4155 32.4217 19.3745 32.377 19.3874 32.3087C19.3988 32.2521 19.3538 32.1736 19.2882 32.1353C19.2203 32.0946 19.1634 32.0378 19.1224 31.9698C19.0272 31.7752 18.9263 31.161 18.9496 30.9177C18.9667 30.7345 18.9531 30.6744 18.8949 30.6933C18.8465 30.7088 18.8163 30.6664 18.8163 30.5811C18.8163 30.4964 18.863 30.4346 18.94 30.4191C19.0084 30.4054 19.0642 30.3447 19.0642 30.2829C19.0642 30.2211 19.0813 30.1266 19.1024 30.0739C19.1279 30.0091 19.1049 29.9747 19.0334 29.9709C18.9519 29.9658 18.9354 29.9308 18.965 29.8267C18.9867 29.7511 19.0209 29.5078 19.0397 29.2869C19.0591 29.0653 19.1281 28.7556 19.1936 28.5988C19.2592 28.4419 19.3116 28.1947 19.3116 28.047C19.3116 27.8987 19.3549 27.5604 19.4062 27.2954C19.4575 27.0303 19.4986 26.6165 19.4986 26.3766C19.4986 26.0005 19.4786 25.9232 19.3583 25.8156C19.2814 25.7458 19.1959 25.6874 19.1668 25.684C18.9918 25.6668 18.7291 25.3422 18.5045 24.8654C18.3654 24.5717 18.1978 24.2775 18.1317 24.2128C18.0103 24.0955 17.9698 23.8625 18.057 23.7801C18.0827 23.756 18.1038 23.6484 18.1038 23.5396V23.3433L18.1961 23.2076C18.1961 23.1819 18.2731 23.0828 18.3665 22.9878C18.46 22.8922 18.5278 22.756 18.5187 22.6856C18.4651 22.2597 18.4309 22.1486 18.3483 22.1435C18.3365 22.1428 18.3247 22.1447 18.3136 22.1488C18.3026 22.153 18.2925 22.1594 18.284 22.1677C18.2756 22.176 18.2689 22.186 18.2645 22.197C18.26 22.208 18.2579 22.2198 18.2582 22.2316C18.2582 22.3364 18.1003 22.3484 18.0416 22.2488C18.0271 22.229 18.0086 22.2126 17.9873 22.2007C17.9659 22.1888 17.9423 22.1815 17.9179 22.1795C17.8034 22.1721 17.3964 21.8813 17.3901 21.8023C17.3793 21.6638 17.157 21.4703 16.8937 21.3701C16.7398 21.3117 16.5346 21.1944 16.4371 21.1079C16.3014 20.9883 16.2136 20.9574 16.0632 20.9763C15.915 20.9952 15.744 20.9374 15.3735 20.745C14.7807 20.4365 14.6507 20.3214 14.6957 20.144C14.7202 20.0478 14.6598 19.9339 14.4632 19.7129C14.0448 19.2418 13.7381 18.8302 13.6715 18.6499C13.6378 18.5583 13.5802 18.4816 13.546 18.4799C13.4452 18.4736 13.4719 18.5681 13.6224 18.7535C13.6994 18.848 13.8316 19.0638 13.9166 19.2332C14.0015 19.4027 14.1075 19.5652 14.1503 19.5956C14.1725 19.6128 14.1908 19.6346 14.2041 19.6594C14.2173 19.6843 14.2252 19.7117 14.2272 19.7398C14.2272 19.7896 14.193 19.8274 14.1503 19.8234C14.0357 19.8137 13.7171 19.4965 13.7587 19.4324C13.778 19.4021 13.7039 19.3082 13.5928 19.2241C13.5146 19.1657 13.4372 19.1062 13.3608 19.0455C13.3448 19.0317 13.3722 18.9979 13.4212 18.971C13.4976 18.9275 13.4948 18.9024 13.4001 18.8005C13.3391 18.7352 13.224 18.5526 13.1453 18.394C13.0638 18.2297 12.9253 18.0609 12.8244 18.0048C12.6101 17.8846 12.5577 17.8147 12.3012 17.2967C12.1102 16.912 12.1017 16.8645 12.0943 16.1117C12.0874 15.4168 12.0732 15.3161 11.9683 15.2331C11.6063 14.9446 11.4895 14.7929 11.5636 14.7087C11.6206 14.6423 11.6126 14.5856 11.5265 14.4454C11.4655 14.3481 11.3795 14.2439 11.3339 14.2136C11.2883 14.1832 11.2501 14.0899 11.2501 14.0052C11.2501 13.921 11.1937 13.7997 11.1253 13.7373C11.0569 13.6749 11.0021 13.5867 11.0021 13.5438C11.0021 13.4362 10.8061 13.2009 10.7451 13.2347C10.7177 13.2502 10.6778 13.1889 10.6556 13.1008C10.6311 13 10.5735 12.9388 10.5 12.9347C10.4356 12.9302 10.2549 12.8203 10.0981 12.6903C9.90033 12.5266 9.74871 12.4505 9.60051 12.4413C9.4791 12.4339 9.28074 12.3532 9.14052 12.2558C9.00486 12.1608 8.89314 12.1099 8.89314 12.1414C8.89314 12.1734 8.92848 12.2141 8.97123 12.2312C9.03222 12.2553 9.03165 12.2816 8.96667 12.356C8.92164 12.4081 8.84583 12.4344 8.79852 12.4133C8.75121 12.3921 8.64918 12.415 8.57166 12.4648C8.3429 12.6117 8.25132 12.5741 8.29692 12.352L8.33568 12.1585L8.21085 12.3091C8.14245 12.3927 8.10255 12.5031 8.12193 12.5552C8.14131 12.6073 8.1282 12.6668 8.09172 12.6869C8.07241 12.6987 8.05632 12.7151 8.04488 12.7347C8.03345 12.7543 8.02702 12.7764 8.02617 12.7991C8.02731 12.8397 8.05695 12.8254 8.09172 12.7676C8.12649 12.7104 8.19375 12.6651 8.24106 12.668C8.3961 12.6777 8.3106 12.9599 8.10426 13.1208L7.90476 13.2776L7.92243 13.0584C7.94181 12.8145 7.95834 12.8094 7.51203 13.1912C7.37181 13.3114 7.23444 13.3938 7.20708 13.3744C7.17858 13.3561 7.15692 13.3858 7.15692 13.4408C7.15692 13.4963 7.12899 13.5232 7.0965 13.5009C7.06401 13.4786 6.93861 13.4969 6.8172 13.5404C6.55386 13.6343 6.50541 13.6365 6.50541 13.5604C6.50541 13.5003 6.94089 13.2095 7.02297 13.2147C7.10733 13.2204 7.45047 12.8712 7.4841 12.7464C7.51089 12.6457 7.49835 12.6342 7.40487 12.6783C7.32279 12.7172 7.28346 12.7052 7.25781 12.6371C7.2333 12.5707 7.16889 12.5512 7.03779 12.5695C6.86793 12.5936 6.85482 12.5833 6.87933 12.4482C6.9027 12.3205 6.88218 12.2993 6.73683 12.2913C6.60402 12.285 6.56754 12.2536 6.56583 12.1459C6.56469 12.0709 6.49743 11.9467 6.41649 11.8712C6.28368 11.7469 6.27627 11.7189 6.3498 11.5861C6.43074 11.4384 6.84912 11.1493 6.96939 11.1568C7.04919 11.1613 7.05318 10.9953 6.97509 10.9421C6.96742 10.9369 6.95876 10.9333 6.94966 10.9315C6.94055 10.9297 6.93118 10.9298 6.92211 10.9318C6.91305 10.9338 6.90448 10.9376 6.89693 10.943C6.88938 10.9484 6.883 10.9553 6.87819 10.9633C6.85653 10.9976 6.80523 11.0022 6.76476 10.973C6.71441 10.9408 6.65825 10.9188 6.59946 10.9083C6.53532 10.8998 6.47128 10.8904 6.40737 10.8803C6.30249 10.8643 6.16455 10.6095 6.16455 10.4309C6.16455 10.3159 6.45867 10.1275 6.6234 10.1378C6.67812 10.1413 6.72258 10.1865 6.72258 10.2374C6.72258 10.289 6.76362 10.3342 6.81492 10.337C6.86622 10.3405 6.90954 10.2878 6.90954 10.2186C6.90954 10.1499 6.88218 10.0926 6.84969 10.0898C6.81663 10.088 6.66501 9.95581 6.51225 9.79724C6.30135 9.57857 6.24207 9.47725 6.26829 9.37765C6.2928 9.28491 6.35151 9.24885 6.47007 9.25572C6.60459 9.26431 6.65817 9.22138 6.74481 9.03018C6.84741 8.80235 7.22646 8.51843 7.37922 8.55506C7.41627 8.56365 7.49664 8.519 7.55763 8.45546C7.65567 8.35242 7.68702 8.35013 7.83123 8.43199C7.92072 8.48294 8.07063 8.54762 8.16411 8.57624C8.25816 8.60487 8.33568 8.65581 8.33568 8.68901C8.33568 8.72279 8.42061 8.75541 8.52378 8.76171C8.62695 8.76801 8.81106 8.82124 8.93361 8.88021C9.05616 8.93917 9.26307 8.99469 9.39303 9.00328C9.52299 9.01186 9.64497 9.04335 9.66378 9.07483C9.68259 9.10632 9.7926 9.15669 9.90774 9.18531C10.0229 9.21393 10.1659 9.29636 10.2269 9.36792C10.3865 9.5551 10.5062 9.54079 10.932 9.28205C11.1982 9.11948 11.347 9.06567 11.4359 9.09945C11.5186 9.13093 11.5573 9.12234 11.5465 9.07254C11.5368 9.03076 11.5642 8.98668 11.6075 8.97294C11.6531 8.9592 11.7272 9.05079 11.7882 9.19447L11.8913 9.43947L11.9552 9.27289C12.0293 9.07769 12.0914 9.06109 12.1342 9.22939C12.1564 9.31583 12.2054 9.34387 12.3131 9.32956C12.3992 9.31812 12.5959 9.38681 12.78 9.49099C12.9544 9.59002 13.1653 9.67417 13.2474 9.67989C13.3261 9.68603 13.4013 9.71552 13.4634 9.76461L13.5791 9.94779C13.5865 9.96497 13.5529 10.0062 13.497 10.0451C13.4018 10.1121 13.4172 10.1235 13.6259 10.1378C13.7564 10.1476 13.9148 10.1293 13.9792 10.0989C14.0568 10.0623 14.1081 10.0657 14.1332 10.1092C14.1548 10.1447 14.2129 10.1762 14.2625 10.1796C14.4005 10.0869 14.5703 9.87967 14.9739 10.0995C15.0366 10.1029 15.1033 10.1327 15.1221 10.1647C15.1415 10.1968 15.2526 10.2271 15.3695 10.2311C15.5393 10.2369 15.5866 10.2094 15.6089 10.0955C15.626 10.0039 15.6066 9.95123 15.5519 9.94779C15.4413 9.94092 15.4436 9.92661 15.602 9.66616L15.7377 9.4452L15.9418 9.68104C16.0711 9.83044 16.1618 9.89284 16.1886 9.85105C16.2125 9.81384 16.1584 9.71596 16.0694 9.63353C15.9406 9.51446 15.9098 9.43203 15.9127 9.2168C15.915 9.06911 15.9566 8.88765 16.0062 8.81437C16.0729 8.71649 16.086 8.59113 16.0552 8.33926C15.9925 7.83552 16.0592 7.60711 16.2991 7.59796ZM15.406 7.72103C15.4709 7.71492 15.5597 7.71492 15.6722 7.72103L15.9081 7.73248L15.8739 7.95C15.8506 8.09425 15.8682 8.20016 15.9252 8.26083C16.0466 8.39078 16.0062 8.71363 15.8511 8.84872C15.6704 9.00729 15.5735 8.98439 15.4772 8.76057C15.4316 8.65524 15.3655 8.56709 15.329 8.5648C15.2378 8.55907 15.0993 8.35471 15.0964 8.22305C15.0942 8.09712 15.2213 8.08624 15.3301 8.20302C15.4259 8.30491 15.4259 8.22649 15.3301 8.04617C15.2116 7.82178 15.2093 7.73935 15.406 7.72103ZM18.7006 10.2855C18.7308 10.277 18.7627 10.277 18.7929 10.2855C18.8756 10.3067 18.9097 10.3702 18.9097 10.5031C18.9097 10.6593 18.8813 10.6897 18.7382 10.6971C18.5957 10.7045 18.5683 10.6828 18.5689 10.562C18.57 10.4086 18.619 10.3101 18.7006 10.2855ZM12.5976 10.6021C12.5881 10.5994 12.5782 10.5986 12.5684 10.5997C12.5586 10.6009 12.5491 10.6041 12.5406 10.609C12.4995 10.6326 12.506 10.6643 12.5599 10.704C12.6135 10.7418 12.6227 10.7795 12.5833 10.807C12.4636 10.8894 12.3508 11.0566 12.4129 11.0606C12.4477 11.0629 12.4916 11.0263 12.5098 10.9787C12.528 10.9312 12.6284 10.8803 12.7321 10.8637C12.9726 10.8259 13.0427 10.7257 12.8381 10.7126C12.7526 10.7074 12.666 10.6742 12.6443 10.6381C12.6339 10.6206 12.6172 10.6077 12.5976 10.6021ZM18.4669 11.8746C18.5147 11.8775 18.5695 11.9238 18.5894 11.9759C18.6253 12.0721 18.5022 12.1024 18.4224 12.0177C18.3529 11.9433 18.3757 11.8689 18.4669 11.8746ZM17.906 12.0349C18.004 12.0624 18.004 12.075 17.914 12.1986C17.8193 12.3274 17.6364 12.3743 17.6364 12.2702C17.6364 12.1568 17.8074 12.008 17.906 12.0349ZM6.32472 12.0515C6.43986 12.0589 6.47862 12.0893 6.4638 12.1637C6.44157 12.2764 6.3612 12.3085 6.24207 12.253C6.09957 12.1866 6.15885 12.0412 6.32472 12.0515ZM13.631 12.1202C13.5996 12.0996 13.5062 12.1454 13.4218 12.2215C13.2411 12.3835 13.342 12.4173 13.5472 12.2627C13.6253 12.2049 13.6623 12.1408 13.631 12.1202ZM18.2508 12.2341C18.3386 12.2398 18.362 12.273 18.338 12.3657C18.301 12.5048 18.232 12.5604 18.1727 12.498C18.0844 12.4041 18.1368 12.2266 18.2508 12.2341ZM6.34353 13.628C6.37241 13.628 6.39844 13.6356 6.42162 13.6509C6.45468 13.6738 6.43131 13.7264 6.36918 13.7699C6.2244 13.8712 6.16398 13.8684 6.16398 13.7602C6.16398 13.6858 6.2586 13.6268 6.34353 13.628ZM10.9947 13.9004C11.0876 13.9062 11.1258 13.948 11.1292 14.0481C11.1321 14.1254 11.1463 14.2525 11.1606 14.3309C11.1919 14.5015 11.1737 14.5055 11.046 14.3555C10.9819 14.2686 10.9347 14.1704 10.9069 14.0659C10.8705 13.917 10.883 13.8941 10.9947 13.9004ZM15.7018 14.4437C15.6459 14.4414 15.6488 14.4597 15.7138 14.5055C15.7651 14.5421 15.785 14.5719 15.7571 14.5708C15.7297 14.5696 15.7257 14.5988 15.7485 14.6366C15.8067 14.735 15.8614 14.6635 15.8169 14.5461C15.797 14.4918 15.7451 14.446 15.7018 14.4437ZM17.1644 15.6235C17.096 15.6217 17.0305 15.6441 16.9433 15.6904C16.7529 15.7912 16.7027 15.9171 16.8771 15.8559C17.0909 15.7809 17.2077 15.7677 17.198 15.8215C17.1752 15.9406 17.2083 15.9807 17.3012 15.9509C17.3513 15.9344 17.4035 15.9249 17.4562 15.9228C17.5571 15.9291 17.5161 15.7551 17.4038 15.6996C17.3035 15.6492 17.2328 15.6252 17.1644 15.6235ZM17.7424 16.1713C17.7327 16.185 17.7578 16.2468 17.8136 16.3848C17.8701 16.5228 17.9231 16.6367 17.9316 16.6372C17.9402 16.6378 17.947 16.5605 17.947 16.4661C17.947 16.3648 17.8991 16.2617 17.829 16.2136C17.8085 16.1985 17.787 16.1847 17.7646 16.1724C17.7532 16.1671 17.7462 16.1667 17.7424 16.1713ZM17.4021 16.1965C17.3893 16.1966 17.3765 16.1989 17.3645 16.2033C17.2659 16.2354 17.2049 16.4146 17.2037 16.6739C17.2037 16.7758 17.2294 16.8342 17.2653 16.8141C17.2995 16.7947 17.3109 16.7099 17.2898 16.6252C17.2797 16.573 17.2789 16.5193 17.2896 16.4672C17.3004 16.4151 17.3214 16.3657 17.3514 16.3218C17.4101 16.236 17.426 16.1999 17.4021 16.1965ZM18.0639 16.2102C18.0297 16.2079 18.0183 16.236 18.0394 16.2715C18.0604 16.3069 18.1066 16.3379 18.1408 16.3401C18.175 16.3424 18.1853 16.315 18.1642 16.2795C18.1431 16.244 18.0981 16.2125 18.0639 16.2102ZM18.4361 19.4359C18.5239 19.4319 18.6299 19.4988 18.6299 19.5847C18.6299 19.6322 18.6156 19.6706 18.5985 19.6694C18.5814 19.6683 18.5672 19.6391 18.5672 19.6047C18.5672 19.5704 18.5062 19.5389 18.4315 19.5343C18.3375 19.5286 18.3141 19.5074 18.3574 19.4656C18.3794 19.4469 18.4072 19.4364 18.4361 19.4359ZM7.28118 19.4605C7.31538 19.4622 7.34217 19.492 7.34217 19.5263C7.34227 19.5343 7.34072 19.5422 7.33761 19.5495C7.3345 19.5568 7.3299 19.5634 7.32411 19.5689C7.31831 19.5743 7.31145 19.5785 7.30396 19.5811C7.29647 19.5837 7.28852 19.5848 7.28061 19.5841C7.26406 19.5826 7.24862 19.5751 7.23719 19.563C7.22575 19.5509 7.2191 19.535 7.21848 19.5183C7.21848 19.4839 7.24698 19.4582 7.28118 19.4605ZM7.43907 19.532C7.54908 19.5389 7.96347 19.8663 7.96347 19.9465C7.96347 19.9694 7.91958 20.0014 7.86771 20.018C7.80463 20.0383 7.75409 19.9976 7.71609 19.8961C7.68474 19.8125 7.60209 19.7215 7.53255 19.6952C7.41969 19.6522 7.3473 19.5263 7.43907 19.532ZM18.4572 19.6866C18.4663 19.6842 18.4759 19.684 18.4852 19.6859C18.4945 19.6877 18.5032 19.6917 18.5107 19.6975C18.5854 19.749 18.5849 19.9178 18.5096 19.9133C18.4771 19.911 18.4338 19.8789 18.4127 19.844C18.3745 19.7799 18.4076 19.7009 18.4572 19.6866ZM17.9048 19.9442C17.9772 19.9482 18.0701 19.9717 18.2183 20.0169C18.4104 20.0753 18.5672 20.1411 18.5672 20.1623C18.5672 20.1835 18.7211 20.2791 18.9092 20.3741C19.1936 20.5172 19.2495 20.5716 19.2495 20.7038C19.2495 20.8389 19.2215 20.8601 19.058 20.8498C18.9531 20.8435 18.855 20.8257 18.8414 20.8108C18.7826 20.7484 18.822 20.6798 18.9126 20.6855C18.9656 20.6889 18.9913 20.662 18.9702 20.6265C18.9491 20.591 18.8374 20.5567 18.7222 20.5492C18.5877 20.5407 18.4828 20.492 18.4315 20.4141C18.3232 20.2521 17.9516 20.1462 17.8786 20.2562C17.8342 20.322 17.8136 20.3214 17.7726 20.2539C17.7418 20.2046 17.6746 20.1857 17.6084 20.2069C17.4374 20.2625 17.5212 20.0873 17.7122 19.9911C17.7704 19.9567 17.8374 19.9404 17.9048 19.9442ZM19.0329 20.0707C19.0842 20.0741 19.1264 20.1022 19.1264 20.1342C19.1264 20.2127 19.0289 20.2636 18.9793 20.2104C18.9092 20.1359 18.9365 20.065 19.0329 20.0707ZM19.1429 20.3214C19.217 20.3334 19.2027 20.4182 19.1229 20.4399C19.0819 20.4508 19.0591 20.4273 19.0728 20.3872C19.0864 20.3472 19.1184 20.3168 19.1429 20.3214ZM19.4524 20.5315C19.6063 20.5412 19.8696 20.717 19.8696 20.8108C19.8696 20.8435 19.7915 20.8647 19.6964 20.8589C19.6006 20.8532 19.4934 20.8755 19.4592 20.9082C19.4245 20.9408 19.3766 20.9465 19.3532 20.9213C19.3304 20.8967 19.311 20.7971 19.311 20.7004C19.311 20.5578 19.3384 20.5241 19.4524 20.5315ZM18.5615 20.67C18.5952 20.6716 18.6284 20.6791 18.6595 20.6924C18.7108 20.7152 18.753 20.7633 18.753 20.7988C18.753 20.8813 18.4634 20.8629 18.4127 20.7771C18.3762 20.7158 18.4629 20.6672 18.5615 20.67ZM20.0714 20.7696C20.1478 20.7851 20.2105 20.8257 20.2105 20.8601C20.2105 20.8944 20.1478 20.9276 20.0714 20.9339C19.9751 20.9414 19.9323 20.9122 19.9323 20.8423C19.9323 20.7719 19.9751 20.7496 20.0714 20.7696ZM21.3818 34.7908C21.5135 34.7988 21.5129 34.9705 21.3807 34.9889C21.2838 35.0014 21.1185 35.3758 20.9874 35.8796C20.813 36.9838 20.8933 37.6747 21.2462 38.2128C21.876 38.9283 25.259 39.629 26.1054 40.9748C23.924 40.261 17.5041 39.2403 15.2355 39.0159L15.1962 38.7217C15.1683 38.5162 15.1797 38.4131 15.2338 38.3817C15.2863 38.3523 15.2659 38.3345 15.1728 38.3284C15.0959 38.3227 15.0292 38.2969 15.0258 38.2712C14.9654 37.8304 14.9899 37.748 15.2065 37.6707C15.325 37.6283 15.5228 37.6112 15.6459 37.6329C15.769 37.6547 15.9007 37.6484 15.9389 37.6192C15.9853 37.5833 16.0352 37.6322 16.0888 37.7657C16.1658 37.9569 16.1783 37.9638 16.4536 37.9426C16.9199 37.906 17.1598 37.9334 17.4705 38.0588C17.8991 38.2317 18.5666 38.2523 18.4703 38.0903C18.4515 38.0582 18.5079 38.0365 18.5957 38.0422C18.6846 38.0479 18.7724 38.0897 18.7889 38.1349C18.8054 38.1802 18.8801 38.2248 18.9559 38.2351C19.0366 38.2491 19.1096 38.2918 19.1617 38.3553C19.2711 38.5122 19.2951 38.479 19.254 38.2242C19.2272 38.0559 19.1822 37.9804 19.0939 37.9592C18.9611 37.9277 18.8157 37.7652 18.8157 37.6484C18.8157 37.6083 18.8784 37.5511 18.9548 37.5196L19.095 37.4623L18.9388 37.3913C18.8049 37.3284 18.7986 37.3141 18.8921 37.2814C18.9696 37.2551 18.9901 37.2019 18.9633 37.0937C18.936 36.9826 18.9565 36.9334 19.0414 36.9071C19.1196 36.8786 19.1906 36.8332 19.2495 36.7743C19.3008 36.7205 19.4 36.6495 19.4701 36.6163C19.5738 36.5676 19.6108 36.5796 19.673 36.6827C19.7471 36.8075 19.7488 36.8069 19.8782 36.6941C19.9916 36.5951 20.0042 36.5356 19.9694 36.2654C19.9329 35.9906 19.9443 35.9448 20.0549 35.8922C20.1233 35.859 20.1803 35.7971 20.1803 35.7536C20.1803 35.7095 20.2356 35.6168 20.304 35.5476C20.3724 35.4789 20.4288 35.4062 20.4288 35.3873C20.4288 35.3312 20.6716 35.1199 20.7326 35.1239C20.764 35.1257 20.7993 35.1056 20.8107 35.0793C20.8449 35.0003 21.2724 34.7839 21.3818 34.7908ZM11.99 37.9918L12.5753 38.2242C13.0131 38.3977 13.2189 38.4509 13.3836 38.4303C13.5175 38.4131 13.6065 38.4269 13.6065 38.4647C13.6065 38.499 13.7267 38.5517 13.8738 38.5832C14.034 38.6175 14.1884 38.6976 14.2614 38.7852L14.4005 38.7978C14.4119 38.716 14.4791 38.6536 14.5738 38.6358C14.7698 38.5986 14.8656 38.6627 14.828 38.807C14.8109 38.8688 14.8303 38.9879 14.869 39.0056C13.0006 38.7881 11.7762 38.653 10.0559 38.7652C10.1072 38.7349 10.3968 38.59 10.5308 38.5975C10.6733 38.6061 10.8785 38.5574 11.0295 38.4778C11.1697 38.404 11.3886 38.3307 11.5157 38.3147C11.6514 38.2975 11.7979 38.2242 11.8691 38.1384L11.99 37.9918Z" fill="#112134"/>
</svg>
