<svg width="19" height="16" viewBox="0 0 19 16" fill="none" xmlns="http://www.w3.org/2000/svg">
<path d="M3 0.895508H16C16.7956 0.895508 17.5587 1.21158 18.1213 1.77419C18.6839 2.3368 19 3.09986 19 3.89551V12.8955C19 13.6912 18.6839 14.4542 18.1213 15.0168C17.5587 15.5794 16.7956 15.8955 16 15.8955H3C2.20435 15.8955 1.44129 15.5794 0.87868 15.0168C0.316071 14.4542 0 13.6912 0 12.8955V3.89551C0 3.09986 0.316071 2.3368 0.87868 1.77419C1.44129 1.21158 2.20435 0.895508 3 0.895508ZM3 1.89551C2.5 1.89551 2.06 2.06551 1.72 2.36551L9.5 7.39551L17.28 2.36551C16.94 2.06551 16.5 1.89551 16 1.89551H3ZM9.5 8.60551L1.13 3.17551C1.05 3.39551 1 3.64551 1 3.89551V12.8955C1 13.4259 1.21071 13.9346 1.58579 14.3097C1.96086 14.6848 2.46957 14.8955 3 14.8955H16C16.5304 14.8955 17.0391 14.6848 17.4142 14.3097C17.7893 13.9346 18 13.4259 18 12.8955V3.89551C18 3.64551 17.95 3.39551 17.87 3.17551L9.5 8.60551Z" fill="black"/>
</svg>
