<svg width="34" height="27" viewBox="0 0 34 27" fill="none" xmlns="http://www.w3.org/2000/svg">
<path d="M5.36842 0H28.6316C30.0554 0 31.4209 0.568927 32.4276 1.58162C33.4344 2.59432 34 3.96783 34 5.4V21.6C34 23.0322 33.4344 24.4057 32.4276 25.4184C31.4209 26.4311 30.0554 27 28.6316 27H5.36842C3.94463 27 2.57915 26.4311 1.57237 25.4184C0.5656 24.4057 0 23.0322 0 21.6V5.4C0 3.96783 0.5656 2.59432 1.57237 1.58162C2.57915 0.568927 3.94463 0 5.36842 0ZM5.36842 1.8C4.47368 1.8 3.68632 2.106 3.07789 2.646L17 11.7L30.9221 2.646C30.3137 2.106 29.5263 1.8 28.6316 1.8H5.36842ZM17 13.878L2.02211 4.104C1.87895 4.5 1.78947 4.95 1.78947 5.4V21.6C1.78947 22.5548 2.16654 23.4705 2.83772 24.1456C3.50891 24.8207 4.41923 25.2 5.36842 25.2H28.6316C29.5808 25.2 30.4911 24.8207 31.1623 24.1456C31.8335 23.4705 32.2105 22.5548 32.2105 21.6V5.4C32.2105 4.95 32.1211 4.5 31.9779 4.104L17 13.878Z" fill="#282E3C"/>
</svg>
