<svg width="18" height="21" viewBox="0 0 18 21" fill="none" xmlns="http://www.w3.org/2000/svg">
<path d="M9 14.7955C12.864 14.7955 16 16.2608 16 18.0622V19.8955H2V18.0622C2 16.2608 5.136 14.7955 9 14.7955ZM15.0667 18.0622C15.0667 16.7742 12.3507 15.7288 9 15.7288C5.64933 15.7288 2.93333 16.7742 2.93333 18.0622V19.4622H15.0667V18.0622ZM9 6.39551C9.86637 6.39551 10.6973 6.73967 11.3099 7.35229C11.9225 7.96491 12.2667 8.7958 12.2667 9.66217C12.2667 10.5285 11.9225 11.3594 11.3099 11.9721C10.6973 12.5847 9.86637 12.9288 9 12.9288C8.13363 12.9288 7.30274 12.5847 6.69012 11.9721C6.0775 11.3594 5.73333 10.5285 5.73333 9.66217C5.73333 8.7958 6.0775 7.96491 6.69012 7.35229C7.30274 6.73967 8.13363 6.39551 9 6.39551ZM9 7.32884C8.38116 7.32884 7.78767 7.57467 7.35008 8.01226C6.9125 8.44984 6.66667 9.04334 6.66667 9.66217C6.66667 10.281 6.9125 10.8745 7.35008 11.3121C7.78767 11.7497 8.38116 11.9955 9 11.9955C9.61884 11.9955 10.2123 11.7497 10.6499 11.3121C11.0875 10.8745 11.3333 10.281 11.3333 9.66217C11.3333 9.04334 11.0875 8.44984 10.6499 8.01226C10.2123 7.57467 9.61884 7.32884 9 7.32884Z" fill="black"/>
<path fill-rule="evenodd" clip-rule="evenodd" d="M14.8235 0.395508C15.666 0.395508 16.4737 0.728452 17.0694 1.32067C17.6651 1.91289 18 2.71588 18 3.5534V17.2376C18 18.0751 17.6651 18.8781 17.0694 19.4703C16.4737 20.0626 15.666 20.3955 14.8235 20.3955H3.17647C2.33402 20.3955 1.52631 20.0626 0.930607 19.4703C0.334903 18.8781 1.67139e-08 18.0751 0 17.2376V3.5534C0 2.71588 0.334903 1.91289 0.930607 1.32067C1.52631 0.728452 2.33402 0.395508 3.17647 0.395508H14.8235ZM3.17647 1.44814C2.61484 1.44814 2.07636 1.6701 1.67923 2.06492C1.28209 2.45973 1.05882 2.99505 1.05882 3.5534V17.2376C1.05882 17.796 1.28209 18.3313 1.67923 18.7261C2.07636 19.1209 2.61484 19.3429 3.17647 19.3429H14.8235C15.3852 19.3429 15.9236 19.1209 16.3208 18.7261C16.7179 18.3313 16.9412 17.796 16.9412 17.2376V3.5534C16.9412 2.99505 16.7179 2.45973 16.3208 2.06492C15.9236 1.6701 15.3852 1.44814 14.8235 1.44814H13.7647V4.60603H4.23529V1.44814H3.17647ZM5.29412 3.5534H12.7059V1.44814H5.29412V3.5534Z" fill="black"/>
</svg>
