<svg width="19" height="21" viewBox="0 0 19 21" fill="none" xmlns="http://www.w3.org/2000/svg">
<path d="M17.5 20.3955C17.8978 20.3955 18.2794 20.2375 18.5607 19.9562C18.842 19.6749 19 19.2933 19 18.8955V15.3955C19 14.9977 18.842 14.6162 18.5607 14.3348C18.2794 14.0535 17.8978 13.8955 17.5 13.8955C16.33 13.8955 15.18 13.7155 14.08 13.3455C13.817 13.2625 13.5363 13.2531 13.2683 13.3183C13.0004 13.3835 12.7554 13.5209 12.56 13.7155L11.12 15.1555C8.63224 13.7979 6.58758 11.7533 5.23 9.26551L6.66 7.83551C7.07 7.44551 7.22 6.86551 7.04 6.30551C6.68 5.21551 6.5 4.06551 6.5 2.89551C6.5 2.49768 6.34196 2.11615 6.06066 1.83485C5.77936 1.55354 5.39782 1.39551 5 1.39551H1.5C1.10218 1.39551 0.720644 1.55354 0.43934 1.83485C0.158035 2.11615 0 2.49768 0 2.89551C0 12.5455 7.85 20.3955 17.5 20.3955ZM1.5 2.39551H5C5.13261 2.39551 5.25979 2.44819 5.35355 2.54195C5.44732 2.63572 5.5 2.7629 5.5 2.89551C5.5 4.17551 5.7 5.42551 6.09 6.61551C6.14 6.75551 6.13 6.95551 5.97 7.11551L4 9.07551C5.65 12.3055 8.07 14.7255 11.31 16.3955L13.26 14.4255C13.4 14.2855 13.59 14.2455 13.77 14.2955C14.97 14.6955 16.22 14.8955 17.5 14.8955C17.6326 14.8955 17.7598 14.9482 17.8536 15.042C17.9473 15.1357 18 15.2629 18 15.3955V18.8955C18 19.0281 17.9473 19.1553 17.8536 19.2491C17.7598 19.3428 17.6326 19.3955 17.5 19.3955C8.4 19.3955 1 11.9955 1 2.89551C1 2.7629 1.05268 2.63572 1.14645 2.54195C1.24021 2.44819 1.36739 2.39551 1.5 2.39551Z" fill="black"/>
<path d="M13.0632 6.33233C14.179 7.44819 14.8382 8.85157 15.0453 10.3017L14.386 10.3955C14.1959 9.03444 13.5662 7.77285 12.5923 6.80316C11.5801 5.7909 10.3136 5.19315 9 5.00951L9.0938 4.35017C10.5439 4.55734 11.9473 5.21648 13.0632 6.33233Z" fill="black"/>
<path d="M14.4757 4.91985C15.9117 6.35586 16.764 8.14967 17.0183 10.0235L16.359 10.0989C16.1066 8.31544 15.2802 6.66266 14.0048 5.39068C12.6771 4.06295 11.0057 3.27667 9.29657 3.03655L9.37197 2.37721C11.2458 2.63146 13.0396 3.48385 14.4757 4.91985Z" fill="black"/>
<path d="M15.8881 3.50738C17.6443 5.26355 18.6798 7.46704 19 9.74582L18.3411 9.84008C18.0398 7.69311 17.0652 5.62609 15.4173 3.9782C13.7694 2.33031 11.7024 1.35572 9.55543 1.05439L9.64968 0.395508C11.9285 0.715675 14.132 1.7512 15.8881 3.50738Z" fill="black"/>
</svg>
