<svg width="52" height="52" viewBox="0 0 52 52" fill="none" xmlns="http://www.w3.org/2000/svg">
<path d="M34.0043 23.0764V23.1031M7.79987 16.0847C6.63031 15.1858 5.73205 13.981 5.20439 12.6035C4.67672 11.2261 4.54019 9.7295 4.80988 8.27928C5.07957 6.82906 5.74499 5.48164 6.73258 4.38595C7.72017 3.29025 8.99148 2.48896 10.406 2.07061C11.8205 1.65227 13.3232 1.63318 14.7479 2.01544C16.1726 2.39771 17.4638 3.16645 18.4789 4.23669C19.494 5.30693 20.1935 6.63701 20.4999 8.07991C20.8064 9.52281 20.7079 11.0224 20.2154 12.4128M36.6707 4.41036V14.5513C39.9707 16.4611 42.4833 19.4831 43.7585 23.0764H47.3343C48.0416 23.0764 48.7198 23.3573 49.2199 23.8574C49.72 24.3575 50.0009 25.0357 50.0009 25.7429V31.0761C50.0009 31.7833 49.72 32.4616 49.2199 32.9616C48.7198 33.4617 48.0416 33.7427 47.3343 33.7427H43.7558C42.8598 36.2759 41.3372 38.5425 39.3346 40.3371V45.7423C39.3346 46.8031 38.9132 47.8205 38.1631 48.5706C37.413 49.3207 36.3956 49.7421 35.3348 49.7421C34.2739 49.7421 33.2565 49.3207 32.5064 48.5706C31.7563 47.8205 31.3349 46.8031 31.3349 45.7423V44.1876C30.4538 44.3357 29.5618 44.4098 28.6683 44.409H18.002C17.1085 44.4098 16.2166 44.3357 15.3355 44.1876V45.7423C15.3355 46.8031 14.914 47.8205 14.1639 48.5706C13.4138 49.3207 12.3964 49.7421 11.3356 49.7421C10.2748 49.7421 9.25738 49.3207 8.50726 48.5706C7.75714 47.8205 7.33573 46.8031 7.33573 45.7423V40.3371C4.91971 38.1771 3.21661 35.3343 2.45185 32.185C1.6871 29.0358 1.89675 25.7285 3.05305 22.701C4.20936 19.6735 6.2578 17.0685 8.92723 15.2309C11.5967 13.3932 14.7612 12.4096 18.002 12.4101H24.6685L36.6707 4.41036Z" stroke="#112134" stroke-width="3" stroke-linecap="round" stroke-linejoin="round"/>
</svg>
