<svg width="19" height="20" viewBox="0 0 19 20" fill="none" xmlns="http://www.w3.org/2000/svg">
<path d="M9.5 0.395508C12.0196 0.395508 14.4359 1.3964 16.2175 3.17799C17.9991 4.95959 19 7.37595 19 9.89551C19 12.4151 17.9991 14.8314 16.2175 16.613C14.4359 18.3946 12.0196 19.3955 9.5 19.3955C6.98044 19.3955 4.56408 18.3946 2.78249 16.613C1.00089 14.8314 0 12.4151 0 9.89551C0 7.37595 1.00089 4.95959 2.78249 3.17799C4.56408 1.3964 6.98044 0.395508 9.5 0.395508ZM9.5 1.39551C7.24566 1.39551 5.08365 2.29104 3.48959 3.8851C1.89553 5.47916 1 7.64117 1 9.89551C1 12.1498 1.89553 14.3119 3.48959 15.9059C5.08365 17.5 7.24566 18.3955 9.5 18.3955C10.6162 18.3955 11.7215 18.1756 12.7528 17.7485C13.7841 17.3213 14.7211 16.6952 15.5104 15.9059C16.2997 15.1166 16.9258 14.1796 17.353 13.1483C17.7801 12.1171 18 11.0117 18 9.89551C18 7.64117 17.1045 5.47916 15.5104 3.8851C13.9163 2.29104 11.7543 1.39551 9.5 1.39551ZM9 4.39551H10V9.81551L14.7 12.5255L14.2 13.3955L9 10.3955V4.39551Z" fill="black"/>
</svg>
