<svg width="42" height="49" viewBox="0 0 42 49" fill="none" xmlns="http://www.w3.org/2000/svg">
<path d="M9.88235 0.142151H12.3529C13.0082 0.142151 13.6366 0.408315 14.0999 0.882092C14.5632 1.35587 14.8235 1.99845 14.8235 2.66847V5.19478H27.1765V2.66847C27.1765 1.99845 27.4368 1.35587 27.9001 0.882092C28.3634 0.408315 28.9918 0.142151 29.6471 0.142151H32.1176C32.7729 0.142151 33.4013 0.408315 33.8646 0.882092C34.3279 1.35587 34.5882 1.99845 34.5882 2.66847V5.19478C36.554 5.19478 38.4392 5.99328 39.8291 7.41461C41.2191 8.83593 42 10.7637 42 12.7737V40.5632C42 42.5733 41.2191 44.501 39.8291 45.9223C38.4392 47.3437 36.554 48.1422 34.5882 48.1422H7.41176C5.44604 48.1422 3.56083 47.3437 2.17086 45.9223C0.78088 44.501 0 42.5733 0 40.5632V12.7737C0 10.7637 0.78088 8.83593 2.17086 7.41461C3.56083 5.99328 5.44604 5.19478 7.41176 5.19478V2.66847C7.41176 1.99845 7.67206 1.35587 8.13538 0.882092C8.59871 0.408315 9.22711 0.142151 9.88235 0.142151ZM29.6471 5.19478H32.1176V2.66847H29.6471V5.19478ZM12.3529 5.19478V2.66847H9.88235V5.19478H12.3529ZM7.41176 7.7211C6.10128 7.7211 4.84448 8.25343 3.91782 9.20098C2.99117 10.1485 2.47059 11.4337 2.47059 12.7737V15.3H39.5294V12.7737C39.5294 11.4337 39.0088 10.1485 38.0822 9.20098C37.1555 8.25343 35.8987 7.7211 34.5882 7.7211H7.41176ZM2.47059 40.5632C2.47059 41.9032 2.99117 43.1884 3.91782 44.136C4.84448 45.0835 6.10128 45.6158 7.41176 45.6158H34.5882C35.8987 45.6158 37.1555 45.0835 38.0822 44.136C39.0088 43.1884 39.5294 41.9032 39.5294 40.5632V17.8264H2.47059V40.5632ZM22.2353 27.9316H34.5882V40.5632H22.2353V27.9316ZM24.7059 30.4579V38.0369H32.1176V30.4579H24.7059Z" fill="#112134"/>
</svg>
