<svg width="35" height="34" viewBox="0 0 35 34" fill="none" xmlns="http://www.w3.org/2000/svg">
<path fill-rule="evenodd" clip-rule="evenodd" d="M26.3288 11.7929C26.4 11.3542 26.3496 10.9049 26.1827 10.4914C26.0159 10.0779 25.7386 9.71507 25.3794 9.44026C25.0202 9.16546 24.5921 8.9886 24.1392 8.92792C23.6862 8.86723 23.2249 8.9249 22.8025 9.095L7.92225 15.0705C6.03575 15.8287 6.31225 18.5045 8.31775 18.8819L11.102 19.4055C11.8738 19.55 12.6753 19.414 13.349 19.0213L14.161 18.5504C13.9296 18.9961 13.8776 19.5096 14.0151 19.9906C14.1527 20.4716 14.4699 20.8855 14.9048 21.1514L21.2923 25.041C21.581 25.2169 21.9101 25.3204 22.2502 25.3423C22.5903 25.3641 22.9306 25.3035 23.2407 25.166C23.5507 25.0285 23.8207 24.8183 24.0265 24.5543C24.2322 24.2904 24.3673 23.981 24.4195 23.6538L26.3288 11.7929ZM15.9968 19.4599L21.2993 14.5214C22.2443 13.6425 21.0998 12.1873 19.978 12.8384L12.292 17.3077C12.0522 17.4466 11.7682 17.495 11.494 17.4437L8.70975 16.9201L23.5883 10.9446C23.6727 10.9106 23.7649 10.8991 23.8554 10.9112C23.9459 10.9233 24.0314 10.9586 24.1033 11.0135C24.1751 11.0684 24.2305 11.1408 24.264 11.2234C24.2974 11.306 24.3076 11.3958 24.2935 11.4835L22.386 23.3478L15.9968 19.4599Z" fill="#282E3C"/>
<path fill-rule="evenodd" clip-rule="evenodd" d="M17.5 0C7.83475 0 0 7.6109 0 17C0 26.3891 7.83475 34 17.5 34C27.1652 34 35 26.3891 35 17C35 7.6109 27.1652 0 17.5 0ZM2.058 17C2.058 13.0215 3.68492 9.20603 6.58086 6.39283C9.47679 3.57964 13.4045 1.9992 17.5 1.9992C21.5955 1.9992 25.5232 3.57964 28.4191 6.39283C31.3151 9.20603 32.942 13.0215 32.942 17C32.942 20.9785 31.3151 24.794 28.4191 27.6072C25.5232 30.4204 21.5955 32.0008 17.5 32.0008C13.4045 32.0008 9.47679 30.4204 6.58086 27.6072C3.68492 24.794 2.058 20.9785 2.058 17Z" fill="#282E3C"/>
</svg>
