<svg width="25" height="26" viewBox="0 0 25 26" fill="none" xmlns="http://www.w3.org/2000/svg">
<path fill-rule="evenodd" clip-rule="evenodd" d="M18.8062 8.81334C18.8571 8.49075 18.8211 8.16043 18.7019 7.85637C18.5828 7.55232 18.3847 7.28553 18.1281 7.08346C17.8716 6.8814 17.5658 6.75136 17.2423 6.70674C16.9187 6.66212 16.5892 6.70452 16.2875 6.82959L5.65875 11.2233C4.31125 11.7808 4.50875 13.7483 5.94125 14.0258L7.93 14.4108C8.48125 14.5171 9.05375 14.4171 9.535 14.1283L10.115 13.7821C9.94971 14.1098 9.91256 14.4874 10.0108 14.8411C10.109 15.1947 10.3356 15.4991 10.6463 15.6946L15.2087 18.5546C15.415 18.6839 15.6501 18.7601 15.893 18.7761C16.1359 18.7921 16.379 18.7476 16.6005 18.6465C16.8219 18.5454 17.0148 18.3908 17.1618 18.1968C17.3087 18.0027 17.4052 17.7752 17.4425 17.5346L18.8062 8.81334ZM11.4263 14.4508L15.2137 10.8196C15.8887 10.1733 15.0713 9.10334 14.27 9.58209L8.78 12.8683C8.60871 12.9705 8.40583 13.0061 8.21 12.9683L6.22125 12.5833L16.8488 8.18959C16.909 8.16461 16.9749 8.15614 17.0396 8.16505C17.1042 8.17395 17.1653 8.19991 17.2166 8.24026C17.2679 8.28061 17.3075 8.33389 17.3314 8.39462C17.3553 8.45536 17.3626 8.52136 17.3525 8.58584L15.99 17.3096L11.4263 14.4508Z" fill="#CDD6E9"/>
<path fill-rule="evenodd" clip-rule="evenodd" d="M12.5 0.14209C5.59625 0.14209 0 5.73834 0 12.6421C0 19.5458 5.59625 25.1421 12.5 25.1421C19.4037 25.1421 25 19.5458 25 12.6421C25 5.73834 19.4037 0.14209 12.5 0.14209ZM1.47 12.6421C1.47 9.71675 2.63209 6.91123 4.70061 4.8427C6.76914 2.77418 9.57466 1.61209 12.5 1.61209C15.4253 1.61209 18.2309 2.77418 20.2994 4.8427C22.3679 6.91123 23.53 9.71675 23.53 12.6421C23.53 15.5674 22.3679 18.373 20.2994 20.4415C18.2309 22.51 15.4253 23.6721 12.5 23.6721C9.57466 23.6721 6.76914 22.51 4.70061 20.4415C2.63209 18.373 1.47 15.5674 1.47 12.6421Z" fill="#CDD6E9"/>
</svg>
