<svg width="13" height="20" viewBox="0 0 13 20" fill="none" xmlns="http://www.w3.org/2000/svg">
<path d="M6.5 4.39551C7.16304 4.39551 7.79893 4.6589 8.26777 5.12774C8.73661 5.59658 9 6.23247 9 6.89551C9 7.22381 8.93534 7.5489 8.8097 7.85222C8.68406 8.15553 8.49991 8.43113 8.26777 8.66327C8.03562 8.89542 7.76002 9.07957 7.45671 9.20521C7.15339 9.33084 6.8283 9.39551 6.5 9.39551C5.83696 9.39551 5.20107 9.13212 4.73223 8.66327C4.26339 8.19443 4 7.55855 4 6.89551C4 6.23247 4.26339 5.59658 4.73223 5.12774C5.20107 4.6589 5.83696 4.39551 6.5 4.39551ZM6.5 5.39551C6.10218 5.39551 5.72064 5.55354 5.43934 5.83485C5.15804 6.11615 5 6.49768 5 6.89551C5 7.29333 5.15804 7.67486 5.43934 7.95617C5.72064 8.23747 6.10218 8.39551 6.5 8.39551C6.89782 8.39551 7.27936 8.23747 7.56066 7.95617C7.84196 7.67486 8 7.29333 8 6.89551C8 6.49768 7.84196 6.11615 7.56066 5.83485C7.27936 5.55354 6.89782 5.39551 6.5 5.39551ZM1.8 9.75551L6.5 17.4855L11.2 9.75551C11.71 8.89551 12 7.94551 12 6.89551C12 5.43682 11.4205 4.03787 10.3891 3.00642C9.35764 1.97497 7.95869 1.39551 6.5 1.39551C5.04131 1.39551 3.64236 1.97497 2.61091 3.00642C1.57946 4.03787 1 5.43682 1 6.89551C1 7.94551 1.29 8.89551 1.8 9.75551ZM12.05 10.2755L6.5 19.3955L0.95 10.2755C0.35 9.28551 0 8.13551 0 6.89551C0 5.1716 0.684819 3.5183 1.90381 2.29931C3.12279 1.08033 4.77609 0.395508 6.5 0.395508C8.22391 0.395508 9.87721 1.08033 11.0962 2.29931C12.3152 3.5183 13 5.1716 13 6.89551C13 8.13551 12.65 9.28551 12.05 10.2755Z" fill="black"/>
</svg>
