<svg width="14" height="19" viewBox="0 0 14 19" fill="none" xmlns="http://www.w3.org/2000/svg">
<path d="M7 4C7.66304 4 8.29893 4.26339 8.76777 4.73223C9.23661 5.20107 9.5 5.83696 9.5 6.5C9.5 6.8283 9.43534 7.15339 9.3097 7.45671C9.18406 7.76002 8.99991 8.03562 8.76777 8.26777C8.53562 8.49991 8.26002 8.68406 7.95671 8.8097C7.65339 8.93534 7.3283 9 7 9C6.33696 9 5.70107 8.73661 5.23223 8.26777C4.76339 7.79893 4.5 7.16304 4.5 6.5C4.5 5.83696 4.76339 5.20107 5.23223 4.73223C5.70107 4.26339 6.33696 4 7 4ZM7 5C6.60218 5 6.22064 5.15804 5.93934 5.43934C5.65804 5.72064 5.5 6.10218 5.5 6.5C5.5 6.89782 5.65804 7.27936 5.93934 7.56066C6.22064 7.84196 6.60218 8 7 8C7.39782 8 7.77936 7.84196 8.06066 7.56066C8.34196 7.27936 8.5 6.89782 8.5 6.5C8.5 6.10218 8.34196 5.72064 8.06066 5.43934C7.77936 5.15804 7.39782 5 7 5ZM2.3 9.36L7 17.09L11.7 9.36C12.21 8.5 12.5 7.55 12.5 6.5C12.5 5.04131 11.9205 3.64236 10.8891 2.61091C9.85764 1.57946 8.45869 1 7 1C5.54131 1 4.14236 1.57946 3.11091 2.61091C2.07946 3.64236 1.5 5.04131 1.5 6.5C1.5 7.55 1.79 8.5 2.3 9.36ZM12.55 9.88L7 19L1.45 9.88C0.85 8.89 0.5 7.74 0.5 6.5C0.5 4.77609 1.18482 3.12279 2.40381 1.90381C3.62279 0.684819 5.27609 0 7 0C8.72391 0 10.3772 0.684819 11.5962 1.90381C12.8152 3.12279 13.5 4.77609 13.5 6.5C13.5 7.74 13.15 8.89 12.55 9.88Z" fill="#CDD6E9"/>
</svg>
