<svg width="53" height="49" viewBox="0 0 53 49" fill="none" xmlns="http://www.w3.org/2000/svg">
<path d="M25.6635 45.8697C26.0097 45.8697 26.3648 45.7913 26.7286 45.6345C27.0925 45.4777 27.3866 45.2862 27.611 45.0599L48.2677 24.2228C48.9337 23.5511 49.4477 22.8652 49.8098 22.165C50.1702 21.4613 50.3503 20.6898 50.3503 19.8507C50.3503 19.0008 50.1702 18.1759 49.8098 17.376C49.4477 16.5742 48.9337 15.8438 48.2677 15.1845L38.3315 5.16283C37.6761 4.49115 37.0023 3.99853 36.3098 3.68496C35.6191 3.37139 34.8525 3.21461 34.0099 3.21461C33.1779 3.21461 32.4051 3.37139 31.6915 3.68496C30.9778 3.99853 30.3057 4.49026 29.6751 5.16016L27.3646 7.49054L32.2664 12.4479C32.7928 12.97 33.1859 13.5633 33.4455 14.2278C33.7034 14.8924 33.8324 15.5667 33.8324 16.2509C33.8324 17.6423 33.3811 18.7933 32.4784 19.7037C31.5758 20.6141 30.4355 21.0684 29.0577 21.0666C28.3776 21.0666 27.7143 20.9624 27.0678 20.7539C26.4213 20.5455 25.8392 20.1803 25.3217 19.6582L21.424 15.7458C21.1184 15.4375 20.7281 15.2834 20.2529 15.2834C19.776 15.2834 19.3847 15.4375 19.0791 15.7458L8.81168 26.1015C8.54494 26.3723 8.34445 26.6797 8.2102 27.0235C8.07595 27.3674 8.00883 27.7148 8.00883 28.0658C8.00883 28.6965 8.20932 29.2158 8.6103 29.6238C9.00952 30.0336 9.52178 30.2385 10.1471 30.2385C10.4933 30.2385 10.8484 30.1601 11.2123 30.0033C11.5762 29.8448 11.8703 29.6523 12.0946 29.4261L19.5534 21.9031C19.8007 21.6537 20.1027 21.5174 20.4596 21.4942C20.8164 21.4711 21.1396 21.6074 21.4293 21.9031C21.712 22.1882 21.8533 22.5035 21.8533 22.8492C21.8533 23.1948 21.712 23.5101 21.4293 23.7952L13.9838 31.3182C13.7153 31.589 13.5139 31.8963 13.3797 32.2402C13.2472 32.5858 13.181 32.9332 13.181 33.2824C13.181 33.8793 13.3894 34.3879 13.8063 34.8084C14.2232 35.2289 14.7275 35.44 15.3192 35.4418C15.6655 35.4418 16.0205 35.3625 16.3844 35.2039C16.7483 35.0454 17.0424 34.8538 17.2667 34.6293L25.3376 26.5051C25.5849 26.2539 25.8861 26.1167 26.2411 26.0935C26.5962 26.0704 26.9194 26.2066 27.2109 26.5024C27.4935 26.7875 27.6348 27.1028 27.6348 27.4485C27.6348 27.7941 27.4935 28.1094 27.2109 28.3945L19.1559 36.5348C18.9228 36.7611 18.7302 37.0577 18.5783 37.4247C18.4264 37.7917 18.3504 38.1499 18.3504 38.4991C18.3504 39.0941 18.5598 39.6019 18.9784 40.0224C19.3971 40.4464 19.9014 40.6584 20.4914 40.6584C20.8376 40.6584 21.182 40.5907 21.5247 40.4553C21.8674 40.3199 22.1712 40.1168 22.4362 39.846L30.5097 31.7217C30.757 31.4705 31.0582 31.3333 31.4132 31.3102C31.7683 31.2888 32.0924 31.4251 32.3857 31.719C32.6665 32.0041 32.807 32.3195 32.807 32.6651C32.807 33.0107 32.6656 33.3261 32.383 33.6111L24.3148 41.7488C24.0481 42.0196 23.8476 42.3447 23.7133 42.7242C23.5791 43.1037 23.512 43.4502 23.512 43.7638C23.512 44.3945 23.7319 44.9032 24.1717 45.2898C24.6116 45.6764 25.1097 45.8697 25.6661 45.8697M25.6502 48.5422C24.2883 48.5422 23.1225 48.0397 22.1527 47.0349C21.1829 46.03 20.7572 44.7882 20.8756 43.3095C19.3741 43.3273 18.1243 42.8757 17.1263 41.9545C16.1283 41.0334 15.654 39.7471 15.7034 38.0955C14.0677 38.1133 12.7782 37.6412 11.8349 36.6791C10.8917 35.717 10.4624 34.4503 10.5472 32.8789C9.07399 32.8967 7.84102 32.478 6.84828 31.6228C5.85731 30.7712 5.36182 29.5846 5.36182 28.0631C5.36182 27.3772 5.49342 26.6913 5.75662 26.0053C6.01982 25.3176 6.40844 24.7136 6.92247 24.1934L17.2429 13.7842C18.0554 12.9664 19.057 12.5575 20.2476 12.5575C21.4382 12.5575 22.4397 12.9673 23.2523 13.7868L27.097 17.6646C27.3213 17.9015 27.5986 18.0966 27.9289 18.2499C28.2593 18.4031 28.6311 18.4788 29.0444 18.477C29.6115 18.477 30.1123 18.2775 30.5468 17.8784C30.9813 17.4793 31.1995 16.9591 31.2013 16.3177C31.2013 15.9008 31.1253 15.5266 30.9734 15.1952C30.8215 14.8621 30.6289 14.5824 30.3958 14.3561L21.281 5.16283C20.6238 4.49115 19.9411 3.99853 19.2328 3.68496C18.5244 3.37139 17.749 3.21461 16.9064 3.21461C16.0744 3.21461 15.3183 3.37139 14.6383 3.68496C13.96 3.99853 13.2878 4.49115 12.6219 5.16283L4.55368 13.3138C3.62806 14.2456 3.03278 15.3832 2.76781 16.7266C2.50284 18.0699 2.62384 19.3527 3.13081 20.5749C3.22973 20.9205 3.18557 21.2546 2.99833 21.5771C2.81109 21.8995 2.54612 22.1044 2.20343 22.1917C1.86074 22.279 1.52071 22.2327 1.18332 22.0528C0.845926 21.8728 0.633953 21.6082 0.547398 21.259C-0.0231613 19.5309 -0.147695 17.7857 0.173796 16.0237C0.495288 14.2617 1.32551 12.7054 2.66447 11.3549L10.677 3.27073C11.6009 2.34784 12.5786 1.66191 13.6102 1.21294C14.6418 0.765748 15.7573 0.542152 16.9567 0.542152C18.1561 0.542152 19.2619 0.766639 20.2741 1.21561C21.288 1.6628 22.2525 2.34784 23.1675 3.27073L25.4727 5.59844L27.7832 3.27073C28.7071 2.34784 29.676 1.66191 30.6899 1.21294C31.7038 0.765748 32.8105 0.542152 34.0099 0.542152C35.2093 0.542152 36.3248 0.766639 37.3564 1.21561C38.3863 1.6628 39.3578 2.34784 40.271 3.27073L50.1437 13.2256C51.0569 14.1467 51.7617 15.181 52.2581 16.3284C52.7545 17.4757 53.0018 18.6543 53 19.864C53 21.0755 52.7527 22.1917 52.2581 23.2126C51.7635 24.2335 51.0587 25.2063 50.1437 26.1309L29.4843 46.9494C28.9349 47.5052 28.3361 47.9097 27.6878 48.1627C27.0413 48.4157 26.3639 48.5422 25.6502 48.5422Z" fill="#112134"/>
</svg>
